<svg xmlns:xlink="http://www.w3.org/1999/xlink" xmlns="http://www.w3.org/2000/svg" viewBox="0 0 24 24" width="64" height="64"><path fill="#8A9499" fill-rule="evenodd" d="M12,1 C18.0751322,1 23,5.92486775 23,12 C23,18.0751322 18.0751322,23 12,23 C5.92486775,23 1,18.0751322 1,12 C1,5.92486775 5.92486775,1 12,1 Z M12,3 C7.02943725,3 3,7.02943725 3,12 C3,16.9705627 7.02943725,21 12,21 C16.9705627,21 21,16.9705627 21,12 C21,7.02943725 16.9705627,3 12,3 Z M16.327789,7.85552736 C16.719041,7.46622195 17.3517225,7.46650245 17.7426292,7.85615463 C17.7433298,7.85580444 17.743505,7.8559797 17.74368,7.85615502 C18.1339139,8.24696948 18.1334433,8.88013428 17.7421039,9.26984242 L17.7421039,9.26984242 L10.4076322,16.593419 C10.0164977,16.9829217 9.38373805,16.9826865 8.99289322,16.5928932 L8.99289322,16.5928932 L5.90710678,13.5071068 C5.51658249,13.1165825 5.51658249,12.4834175 5.90710678,12.0928932 C6.29763107,11.7023689 6.93079605,11.7023689 7.32132034,12.0928932 L7.32132034,12.0928932 L9.34644661,14.1180195 C9.54189998,14.3128456 9.85824071,14.3129858 10.0538668,14.1183331 L10.0538668,14.1183331 Z"></path></svg>