<svg xmlns:xlink="http://www.w3.org/1999/xlink" xmlns="http://www.w3.org/2000/svg" viewBox="0 0 24 24" width="24" height="24"><path fill="#3D474D" fill-rule="evenodd" d="M12,5 C15.8659932,5 19,8.13400675 19,12 L19,12 L19,16 C20.1045695,16 21,16.8954305 21,18 L21,18 L21,20 C21,21.1045695 20.1045695,22 19,22 L19,22 L5,22 C3.8954305,22 3,21.1045695 3,20 L3,20 L3,18 C3,16.8954305 3.8954305,16 5,16 L5,16 L5,12 C5,8.13400675 8.13400675,5 12,5 Z M19,18 L5,18 L5,20 L19,20 L19,18 Z M12,7 C9.23857625,7 7,9.23857625 7,12 L7,12 L7,15 L17,15 L17,12 C17,9.3112453 14.8776933,7.11818189 12.2168896,7.00461951 L12.2168896,7.00461951 Z M12,9 C12.5522847,9 13,9.44771525 13,10 C13,10.5522847 12.5522847,11 12,11 C10.8954305,11 10,11.8954305 10,13 L10,13 L9.99327227,13.1166211 C9.93550716,13.6139598 9.51283584,14 9,14 C8.44771525,14 8,13.5522847 8,13 C8,10.790861 9.790861,9 12,9 Z M3,11 C3.55228475,11 4,11.4477153 4,12 C4,12.5522847 3.55228475,13 3,13 L1,13 C0.44771525,13 6.76353751e-17,12.5522847 0,12 C-6.76353751e-17,11.4477153 0.44771525,11 1,11 L3,11 Z M23,11 C23.5522847,11 24,11.4477153 24,12 C24,12.5522847 23.5522847,13 23,13 L21,13 C20.4477153,13 20,12.5522847 20,12 C20,11.4477153 20.4477153,11 21,11 L23,11 Z M20.4852814,3.51471863 C20.8758057,3.90524292 20.8758057,4.5384079 20.4852814,4.92893219 L19.0710678,6.34314575 C18.6805435,6.73367004 18.0473785,6.73367004 17.6568542,6.34314575 C17.26633,5.95262146 17.26633,5.31945648 17.6568542,4.92893219 L19.0710678,3.51471863 C19.4615921,3.12419433 20.0947571,3.12419433 20.4852814,3.51471863 Z M4.92893219,3.51471863 L6.34314575,4.92893219 C6.73367004,5.31945648 6.73367004,5.95262146 6.34314575,6.34314575 C5.95262146,6.73367004 5.31945648,6.73367004 4.92893219,6.34314575 L3.51471863,4.92893219 C3.12419433,4.5384079 3.12419433,3.90524292 3.51471863,3.51471863 C3.90524292,3.12419433 4.5384079,3.12419433 4.92893219,3.51471863 Z M12,-2.27373675e-13 C12.5522847,-2.27373675e-13 13,0.44771525 13,1 L13,3 C13,3.55228475 12.5522847,4 12,4 C11.4477153,4 11,3.55228475 11,3 L11,1 C11,0.44771525 11.4477153,-2.27373675e-13 12,-2.27373675e-13 Z" transform="translate(0 1)"></path></svg>