<svg xmlns:xlink="http://www.w3.org/1999/xlink" xmlns="http://www.w3.org/2000/svg" viewBox="0 0 24 24" width="24" height="24"><path fill="#3D474D" fill-rule="evenodd" d="M23,19 C23.5522847,19 24,19.4477153 24,20 C24,20.5522847 23.5522847,21 23,21 L1,21 C0.44771525,21 6.76353751e-17,20.5522847 0,20 C-6.76353751e-17,19.4477153 0.44771525,19 1,19 L23,19 Z M18.4361148,3 C19.3998961,3 19.9133638,3.08748986 20.4484446,3.3399878 C20.948639,3.57602329 21.3471736,3.9276715 21.6146805,4.3690195 C21.9008448,4.84114959 22,5.29420929 22,6.14460459 L22,14.8553954 C22,15.7057907 21.9008448,16.1588504 21.6146805,16.6309805 C21.3471736,17.0723285 20.948639,17.4239767 20.4484446,17.6600122 C19.9133638,17.9125101 19.3998961,18 18.4361148,18 L5.5638852,18 C4.60010387,18 4.08663621,17.9125101 3.55155544,17.6600122 C3.05136104,17.4239767 2.6528264,17.0723285 2.38531951,16.6309805 C2.09915518,16.1588504 2,15.7057907 2,14.8553954 L2,6.14460459 C2,5.29420929 2.09915518,4.84114959 2.38531951,4.3690195 C2.6528264,3.9276715 3.05136104,3.57602329 3.55155544,3.3399878 C4.08663621,3.08748986 4.60010387,3 5.5638852,3 L18.4361148,3 Z M18.6055565,5.000837 L5.5638852,5 C4.90203328,5 4.70048072,5.03293366 4.49475316,5.12603115 C4.3430957,5.1946604 4.2300532,5.29031175 4.1489459,5.41863729 C4.03892159,5.59271446 4,5.76325893 4,6.32328748 L4,14.6767125 C4,15.2367411 4.03892159,15.4072855 4.1489459,15.5813627 C4.2300532,15.7096883 4.3430957,15.8053396 4.49475316,15.8739689 C4.70048072,15.9670663 4.90203328,16 5.5638852,16 L18.4361148,16 C19.0979667,16 19.2995193,15.9670663 19.5052468,15.8739689 C19.6569043,15.8053396 19.7699468,15.7096883 19.8510541,15.5813627 C19.9610784,15.4072855 20,15.2367411 20,14.6767125 L20,6.32328748 C20,5.76325893 19.9610784,5.59271446 19.8510541,5.41863729 C19.7699468,5.29031175 19.6569043,5.1946604 19.5052468,5.12603115 C19.3182218,5.04139707 19.1346471,5.00648516 18.6055565,5.000837 Z"></path></svg>