<svg xmlns:xlink="http://www.w3.org/1999/xlink" xmlns="http://www.w3.org/2000/svg" viewBox="0 0 20 20" width="20" height="20"><g fill="none" fill-rule="evenodd"><circle cx="10" cy="10" r="10" fill="#8A9499" opacity="0.205"></circle><path fill="#8A9499" d="M4.70346546,1.25692893 C4.97214544,0.98824895 5.40776175,0.98824895 5.67644173,1.25692893 C5.94512171,1.5256089 5.94512171,1.96122521 5.67644173,2.22990519 L2.12606116,5.78028576 C1.12597459,6.78037233 1.12597459,8.40183305 2.12606116,9.40191963 C3.12614774,10.4020062 4.74760846,10.4020062 5.74769504,9.40191963 L10.1334593,5.01615541 C10.7875186,4.36209607 10.7875186,3.30165636 10.1334593,2.64759702 C9.47939993,1.99353769 8.41896022,1.99353769 7.76490088,2.64759702 L5.04990398,5.36259392 C4.74187189,5.67062602 4.74187189,6.17004472 5.04990398,6.47807681 C5.35793608,6.78610891 5.85735478,6.78610891 6.16538687,6.47807681 L8.04500011,4.59846357 C8.31368009,4.3297836 8.7492964,4.3297836 9.01797638,4.59846357 C9.28665635,4.86714355 9.28665635,5.30275986 9.01797638,5.57143984 L7.13836314,7.45105308 C6.29297109,8.29644513 4.92231976,8.29644513 4.07692772,7.45105308 C3.23153567,6.60566103 3.23153567,5.23500971 4.07692772,4.38961766 L6.79192462,1.67462076 C7.98334391,0.483201467 9.91501624,0.483201467 11.1064355,1.67462076 C12.2978548,2.86604005 12.2978548,4.79771238 11.1064355,5.98913167 L6.72067131,10.3748959 C5.18322477,11.9123424 2.69053143,11.9123424 1.1530849,10.3748959 C-0.384361633,8.83744936 -0.384361633,6.34475602 1.1530849,4.80730949 L4.70346546,1.25692893 Z" transform="translate(4 4)"></path></g></svg>