<svg xmlns:xlink="http://www.w3.org/1999/xlink" xmlns="http://www.w3.org/2000/svg" viewBox="0 0 24 24" width="24" height="24"><g fill="none" fill-rule="evenodd" stroke-linecap="round" stroke-linejoin="round"><g transform="translate(3 3)" fill="none"><path stroke="#3D474D" stroke-width="2px" d="M2,0 L13.6715729,0 C14.2020059,-2.78900413e-15 14.7107137,0.210713681 15.0857864,0.585786438 L17.4142136,2.91421356 C17.7892863,3.28928632 18,3.79799415 18,4.32842712 L18,16 C18,17.1045695 17.1045695,18 16,18 L2,18 C0.8954305,18 1.3527075e-16,17.1045695 0,16 L0,2 C-1.3527075e-16,0.8954305 0.8954305,2.02906125e-16 2,0 Z" fill="none"></path><path stroke="#3D474D" stroke-width="2px" d="M5 9L13 9C13.5522847 9 14 9.44771525 14 10L14 18 14 18 4 18 4 10C4 9.44771525 4.44771525 9 5 9zM4 0L13 0 13 3C13 3.55228475 12.5522847 4 12 4L5 4C4.44771525 4 4 3.55228475 4 3L4 0 4 0z" fill="none"></path><rect width="1" height="3" x="11" stroke="#3D474D" stroke-width="2px" fill="none"></rect></g></g></svg>