<svg xmlns:xlink="http://www.w3.org/1999/xlink" xmlns="http://www.w3.org/2000/svg" viewBox="0 0 24 24" width="24" height="24"><path fill="#3D474D" fill-rule="evenodd" d="M10.6089755,4.78864465 L10.792777,4.96458234 L10.792777,4.96458234 L11.999698,6.17157288 L13.2069905,4.96434985 C15.4358374,2.73563142 19.049392,2.73568346 21.2781746,4.96446609 C23.5069384,7.19322993 23.5069384,10.8067701 21.2781746,13.0355339 L13.4142136,20.8994949 C12.633165,21.6805435 11.366835,21.6805435 10.5857864,20.8994949 L2.72182541,13.0355339 C0.493061573,10.8067701 0.493061573,7.19322993 2.72182541,4.96446609 C4.89028992,2.79600158 8.36965173,2.73739444 10.6089755,4.78864465 Z M4.13634581,6.37815417 L4.136,6.3785 C2.68842124,7.82635491 2.68853317,10.1735332 4.13625001,11.62125 L11.2928932,18.7778932 C11.6834175,19.1684175 12.3165825,19.1684175 12.7071068,18.7778932 L19.8635,11.6215 C21.2613898,10.2236102 21.3095929,7.9871325 20.0081093,6.53140903 L19.8633459,6.37834588 C18.4656204,4.98062041 16.2294057,4.93242298 14.7738534,6.23375359 L14.6208083,6.3785 L14.6208083,6.3785 L12.7066817,8.29285165 C12.3462812,8.65341904 11.7790566,8.68118672 11.3867478,8.37618526 L11.2925356,8.29286736 L11.2925356,8.29286736 L9.37815414,6.37834588 C7.93072168,4.93080754 5.58388415,4.93072171 4.13634581,6.37815417 Z"></path></svg>