<svg xmlns:xlink="http://www.w3.org/1999/xlink" xmlns="http://www.w3.org/2000/svg" viewBox="0 0 24 24" width="24" height="24"><g fill="none" fill-rule="evenodd"><g fill="#3D474D" transform="translate(-1)"><path d="M10.9127887,7.87910879 C10.6996656,7.39401019 10.5268952,6.57230114 10.5268952,6.04311722 L10.5268952,-1.14996071 C10.5268952,-1.42018216 10.7495514,-1.63923992 11.0068952,-1.63923992 L11.0068952,-1.63923992 C11.2719918,-1.63923992 11.4868952,-1.42047466 11.4868952,-1.16787495 L11.4868952,3.6493951 C11.4868952,3.90972279 11.7095514,4.12076008 11.9668952,4.12076008 L11.9668952,4.12076008 C12.2319918,4.12076008 12.4468952,3.90199482 12.4468952,3.6493951 L12.4468952,-1.16787495 C12.4468952,-1.42820263 12.6695514,-1.63923992 12.9268952,-1.63923992 L12.9268952,-1.63923992 C13.1919918,-1.63923992 13.4068952,-1.42047466 13.4068952,-1.16787495 L13.4068952,3.6493951 C13.4068952,3.90972279 13.6295514,4.12076008 13.8868952,4.12076008 L13.8868952,4.12076008 C14.1519918,4.12076008 14.3668952,3.90199482 14.3668952,3.6493951 L14.3668952,-1.16787495 C14.3668952,-1.42820263 14.5895514,-1.63923992 14.8468952,-1.63923992 L14.8468952,-1.63923992 C15.1119918,-1.63923992 15.3268952,-1.4256657 15.3268952,-1.14996071 L15.3268952,6.04311722 C15.3268952,6.57200877 15.1503229,7.4026637 14.9410016,7.87910879 L14.2727887,9.40005638 C14.0596656,9.88515498 13.8907831,10.7089969 13.8955755,11.2397547 L14.0354997,26.736356 C14.0402937,27.2672947 13.6180698,27.6977056 13.08418,27.6977056 L13.08418,27.6977056 C12.5539866,27.6977056 12.120292,27.2671137 12.1154997,26.736356 L11.9755755,11.2397547 C11.9707815,10.708816 11.7903229,9.87650148 11.5810016,9.40005638 L10.9127887,7.87910879 Z" transform="rotate(-45 12.927 13.03)" fill="#3D474D"></path><path d="M11.2815611,14.1106086 L12.6485611,15.4766086 L4.91788018,23.1932198 C4.57032379,23.5400999 4.02293588,23.5686698 3.64571614,23.2759498 L3.5551705,23.1960746 L3.47476297,23.105043 C3.18019004,22.72633 3.21011334,22.1826067 3.55768329,21.8350367 L3.55768329,21.8350367 L11.2815611,14.1106086 Z M24.0891114,1.3036086 L23.9834545,4.5189863 C23.9654573,5.06667994 23.6690672,5.86894499 23.3217316,6.30228077 L23.3217316,6.30228077 L19.0025908,11.69084 C18.6579133,12.1208596 17.9295147,12.4666667 17.381604,12.4558148 L17.381604,12.4558148 L15.7094026,12.4226952 L15.4795611,12.6506086 L14.1105611,11.2816086 L24.0891114,1.3036086 Z" fill="#3D474D"></path></g></g></svg>