<svg xmlns:xlink="http://www.w3.org/1999/xlink" xmlns="http://www.w3.org/2000/svg" width="24" height="24" viewBox="0 0 24 24"><path fill="#FFFFFF" fill-rule="evenodd" clip-rule="evenodd" d="M17 2a3 3 0 0 0-3 3v2.17c-.313-.11-.65-.17-1-.17h-2a3 3 0 0 0-3 3v2.17c-.313-.11-.65-.17-1-.17H5a3 3 0 0 0-3 3v4a3 3 0 0 0 3 3h2c.768 0 1.47-.289 2-.764.53.475 1.232.764 2 .764h2c.768 0 1.47-.289 2-.764.53.475 1.232.764 2 .764h2a3 3 0 0 0 3-3V5a3 3 0 0 0-3-3h-2Zm-1 17a1 1 0 0 0 1 1h2a1 1 0 0 0 1-1V5a1 1 0 0 0-1-1h-2a1 1 0 0 0-1 1v14Zm-2-9a1 1 0 0 0-1-1h-2a1 1 0 0 0-1 1v9a1 1 0 0 0 1 1h2a1 1 0 0 0 1-1v-9Zm-7 4a1 1 0 0 1 1 1v4a1 1 0 0 1-1 1H5a1 1 0 0 1-1-1v-4a1 1 0 0 1 1-1h2Z"></path></svg>