<svg xmlns:xlink="http://www.w3.org/1999/xlink" xmlns="http://www.w3.org/2000/svg" viewBox="0 0 24 24" width="24" height="24"><path fill="#3D474D" fill-rule="evenodd" d="M12,1 C18.0751322,1 23,5.92486775 23,12 C23,18.0751322 18.0751322,23 12,23 C5.92486775,23 1,18.0751322 1,12 C1,5.92486775 5.92486775,1 12,1 Z M12,3 C7.02943725,3 3,7.02943725 3,12 C3,16.9705627 7.02943725,21 12,21 C16.9705627,21 21,16.9705627 21,12 C21,7.02943725 16.9705627,3 12,3 Z M10,7 C10.5522847,7 11,7.44771525 11,8 L11,16 C11,16.5522847 10.5522847,17 10,17 L9,17 C8.44771525,17 8,16.5522847 8,16 L8,8 C8,7.44771525 8.44771525,7 9,7 L10,7 Z M15,7 C15.5522847,7 16,7.44771525 16,8 L16,16 C16,16.5522847 15.5522847,17 15,17 L14,17 C13.4477153,17 13,16.5522847 13,16 L13,8 C13,7.44771525 13.4477153,7 14,7 L15,7 Z"></path></svg>