<svg xmlns:xlink="http://www.w3.org/1999/xlink" xmlns="http://www.w3.org/2000/svg" viewBox="0 0 24 24" width="24" height="24"><g fill="none" fill-rule="evenodd"><g transform="translate(0 4.5)" fill="none"><circle cx="4.5" cy="10" r="3.75" stroke="#3D474D" stroke-width="1.5px" fill="none"></circle><circle cx="19.5" cy="10" r="3.75" stroke="#3D474D" stroke-width="1.5px" fill="none"></circle><path stroke="#3D474D" stroke-linecap="round" stroke-linejoin="round" stroke-width="1.2px" d="M4.5,10 C4.5,10 6.16666667,7.83333333 9.5,3.5 L9.5,3.5 L17,3.5 L12.6099303,9.20748268 C12.847163,9.39033055 13,9.67731678 13,10 C13,10.5522847 12.5522847,11 12,11 C11.4477153,11 11,10.5522847 11,10 L11,10 Z" fill="none"></path><path stroke="#3D474D" stroke-linecap="round" stroke-linejoin="round" stroke-width="1.2px" d="M12,11 C12.5522847,11 13,10.5522847 13,10 C13,9.44771525 12.5522847,9 12,9 C11.4477153,9 11,9.44771525 11,10 C11,10.5522847 11.4477153,11 12,11 Z" fill="none"></path><path stroke="#3D474D" stroke-linecap="round" stroke-linejoin="round" stroke-width="1.2px" d="M19.5,0 L18.2440307,0 C17.8024224,5.25211324e-16 17.4130996,0.289668153 17.2862044,0.712652114 C16.3574696,3.80843474 15.4287348,6.90421737 14.5,10" transform="matrix(-1 0 0 1 34 0)" fill="none"></path><line x1="10" x2="7" y1="1.5" y2="1.5" stroke="#3D474D" stroke-linecap="round" stroke-linejoin="round" stroke-width="1.5px" fill="none"></line><path fill="#3D474D" d="M4.5 11C5.05228475 11 5.5 10.5522847 5.5 10 5.5 9.44771525 5.05228475 9 4.5 9 3.94771525 9 3.5 9.44771525 3.5 10 3.5 10.5522847 3.94771525 11 4.5 11zM19.5 11C20.0522847 11 20.5 10.5522847 20.5 10 20.5 9.44771525 20.0522847 9 19.5 9 18.9477153 9 18.5 9.44771525 18.5 10 18.5 10.5522847 18.9477153 11 19.5 11z"></path><line x1="8.5" x2="11.5" y1="1.5" y2="9" stroke="#3D474D" stroke-linecap="round" stroke-linejoin="round" stroke-width="1.2px" fill="none"></line></g></g></svg>