<svg xmlns:xlink="http://www.w3.org/1999/xlink" xmlns="http://www.w3.org/2000/svg" viewBox="0 0 24 24" width="24" height="24"><g fill="none" fill-rule="evenodd" stroke-linecap="round"><g transform="translate(2 3)" fill="none"><path stroke="#3D474D" stroke-linejoin="round" stroke-width="2.5px" d="M11.5,17 L17,11.5 L17,11.5 L11.5,17 Z" transform="matrix(1 0 0 -1 0 28.5)" fill="none"></path><path stroke="#3D474D" stroke-linejoin="round" stroke-width="2.5px" d="M13,13 L17.75,13 C17.8880712,13 18,13.1119288 18,13.25 L18,18 L18,18" transform="matrix(1 0 0 -1 0 31)" fill="none"></path><path stroke="#3D474D" stroke-width="2.5px" d="M0,9 L6.10050506,9 C7.95702049,9 9.73749788,8.26250212 11.0502525,6.94974747 L17,1 L17,1" fill="none"></path><path stroke="#3D474D" stroke-linejoin="round" stroke-width="2.5px" d="M13,0 L17.75,0 C17.8880712,-2.53632657e-17 18,0.111928813 18,0.25 L18,5 L18,5" fill="none"></path></g></g></svg>