<svg xmlns:xlink="http://www.w3.org/1999/xlink" xmlns="http://www.w3.org/2000/svg" viewBox="0 0 24 24" width="24" height="24"><path fill="#3D474D" fill-rule="evenodd" d="M12,1 C12.5877068,1 13.0999958,1.39998311 13.2425356,1.9701425 L13.3346437,2.33857473 C13.456737,2.82694802 13.8342183,3.2106114 14.320544,3.34062133 C14.8069583,3.47065498 15.3256391,3.32682762 15.6756255,2.9648646 L15.9388613,2.6926208 C16.3473842,2.2701182 16.9910309,2.17986713 17.5,2.47372056 C18.0089691,2.76757398 18.2526327,3.37011398 18.0909962,3.93515642 L17.9859234,4.30246552 C17.8476159,4.78595527 17.9823935,5.30642255 18.3379855,5.66201453 C18.6935774,6.01760651 19.2140447,6.15238414 19.6975345,6.01407662 L20.0648436,5.90900383 C20.629886,5.74736727 21.232426,5.99103094 21.5262794,6.5 C21.8201329,7.00896906 21.7298818,7.65261584 21.3073792,8.06113867 L21.0351354,8.32437446 C20.6731724,8.67436085 20.529345,9.19304165 20.6593787,9.67945604 C20.7893886,10.1657817 21.173052,10.543263 21.6614253,10.6653563 L22.0298575,10.7574644 C22.6000169,10.9000042 23,11.4122932 23,12 C23,12.5877068 22.6000169,13.0999958 22.0298575,13.2425356 L21.6614253,13.3346437 C21.173052,13.456737 20.7893886,13.8342183 20.6593787,14.320544 C20.529345,14.8069583 20.6731724,15.3256391 21.0351354,15.6756255 L21.3073792,15.9388613 C21.7298818,16.3473842 21.8201329,16.9910309 21.5262794,17.5 C21.232426,18.0089691 20.629886,18.2526327 20.0648436,18.0909962 L19.6975345,17.9859234 C19.2140447,17.8476159 18.6935774,17.9823935 18.3379855,18.3379855 C17.9823935,18.6935774 17.8476159,19.2140447 17.9859234,19.6975345 L18.0909962,20.0648436 C18.2526327,20.629886 18.0089691,21.232426 17.5,21.5262794 C16.9910309,21.8201329 16.3473842,21.7298818 15.9388613,21.3073792 L15.6756255,21.0351354 C15.3256391,20.6731724 14.8069583,20.529345 14.320544,20.6593787 C13.8342183,20.7893886 13.456737,21.173052 13.3346437,21.6614253 L13.2425356,22.0298575 C13.0999958,22.6000169 12.5877068,23 12,23 C11.4122932,23 10.9000042,22.6000169 10.7574644,22.0298575 L10.6653563,21.6614253 C10.543263,21.173052 10.1657817,20.7893886 9.67945604,20.6593787 C9.19304165,20.529345 8.67436085,20.6731724 8.32437446,21.0351354 L8.06113867,21.3073792 C7.65261584,21.7298818 7.00896906,21.8201329 6.5,21.5262794 C5.99103094,21.232426 5.74736727,20.629886 5.90900383,20.0648436 L6.01407662,19.6975345 C6.15238414,19.2140447 6.01760651,18.6935774 5.66201453,18.3379855 C5.30642255,17.9823935 4.78595527,17.8476159 4.30246552,17.9859234 L3.93515642,18.0909962 C3.37011398,18.2526327 2.76757398,18.0089691 2.47372056,17.5 C2.17986713,16.9910309 2.2701182,16.3473842 2.6926208,15.9388613 L2.9648646,15.6756255 C3.32682762,15.3256391 3.47065498,14.8069583 3.34062133,14.320544 C3.2106114,13.8342183 2.82694802,13.456737 2.33857473,13.3346437 L1.9701425,13.2425356 C1.39998311,13.0999958 1,12.5877068 1,12 C1,11.4122932 1.39998311,10.9000042 1.9701425,10.7574644 L2.33857473,10.6653563 C2.82694802,10.543263 3.2106114,10.1657817 3.34062133,9.67945604 C3.47065498,9.19304165 3.32682762,8.67436085 2.9648646,8.32437446 L2.6926208,8.06113867 C2.2701182,7.65261584 2.17986713,7.00896906 2.47372056,6.5 C2.76757398,5.99103094 3.37011398,5.74736727 3.93515642,5.90900383 L4.30246552,6.01407662 C4.78595527,6.15238414 5.30642255,6.01760651 5.66201453,5.66201453 C6.01760651,5.30642255 6.15238414,4.78595527 6.01407662,4.30246552 L5.90900383,3.93515642 C5.74736727,3.37011398 5.99103094,2.76757398 6.5,2.47372056 C7.00896906,2.17986713 7.65261584,2.2701182 8.06113867,2.6926208 L8.32437446,2.9648646 C8.67436085,3.32682762 9.19304165,3.47065498 9.67945604,3.34062133 C10.1657817,3.2106114 10.543263,2.82694802 10.6653563,2.33857473 L10.7574644,1.9701425 C10.9000042,1.39998311 11.4122932,1 12,1 Z M12,6 C8.6862915,6 6,8.6862915 6,12 C6,15.3137085 8.6862915,18 12,18 C15.3137085,18 18,15.3137085 18,12 C18,8.6862915 15.3137085,6 12,6 Z"></path></svg>