<svg xmlns:xlink="http://www.w3.org/1999/xlink" xmlns="http://www.w3.org/2000/svg" viewBox="0 0 24 24" width="24" height="24"><path fill="#3D474D" fill-rule="evenodd" d="M12.0572172,23 L11.9141743,23 C5.2626788,23 1,18.893149 1,12.4770585 L1,11.7580138 C1,5.3557511 5.53446034,1 12.2145644,1 L12.3289987,1 C18.5513654,1 23,4.94091766 23,10.4720302 L23,11.1495915 C23,14.9384035 20.9544863,17.4965431 17.9362809,17.4965431 C16.1196359,17.4965431 14.6749025,16.6945317 14.3888166,15.5053426 L14.2457737,15.5053426 C13.916775,16.6668762 12.5578674,17.4965431 10.9843953,17.4965431 C8.53836151,17.4965431 7.00780234,15.7542426 7.00780234,12.947203 L7.00780234,11.4399749 C7.00780234,8.71590195 8.56697009,7.00125707 11.0416125,7.00125707 C12.5006502,7.00125707 13.6879064,7.74795726 14.0455137,8.8956631 L14.1456437,8.8956631 L14.1456437,8.57762414 C14.1456437,7.77561282 14.6749025,7.25015713 15.4616385,7.25015713 C16.2483745,7.25015713 16.7490247,7.77561282 16.7490247,8.57762414 L16.7490247,14.0534255 C16.7490247,14.9245757 17.3498049,15.5053426 18.2223667,15.5053426 C19.6527958,15.5053426 20.5825748,13.7215588 20.5825748,10.9836581 L20.5825748,10.5688246 C20.5825748,6.19924576 17.1495449,3.10182275 12.3289987,3.10182275 L12.2145644,3.10182275 C6.97919376,3.10182275 3.47464239,6.60025141 3.47464239,11.8409805 L3.47464239,12.3940918 C3.47464239,17.6071653 6.82184655,20.9258328 12.0429129,20.9258328 L12.1716515,20.9258328 C13.6449935,20.9258328 14.8751625,20.6354494 15.4330299,20.6354494 C16.0338101,20.6354494 16.4772432,21.0226273 16.4772432,21.5895663 C16.4772432,22.1011942 16.1768531,22.4607165 15.5760728,22.6404777 C14.7178153,22.87555 13.5019506,23 12.0572172,23 Z M9.81144343,12.5600251 C9.81144343,14.3576367 10.5123537,15.2702703 11.8712614,15.2702703 C13.2015605,15.2702703 13.9024707,14.3852923 13.9024707,12.7121307 L13.9024707,11.5782527 C13.9024707,10.0571967 13.1157347,9.11690761 11.8426528,9.11690761 C10.5552666,9.11690761 9.81144343,10.0848523 9.81144343,11.7856694 L9.81144343,12.5600251 Z"></path></svg>