<svg xmlns:xlink="http://www.w3.org/1999/xlink" xmlns="http://www.w3.org/2000/svg" viewBox="0 0 24 24" width="24" height="24"><path fill="#3D474D" fill-rule="evenodd" d="M12,1 C14.597077,1 17.0527617,1.90521714 19.0003263,3.51438888 L19.0002486,2.5 C19.0002486,1.94771525 19.4479639,1.5 20.0002486,1.5 C20.5130844,1.5 20.9357558,1.88604019 20.9935209,2.38337887 L21.0002486,2.5 L21.0002486,6 C21.0002486,6.51283584 20.6142084,6.93550716 20.1168697,6.99327227 L20.0002486,7 L16.5002486,7 C15.9479639,7 15.5002486,6.55228475 15.5002486,6 C15.5002486,5.48716416 15.8862888,5.06449284 16.3836275,5.00672773 L16.5002486,5 L17.6586826,5.00077359 C16.0761112,3.7187283 14.0959053,3 12,3 C7.02943725,3 3,7.02943725 3,12 C3,16.9705627 7.02943725,21 12,21 C15.5861804,21 18.7855361,18.8835803 20.222538,15.6653316 C20.4477144,15.161036 21.0390683,14.9347653 21.5433639,15.1599417 C22.0476595,15.3851181 22.2739303,15.976472 22.0487539,16.4807676 C20.2928471,20.4132221 16.3824588,23 12,23 C5.92486775,23 1,18.0751322 1,12 C1,5.92486775 5.92486775,1 12,1 Z M11,7 C11.5522847,7 12,7.44771525 12,8 L12,12.5857864 L14.7071068,15.2928932 C15.0976311,15.6834175 15.0976311,16.3165825 14.7071068,16.7071068 C14.3165825,17.0976311 13.6834175,17.0976311 13.2928932,16.7071068 L10,13.4142136 L10,8 C10,7.44771525 10.4477153,7 11,7 Z"></path></svg>