<svg xmlns:xlink="http://www.w3.org/1999/xlink" xmlns="http://www.w3.org/2000/svg" viewBox="0 0 16 16" width="16" height="16"><path fill="#3D474D" fill-rule="evenodd" d="M8,2 C8.55228475,2 9,2.45576096 9,3.00247329 L9,7 L12.9975267,7 C13.5116309,7 13.9353477,7.38272018 13.9932556,7.88266744 L14,8 C14,8.55228475 13.544239,9 12.9975267,9 L9,9 L9,12.9975267 C9,13.5116309 8.61727982,13.9353477 8.11733256,13.9932556 L8,14 C7.44771525,14 7,13.544239 7,12.9975267 L7,9 L3.00247329,9 C2.44882258,9 2,8.55613518 2,8 C2,7.44771525 2.45576096,7 3.00247329,7 L7,7 L7,3.00247329 C7,2.48836906 7.38272018,2.06465235 7.88266744,2.00674437 L8,2 Z"></path></svg>