<svg xmlns:xlink="http://www.w3.org/1999/xlink" xmlns="http://www.w3.org/2000/svg" viewBox="0 0 24 24" width="24" height="24"><g fill="none" fill-rule="evenodd" stroke-linecap="round" stroke-linejoin="round"><g transform="translate(1 1)" fill="none"><rect width="4" height="13" y="7" stroke="#3D474D" stroke-width="2px" rx="2" fill="none"></rect><path stroke="#3D474D" stroke-width="2px" d="M17.9746063,10 L17.9888205,10.4963632 C17.9982876,10.8269565 17.9256232,11.1547377 17.7773334,11.4503586 L17.2123066,12.5767593 C17.0726985,12.855073 17,13.1621386 17,13.4735048 L17,14.527864 C17,14.8383542 16.9277098,15.1445804 16.7888544,15.4222912 L16.2111456,16.5777088 C16.0722902,16.8554196 16,17.1616458 16,17.472136 L16,18.5 C16,19.3284271 15.3284271,20 14.5,20 L8.02701558,20 C7.46075899,20 6.90606461,19.8397386 6.42705995,19.5377435 L4.72119385,18.4622565 C4.2421892,18.1602614 3.68749482,18 3.12123823,18 L0,18 L0,18 L0,9.02483486 L3.17474367,9.00512378 C3.7032994,9.00184213 4.20906445,8.78946094 4.58150122,8.41439724 L6.40104753,6.58201704 C6.77137482,6.20907771 6.98001999,5.70535493 6.98186052,5.17978603 L7,-4.08784118e-13 L7,-4.08784118e-13 L7.96698139,-4.08784118e-13 C9.62383564,-7.2794453e-13 10.9669814,1.34314575 10.9669814,3 L10.9669814,9.02483486 L10.9669814,9.02483486 L16.9455659,9.00355996 C17.5020844,9.00157957 17.9586758,9.44370606 17.9746063,10 Z" transform="translate(4)" fill="none"></path></g></g></svg>