<svg xmlns:xlink="http://www.w3.org/1999/xlink" viewBox="0 0 24 24" width="24" height="24" fill="none" xmlns="http://www.w3.org/2000/svg"><path d="M10 13c.772 0 1.502.092 2.184.264a7.513 7.513 0 0 0-1.095 1.818A7.086 7.086 0 0 0 10 15c-2.469 0-4.306 1.183-5.278 2.976-.33.612-.513 1.234-.533 1.71v.17l.004.045.01.099h6.567c.197.716.498 1.388.885 2H4c-2.143 0-2.277-2.686-1.036-4.976C4.273 14.607 6.769 13 10 13Zm0-10.5a4.5 4.5 0 1 1 0 9 4.5 4.5 0 0 1 0-9Zm0 2a2.5 2.5 0 1 0 0 5 2.5 2.5 0 0 0 0-5Z" fill="#FFFFFF"></path><path fill-rule="evenodd" clip-rule="evenodd" d="M18 13c1.38 0 2.63.56 3.535 1.464A4.984 4.984 0 0 1 23 18c0 1.38-.56 2.63-1.465 3.535A4.984 4.984 0 0 1 18 23c-1.38 0-2.63-.56-3.536-1.465A4.984 4.984 0 0 1 13 18c0-1.38.56-2.63 1.464-3.536A4.984 4.984 0 0 1 18 13Zm0 1a1.44 1.44 0 0 0-1.03.425c-.251.25-.43.607-.47 1.05V16.5h-1l-.147.007c-.34.033-.646.18-.884.418-.245.245-.421.592-.469 1.075 0 .397.153.759.425 1.03.25.251.607.43 1.05.47H16.5v1l.007.147c.033.34.18.646.418.884.245.245.592.421 1.075.469a1.44 1.44 0 0 0 1.03-.425c.251-.25.43-.607.47-1.05V19.5h1l.147-.007c.34-.033.646-.18.884-.418.245-.245.421-.592.469-1.075a1.44 1.44 0 0 0-.425-1.03 1.677 1.677 0 0 0-1.05-.47H19.5v-1l-.007-.147a1.436 1.436 0 0 0-.418-.884c-.245-.245-.592-.421-1.075-.469Z" fill="#FFFFFF" stroke="#FFFFFF"></path></svg>