<svg xmlns:xlink="http://www.w3.org/1999/xlink" xmlns="http://www.w3.org/2000/svg" viewBox="0 0 24 24" width="24" height="24"><path fill="#3D474D" fill-rule="evenodd" d="M15,1 C17.7614237,1 20,3.23857625 20,6 L20.0011864,7.10025909 C22.2828356,7.56398776 24,9.58146126 24,12 L24,12 L24,16 C24,18.7614237 21.7614237,21 19,21 L19,21 L19,22.9193752 C19,23.1464466 18.9227192,23.3667572 18.7808688,23.5440702 C18.4358593,23.9753321 17.8065669,24.0452535 17.375305,23.700244 L17.375305,23.700244 L14,21 L13.7831104,20.9953805 C11.6733998,20.9053386 9.90222405,19.5079848 9.25904864,17.5927844 L6.62469505,19.700244 C6.19343311,20.0452535 5.56414074,19.9753321 5.21913119,19.5440702 C5.07728075,19.3667572 5,19.1464466 5,18.9193752 L5,17 C2.23857625,17 3.38176876e-16,14.7614237 0,12 L0,6 C-3.38176876e-16,3.23857625 2.23857625,1 5,1 L15,1 Z M19,9 L14,9 C12.3431458,9 11,10.3431458 11,12 L11,16 C11,17.5976809 12.24892,18.9036609 13.8237272,18.9949073 L14,19 L14.7928932,19 C14.9255015,19 15.0526784,19.0526784 15.1464466,19.1464466 L17,21 L17,19.5 C17,19.2238576 17.2238576,19 17.5,19 L19,19 C20.6568542,19 22,17.6568542 22,16 L22,12 C22,10.3431458 20.6568542,9 19,9 Z M15,3 L5,3 C3.34314575,3 2,4.34314575 2,6 L2,6 L2,12 C2,13.6568542 3.34314575,15 5,15 L5,15 L6.5,15 C6.77614237,15 7,15.2238576 7,15.5 L7,15.5 L7,17 L8.85355339,15.1464466 C8.89627001,15.10373 8.94591998,15.0695408 8.99985826,15.0449745 L9,12 C9,9.23857625 11.2385763,7 14,7 L14,7 L18,7 L18,6 C18,4.40231912 16.75108,3.09633912 15.1762728,3.00509269 L15,3 Z M17,15 C17.5522847,15 18,15.4477153 18,16 C18,16.5522847 17.5522847,17 17,17 L14,17 C13.4477153,17 13,16.5522847 13,16 C13,15.4477153 13.4477153,15 14,15 L17,15 Z M19,11 C19.5522847,11 20,11.4477153 20,12 C20,12.5522847 19.5522847,13 19,13 L14,13 C13.4477153,13 13,12.5522847 13,12 C13,11.4477153 13.4477153,11 14,11 L19,11 Z"></path></svg>