<svg xmlns:xlink="http://www.w3.org/1999/xlink" xmlns="http://www.w3.org/2000/svg" viewBox="0 0 24 24" width="24" height="24"><path fill="#FFFFFF" fill-rule="evenodd" d="M19,1 C20.6568542,1 22,2.34314575 22,4 L22,20 C22,21.6568542 20.6568542,23 19,23 L5,23 C3.34314575,23 2,21.6568542 2,20 L2,4 C2,2.34314575 3.34314575,1 5,1 L19,1 Z M19,3 L5,3 C4.44771525,3 4,3.44771525 4,4 L4,4 L4,20 C4,20.5522847 4.44771525,21 5,21 L5,21 L19,21 C19.5522847,21 20,20.5522847 20,20 L20,20 L20,4 C20,3.44771525 19.5522847,3 19,3 L19,3 Z M13,10 C13.5522847,10 14,10.4477153 14,11 C14,11.5522847 13.5522847,12 13,12 L8,12 C7.44771525,12 7,11.5522847 7,11 C7,10.4477153 7.44771525,10 8,10 L13,10 Z M16,6 C16.5522847,6 17,6.44771525 17,7 C17,7.55228475 16.5522847,8 16,8 L8,8 C7.44771525,8 7,7.55228475 7,7 C7,6.44771525 7.44771525,6 8,6 L16,6 Z"></path></svg>