<svg xmlns:xlink="http://www.w3.org/1999/xlink" xmlns="http://www.w3.org/2000/svg" viewBox="0 0 24 24" width="24" height="24"><path fill="#3D474D" fill-rule="evenodd" d="M12,1 C18.0751322,1 23,5.92486775 23,12 C23,18.0751322 18.0751322,23 12,23 C5.92486775,23 1,18.0751322 1,12 C1,5.92486775 5.92486775,1 12,1 Z M12,3 C7.02943725,3 3,7.02943725 3,12 C3,12.7075951 3.08165879,13.3961178 3.23606675,14.0566584 L5.79289322,11.5 C6.5739418,10.7189514 7.84027176,10.7189514 8.62132034,11.5 L8.62132034,11.5 L10.7698968,13.6485764 C10.7798978,13.6585775 10.7903188,13.6681497 10.8011314,13.6772673 C11.0122391,13.855279 11.3276827,13.8284494 11.5056944,13.6173418 L11.5056944,13.6173418 L14.555,10 L13,10 C12.4477153,10 12,9.55228475 12,9 C12,8.44771525 12.4477153,8 13,8 L17,8 C17.5522847,8 18,8.44771525 18,9 L18,13 C18,13.5522847 17.5522847,14 17,14 C16.4477153,14 16,13.5522847 16,13 L16,11.377 L12.6637645,15.3112922 C12.6461184,15.3320907 12.6280505,15.352524 12.6095724,15.3725793 L12.5529191,15.4315988 C11.7718705,16.2126474 10.5055406,16.2126474 9.72449201,15.4315988 L9.72449201,15.4315988 L7.56066017,13.267767 C7.36539803,13.0725048 7.04881554,13.0725048 6.85355339,13.267767 L6.85355339,13.267767 L3.99819891,16.1237161 C5.49380179,19.0199703 8.51567054,21 12,21 C16.9705627,21 21,16.9705627 21,12 C21,7.02943725 16.9705627,3 12,3 Z"></path></svg>