<svg xmlns:xlink="http://www.w3.org/1999/xlink" xmlns="http://www.w3.org/2000/svg" viewBox="0 0 24 24" width="24" height="24"><path fill="#3D474D" d="M12,1 C18.0751322,1 23,5.92486775 23,12 C23,18.0751322 18.0751322,23 12,23 C5.92486775,23 1,18.0751322 1,12 C1,5.92486775 5.92486775,1 12,1 Z M12,3 C7.02943725,3 3,7.02943725 3,12 C3,16.9705627 7.02943725,21 12,21 C16.9705627,21 21,16.9705627 21,12 C21,7.02943725 16.9705627,3 12,3 Z M12,14.9472966 C13.433662,14.9472966 14.8051795,15.3802857 15.9622117,16.1759244 C16.4172846,16.4888574 16.5325118,17.1114492 16.2195787,17.5665222 C15.9066457,18.0215951 15.2840539,18.1368222 14.828981,17.8238892 C14.0027758,17.2557453 13.025747,16.9472966 12,16.9472966 C10.974253,16.9472966 9.99722416,17.2557453 9.17101905,17.8238892 C8.71594613,18.1368222 8.09335429,18.0215951 7.78042125,17.5665222 C7.46748822,17.1114492 7.58271536,16.4888574 8.03778828,16.1759244 C9.19482053,15.3802857 10.566338,14.9472966 12,14.9472966 Z M8.5,7 C9.32842712,7 10,7.67157288 10,8.5 L10,10.5 C10,11.3284271 9.32842712,12 8.5,12 C7.67157288,12 7,11.3284271 7,10.5 L7,8.5 C7,7.67157288 7.67157288,7 8.5,7 Z M15.5,7 C16.3284271,7 17,7.67157288 17,8.5 L17,10.5 C17,11.3284271 16.3284271,12 15.5,12 C14.6715729,12 14,11.3284271 14,10.5 L14,8.5 C14,7.67157288 14.6715729,7 15.5,7 Z"></path></svg>