<svg xmlns:xlink="http://www.w3.org/1999/xlink" xmlns="http://www.w3.org/2000/svg" viewBox="0 0 24 24" width="24" height="24"><path fill="#3D474D" fill-rule="evenodd" d="M10.1174519,-3.10862447e-15 C11.0134774,-3.10862447e-15 11.8001588,0.59594907 12.0427537,1.45850885 L12.0427537,1.45850885 L12.5667813,3.31850069 C13.9972232,3.92804824 15,5.34691858 15,7 L15,7 L15,8 L15,8 C15.5522847,8 16,8.44771525 16,9 L16,10 C16,10.5522847 15.5522847,11 15,11 L15,15 C15,16.6530814 13.9972232,18.0719518 12.5667813,18.6814993 L12.0427537,20.5414912 C11.8001588,21.4040509 11.0134774,22 10.1174519,22 L4.88254813,22 C3.98652265,22 3.19984119,21.4040509 2.95724625,20.5414912 L2.4332187,18.6814993 C1.00277681,18.0719518 0,16.6530814 0,15 L0,15 L0,7 C0,5.34691858 1.00277681,3.92804824 2.4332187,3.31850069 L2.95724625,1.45850885 C3.19984119,0.59594907 3.98652265,-3.10862447e-15 4.88254813,-3.10862447e-15 L4.88254813,-3.10862447e-15 Z M10.398,19 L4.601,19 L4.88254813,20 L10.1174519,20 L10.398,19 Z M11,5 L4,5 C2.8954305,5 2,5.8954305 2,7 L2,7 L2,15 C2,16.1045695 2.8954305,17 4,17 L4,17 L11,17 C12.1045695,17 13,16.1045695 13,15 L13,15 L13,7 C13,5.8954305 12.1045695,5 11,5 L11,5 Z M10.1174519,2 L4.88254813,2 L4.601,3 L10.398,3 L10.1174519,2 Z" transform="translate(4 1)"></path></svg>