<svg xmlns:xlink="http://www.w3.org/1999/xlink" xmlns="http://www.w3.org/2000/svg" viewBox="0 0 24 24" width="24" height="24"><path fill="#3D474D" fill-rule="evenodd" d="M12,1 C18.0751322,1 23,5.92486775 23,12 C23,18.0751322 18.0751322,23 12,23 C5.92486775,23 1,18.0751322 1,12 C1,5.92486775 5.92486775,1 12,1 Z M12,3 C7.02943725,3 3,7.02943725 3,12 C3,16.9705627 7.02943725,21 12,21 C16.9705627,21 21,16.9705627 21,12 C21,7.02943725 16.9705627,3 12,3 Z M11.859375,16.5600586 C12.6108398,16.5600586 13.2045898,17.1352539 13.2045898,17.8681641 C13.2045898,18.6010742 12.6108398,19.1855469 11.859375,19.1855469 C11.1079102,19.1855469 10.5048828,18.6010742 10.5048828,17.8681641 C10.5048828,17.1352539 11.1079102,16.5600586 11.859375,16.5600586 Z M12.1933594,5.50146484 C14.7075195,5.50146484 16.4331055,6.93017578 16.4331055,9.02685547 C16.4331055,10.4462891 15.7280273,11.4204102 14.4663086,12.171875 C13.2509766,12.8769531 12.9541016,13.3222656 12.8798828,14.1665039 C12.7871094,14.7788086 12.4716797,15.1591797 11.8408203,15.1591797 C11.1357422,15.1591797 10.7460938,14.6582031 10.7460938,13.980957 L10.7460938,13.8046875 C10.7460938,12.6542969 11.3212891,11.8935547 12.480957,11.2070312 C13.6313477,10.5112305 14.0209961,10.0009766 14.0209961,9.11035156 C14.0209961,8.09912109 13.2324219,7.39404297 12.0913086,7.39404297 C11.0615234,7.39404297 10.375,7.90429688 10.078125,8.84130859 C9.87402344,9.41650391 9.53076172,9.6484375 9.02050781,9.6484375 C8.38037109,9.6484375 8,9.25878906 8,8.63720703 C8,8.23828125 8.08349609,7.89501953 8.25976562,7.54248047 C8.83496094,6.28076172 10.2822266,5.50146484 12.1933594,5.50146484 Z"></path></svg>