<svg xmlns:xlink="http://www.w3.org/1999/xlink" xmlns="http://www.w3.org/2000/svg" viewBox="0 0 16 16" width="16" height="16"><path fill="#3D474D" fill-rule="evenodd" d="M12.5920137,3.21980503 L12.691964,3.30803603 C13.103746,3.71981803 13.1035823,4.38761226 12.6854976,4.80569689 L9.491,8 L12.6854976,11.1943031 C13.0689006,11.5777061 13.1033062,12.1760879 12.780195,12.5920137 L12.691964,12.691964 C12.280182,13.103746 11.6123877,13.1035823 11.1943031,12.6854976 L8,9.491 L4.80569689,12.6854976 C4.39034363,13.1008509 3.7226889,13.1066168 3.30803603,12.691964 C2.89625403,12.280182 2.89641773,11.6123877 3.31450236,11.1943031 L6.509,8 L3.31450236,4.80569689 C2.93109936,4.42229388 2.89669383,3.8239121 3.21980503,3.40798631 L3.30803603,3.30803603 C3.71981803,2.89625403 4.38761226,2.89641773 4.80569689,3.31450236 L8,6.509 L11.1943031,3.31450236 C11.5777061,2.93109936 12.1760879,2.89669383 12.5920137,3.21980503 Z"></path></svg>