<svg xmlns:xlink="http://www.w3.org/1999/xlink" xmlns="http://www.w3.org/2000/svg" viewBox="0 0 24 24" width="24" height="24"><g fill="none" fill-rule="evenodd"><g transform="translate(.3 3)" fill="none"><path stroke="#3D474D" stroke-linecap="round" stroke-linejoin="round" stroke-width="2px" d="M0.7,9.03222725 L0.7,2.91226636 L0.7,2.91226636 C0.7,2.07346879 0.792825611,1.76930053 0.967132704,1.46264867 C1.1414398,1.15599682 1.39722837,0.915334653 1.7231543,0.751335448 C2.04908022,0.587336242 2.37236646,0.5 3.2638852,0.5 L9.7,0.5 C10.8045695,0.5 11.7,1.342478 11.7,2.38172728 C11.7,1.342478 12.5954305,0.5 13.7,0.5 L20.1361148,0.5 C21.0276335,0.5 21.3509198,0.587336242 21.6768457,0.751335448 C22.0027716,0.915334653 22.2585602,1.15599682 22.4328673,1.46264867 C22.6071744,1.76930053 22.7,2.07346879 22.7,2.91226636 L22.7,8.96777275 L22.7,9.03222725 L22.7,15.0877336 L22.7,15.0877336 C22.7,15.9265312 22.6071744,16.2306995 22.4328673,16.5373513 C22.2585602,16.8440032 22.0027716,17.0846653 21.6768457,17.2486646 C21.3509198,17.4126638 21.0276335,17.5 20.1361148,17.5 L13.7,17.5 C12.5954305,17.5 11.7,16.657522 11.7,15.6182727 C11.7,16.657522 10.8045695,17.5 9.7,17.5 L3.2638852,17.5 C2.37236646,17.5 2.04908022,17.4126638 1.7231543,17.2486646 C1.39722837,17.0846653 1.1414398,16.8440032 0.967132704,16.5373513 C0.792825611,16.2306995 0.7,15.9265312 0.7,15.0877336 L0.7,8.96777275" fill="none"></path><line x1="11.7" x2="11.7" y1="2" y2="16" stroke="#3D474D" stroke-width="2px" fill="none"></line><line x1="14.7" x2="19.7" y1="4.5" y2="4.5" stroke="#3D474D" stroke-linecap="round" stroke-linejoin="round" stroke-width="1.5px" fill="none"></line><line x1="3.7" x2="8.7" y1="4.5" y2="4.5" stroke="#3D474D" stroke-linecap="round" stroke-linejoin="round" stroke-width="1.5px" fill="none"></line><line x1="14.7" x2="19.7" y1="7.5" y2="7.5" stroke="#3D474D" stroke-linecap="round" stroke-linejoin="round" stroke-width="1.5px" fill="none"></line><line x1="3.7" x2="8.7" y1="7.5" y2="7.5" stroke="#3D474D" stroke-linecap="round" stroke-linejoin="round" stroke-width="1.5px" fill="none"></line><line x1="14.7" x2="19.7" y1="10.5" y2="10.5" stroke="#3D474D" stroke-linecap="round" stroke-linejoin="round" stroke-width="1.5px" fill="none"></line><line x1="3.7" x2="8.7" y1="10.5" y2="10.5" stroke="#3D474D" stroke-linecap="round" stroke-linejoin="round" stroke-width="1.5px" fill="none"></line><line x1="3.7" x2="8.7" y1="13.5" y2="13.5" stroke="#3D474D" stroke-linecap="round" stroke-linejoin="round" stroke-width="1.5px" fill="none"></line></g></g></svg>