<svg xmlns:xlink="http://www.w3.org/1999/xlink" xmlns="http://www.w3.org/2000/svg" viewBox="0 0 24 24" width="24" height="24"><g fill="none" fill-rule="evenodd" transform="rotate(30 6.616 17.227)"><path stroke="#3D474D" stroke-width="2px" d="M7.46923816,5 L8.53076184,5 C9.07088577,5 9.51340328,5.42890486 9.53027391,5.96876525 L9.96777391,19.9687652 C9.98502439,20.5207805 9.55151187,20.9822616 8.99949659,20.9995121 C8.98908818,20.9998373 8.97867533,21 8.96826184,21 L7.03173816,21 C6.47945341,21 6.03173816,20.5522847 6.03173816,20 C6.03173816,19.9895865 6.03190082,19.9791737 6.03222609,19.9687652 L6.46972609,5.96876525 C6.48659672,5.42890486 6.92911423,5 7.46923816,5 Z" fill="none"></path><rect width="3" height="6" x="12" fill="#3D474D" rx="1"></rect><rect width="1" height="2" x="11" y="2" fill="#3D474D"></rect><path fill="#3D474D" stroke="#3D474D" stroke-linejoin="bevel" d="M10.0131397,1.12083488 C10.5654245,1.12083488 11.0131397,1.56855013 11.0131397,2.12083488 L11.0131397,4.12083488 C11.0131397,4.67311963 10.5654245,5.12083488 10.0131397,5.12083488 L8.01313972,5.12083488 C7.91232584,5.12083488 7.81499629,5.10591667 7.7232382,5.07816741 C7.56221385,5.1172517 7.39713233,5.13878407 7.23205081,5.13878407 C6.10705081,5.13878407 3.6830127,3.88878407 0.218911087,5.88878407 C0.218911087,3.88878407 4.98205081,1.13878407 7.23205081,1.13878407 C7.41816192,1.13878407 7.58887865,1.14562601 7.74547438,1.15874396 C7.82912032,1.13366935 7.91963119,1.12083488 8.01313972,1.12083488 L10.0131397,1.12083488 Z"></path></g></svg>