<svg xmlns:xlink="http://www.w3.org/1999/xlink" xmlns="http://www.w3.org/2000/svg" viewBox="0 0 24 24" width="24" height="24"><path fill="#3D474D" fill-rule="evenodd" d="M21.0297962,13.3736754 C21.5632623,13.5166172 21.8798448,14.0649541 21.736903,14.5984202 C20.3074849,19.9330813 14.8241153,23.0989062 9.48945427,21.6694881 C6.91473639,20.9795945 4.77944022,19.3194953 3.46773,17.0973372 L3.06443924,18.6020436 C2.92149743,19.1355097 2.37316047,19.4520922 1.83969437,19.3091504 C1.30622826,19.1662086 0.989645773,18.6178716 1.13258758,18.0844055 L1.13258758,18.0844055 L2.16786376,14.2207022 C2.31080558,13.6872361 2.85914253,13.3706536 3.39260864,13.5135954 L3.39260864,13.5135954 L7.25631194,14.5488716 C7.78977804,14.6918134 8.10636053,15.2401504 7.96341872,15.7736165 C7.82047691,16.3070826 7.27213995,16.6236651 6.73867385,16.4807233 L6.73867385,16.4807233 L5.17987332,16.0633838 C6.22863784,17.8502798 7.94002627,19.1837677 10.0070924,19.7376364 C14.2748212,20.8811709 18.6615168,18.348511 19.8050513,14.0807822 C19.9479931,13.547316 20.4963301,13.2307336 21.0297962,13.3736754 Z M14.665838,2.35095012 C17.2452106,3.04209091 19.3791995,4.70646717 20.6878066,6.92297949 L21.0908522,5.41840088 C21.233794,4.88493478 21.782131,4.56835229 22.3155971,4.7112941 C22.8490632,4.85423591 23.1656457,5.40257287 23.0227038,5.93603897 L23.0227038,5.93603897 L21.9874277,9.79974227 C21.8444859,10.3332084 21.2961489,10.6497909 20.7626828,10.5068491 L20.7626828,10.5068491 L16.8989795,9.47157288 C16.3655134,9.32863106 16.0489309,8.78029411 16.1918727,8.246828 C16.3348145,7.7133619 16.8831515,7.39677941 17.4166176,7.53972122 L17.4166176,7.53972122 L18.975573,7.9567726 C17.9294001,6.17475153 16.2187339,4.83759968 14.1481999,4.28280177 C9.88047107,3.13926728 5.49377542,5.67192719 4.35024093,9.93965602 C4.20729912,10.4731221 3.65896216,10.7897046 3.12549606,10.6467628 C2.59202995,10.503821 2.27544747,9.95548403 2.41838928,9.42201793 C3.84780739,4.08735689 9.33117696,0.921532 14.665838,2.35095012 Z"></path></svg>