<svg xmlns:xlink="http://www.w3.org/1999/xlink" xmlns="http://www.w3.org/2000/svg" viewBox="0 0 24 24" width="24" height="24"><path fill="#3D474D" fill-rule="evenodd" d="M12,1 C16.418278,1 20,4.581722 20,9 L20,9 L20,21 L21,21 C21.5522847,21 22,21.4477153 22,22 C22,22.5522847 21.5522847,23 21,23 L3,23 C2.44771525,23 2,22.5522847 2,22 C2,21.4477153 2.44771525,21 3,21 L4,21 L4,9 C4,4.581722 7.581722,1 12,1 Z M12,3 C8.6862915,3 6,5.6862915 6,9 L6,9 L6,19 L18,19 L18,9 C18,5.76160306 15.4344251,3.12242824 12.2249383,3.00413847 L12.2249383,3.00413847 Z M12.1312105,7.5742182 C12.2145589,7.60888476 12.2808012,7.67512712 12.3154678,7.75847552 L13.0660384,9.56306367 C13.1152409,9.68136073 13.2264909,9.76218858 13.3542025,9.77242717 L15.3024069,9.92861382 C15.4905007,9.94369322 15.6307566,10.1083976 15.6156772,10.2964914 C15.6084634,10.386473 15.5659332,10.4699433 15.4973767,10.5286692 L14.0130505,11.8001527 C13.9157477,11.8835029 13.873254,12.0142851 13.9029816,12.1389099 L14.3564675,14.0400267 C14.4002503,14.2235744 14.2869486,14.4078621 14.1034009,14.4516449 C14.0155942,14.4725901 13.9230667,14.4579351 13.8460299,14.4108814 L12.1780952,13.3921132 C12.0687563,13.3253294 11.9312437,13.3253294 11.8219048,13.3921132 L10.1539701,14.4108814 C9.99293557,14.5092406 9.78265535,14.4584323 9.68429607,14.2973978 C9.63724229,14.220361 9.62258737,14.1278335 9.6435325,14.0400267 L10.0970184,12.1389099 C10.126746,12.0142851 10.0842523,11.8835029 9.98694952,11.8001527 L8.50262328,10.5286692 C8.35931564,10.405911 8.34265707,10.1902219 8.46541532,10.0469143 C8.52414125,9.97835782 8.6076115,9.93582761 8.69759309,9.92861382 L10.6457975,9.77242717 C10.7735091,9.76218858 10.8847591,9.68136073 10.9339616,9.56306367 L11.6845322,7.75847552 C11.7569978,7.58424748 11.9569824,7.50175266 12.1312105,7.5742182 Z"></path></svg>