<svg xmlns:xlink="http://www.w3.org/1999/xlink" xmlns="http://www.w3.org/2000/svg" viewBox="0 0 24 24" width="24" height="24"><path fill="#FFFFFF" fill-rule="evenodd" clip-rule="evenodd" d="M14.01 15c.507 0 .926.383.983.883L15 16a1 1 0 0 1-.99 1H9.99A.993.993 0 0 1 9 16a1 1 0 0 1 .99-1h4.02Zm1.995-4c.51 0 .93.383.988.883L17 12c0 .552-.456 1-.995 1h-8.01A.995.995 0 0 1 7 12c0-.552.456-1 .995-1h8.01Zm1.988-4c.517 0 .942.383 1 .883L19 8c0 .552-.45 1-1.007 1H6.007A1.001 1.001 0 0 1 5 8c0-.552.45-1 1.007-1h11.986Z" fill-opacity="0.5"></path></svg>