<svg xmlns:xlink="http://www.w3.org/1999/xlink" xmlns="http://www.w3.org/2000/svg" viewBox="0 0 24 24" width="24" height="24"><path fill="#3D474D" fill-rule="evenodd" d="M17.4361148,-3.32866029e-16 C18.3998961,-3.91880616e-16 18.9133638,0.0991551791 19.4484446,0.385319506 C19.948639,0.652826398 20.3471736,1.05136104 20.6146805,1.55155544 C20.9008448,2.08663621 21,2.60010387 21,3.5638852 L21,3.5638852 L21,20.4361148 C21,21.3998961 20.9008448,21.9133638 20.6146805,22.4484446 C20.3471736,22.948639 19.948639,23.3471736 19.4484446,23.6146805 C18.9133638,23.9008448 18.3998961,24 17.4361148,24 L17.4361148,24 L6.5638852,24 C5.60010387,24 5.08663621,23.9008448 4.55155544,23.6146805 C4.05136104,23.3471736 3.6528264,22.948639 3.38531951,22.4484446 C3.09915518,21.9133638 3,21.3998961 3,20.4361148 L3,20.4361148 L3,3.5638852 C3,2.60010387 3.09915518,2.08663621 3.38531951,1.55155544 C3.6528264,1.05136104 4.05136104,0.652826398 4.55155544,0.385319506 C5.08663621,0.0991551791 5.60010387,3.91880616e-16 6.5638852,3.32866029e-16 L6.5638852,3.32866029e-16 Z M17.6055565,2.00098918 L6.39444355,2.00098918 L6.11565933,2.00933779 C6.07517503,2.01148539 6.03744797,2.01402719 6.00212917,2.01698737 L6.00212917,2.01698737 L5.81632374,2.03996242 C5.68091561,2.06361445 5.58826569,2.09893485 5.49475316,2.1489459 C5.3430957,2.2300532 5.2300532,2.3430957 5.1489459,2.49475316 C5.09893485,2.58826569 5.06361445,2.68091561 5.03996242,2.81632374 L5.03996242,2.81632374 L5.01698737,3.00212917 C5.01402719,3.03744797 5.01148539,3.07517503 5.00933779,3.11565933 L5.00933779,3.11565933 L5.00098918,3.39444355 L5.00098918,20.6055565 L5.00933779,20.8843407 C5.01148539,20.924825 5.01402719,20.962552 5.01698737,20.9978708 L5.01698737,20.9978708 L5.03996242,21.1836763 C5.06361445,21.3190844 5.09893485,21.4117343 5.1489459,21.5052468 C5.2300532,21.6569043 5.3430957,21.7699468 5.49475316,21.8510541 C5.58826569,21.9010651 5.68091561,21.9363856 5.81632374,21.9600376 L5.81632374,21.9600376 L6.00212917,21.9830126 C6.03744797,21.9859728 6.07517503,21.9885146 6.11565933,21.9906622 L6.11565933,21.9906622 L6.39444355,21.9990108 L9,21.999 L9.00672773,21.8833789 C9.06004937,21.424297 9.42429701,21.0600494 9.88337887,21.0067277 L10,21 L14,21 C14.5519476,21 14.9994533,21.4471688 14.9999995,21.9989886 L17.6055565,21.9990108 L17.9109256,21.9891718 C18.2164063,21.9710963 18.3597829,21.9288491 18.5052468,21.8510541 C18.6569043,21.7699468 18.7699468,21.6569043 18.8510541,21.5052468 C18.9010651,21.4117343 18.9363856,21.3190844 18.9600376,21.1836763 L18.9600376,21.1836763 L18.9830126,20.9978708 C18.9859728,20.962552 18.9885146,20.924825 18.9906622,20.8843407 L18.9906622,20.8843407 L18.9990108,20.6055565 L18.9990108,3.39444355 L18.9891718,3.08907445 C18.9710963,2.78359374 18.9288491,2.64021709 18.8510541,2.49475316 C18.7699468,2.3430957 18.6569043,2.2300532 18.5052468,2.1489459 C18.4117343,2.09893485 18.3190844,2.06361445 18.1836763,2.03996242 L18.1836763,2.03996242 L17.9978708,2.01698737 C17.962552,2.01402719 17.924825,2.01148539 17.8843407,2.00933779 L17.8843407,2.00933779 L17.6055565,2.00098918 Z" transform="rotate(90 12 12)"></path></svg>