<svg xmlns:xlink="http://www.w3.org/1999/xlink" xmlns="http://www.w3.org/2000/svg" viewBox="0 0 24 24" width="24" height="24"><path fill="#3D474D" fill-rule="evenodd" d="M11,2 L11,3 L13,3 L13,2 L14,2 L14,3 L15,3 C17.6887547,3 19.8818181,5.12230671 19.9953805,7.78311038 L20,8 L20,14 C20,15.6352792 19.2149639,17.0872034 18.0011995,17.9994649 L17.999998,17.9979774 L18,19 C18,19.0894906 17.9882448,19.1762356 17.9661943,19.2587751 L21.3535534,22.6464466 L21.4114088,22.7156945 C21.5464049,22.9105626 21.5271197,23.179987 21.3535534,23.3535534 C21.1582912,23.5488155 20.8417088,23.5488155 20.6464466,23.3535534 L20.6464466,23.3535534 L20.2340787,22.9419354 C20.1895786,22.9655547 20.1410858,22.9826494 20.0898756,22.9919443 L20,23 L4,23 C3.91542648,23 3.83575727,22.9790022 3.7659213,22.9419354 L3.35355339,23.3535534 C3.15829124,23.5488155 2.84170876,23.5488155 2.64644661,23.3535534 C2.47288026,23.179987 2.45359511,22.9105626 2.58859116,22.7156945 L2.64644661,22.6464466 L6.03380574,19.2587751 C6.01175521,19.1762356 6,19.0894906 6,19 L5.99980567,18.0002202 C4.7854695,17.0880049 4,15.6357306 4,14 L4,14 L4,8 C4,5.23857625 6.23857625,3 9,3 L9,3 L10,3 L10,2 L11,2 Z M18.293,21 L5.706,21 L4.706,22 L19.293,22 L18.293,21 Z M8,19 C8,19.5522847 7.55228475,20 7,20 L17,20 L17,20 C16.4477153,20 16,19.5522847 16,19 L8,19 Z M15,5 L9,5 C7.34314575,5 6,6.34314575 6,8 L6,8 L6,14 C6,15.6568542 7.34314575,17 9,17 L9,17 L15,17 C16.6568542,17 18,15.6568542 18,14 L18,14 L18,8 C18,6.34314575 16.6568542,5 15,5 L15,5 Z M9,13 C9.55228475,13 10,13.4477153 10,14 C10,14.5522847 9.55228475,15 9,15 C8.44771525,15 8,14.5522847 8,14 C8,13.4477153 8.44771525,13 9,13 Z M15,13 C15.5522847,13 16,13.4477153 16,14 C16,14.5522847 15.5522847,15 15,15 C14.4477153,15 14,14.5522847 14,14 C14,13.4477153 14.4477153,13 15,13 Z M16,8 C16.5522847,8 17,8.44771525 17,9 L17,10 C17,10.5522847 16.5522847,11 16,11 L8,11 C7.44771525,11 7,10.5522847 7,10 L7,9 C7,8.44771525 7.44771525,8 8,8 L16,8 Z M13.5,6 C13.7761424,6 14,6.22385763 14,6.5 C14,6.77614237 13.7761424,7 13.5,7 L10.5,7 C10.2238576,7 10,6.77614237 10,6.5 C10,6.22385763 10.2238576,6 10.5,6 L13.5,6 Z"></path></svg>