<svg xmlns:xlink="http://www.w3.org/1999/xlink" xmlns="http://www.w3.org/2000/svg" viewBox="0 0 24 24" width="24" height="24"><path fill="#3D474D" fill-rule="evenodd" d="M10,2 C11.5976809,2 12.9036609,3.24891996 12.9949073,4.82372721 L13,5 L20,5 C21.6568542,5 23,6.34314575 23,8 L23,19 C23,20.6568542 21.6568542,22 20,22 L4,22 C2.34314575,22 1,20.6568542 1,19 L1,5 C1,3.34314575 2.34314575,2 4,2 L10,2 Z M20.0066023,7 L3.99339768,7 C3.44494629,7 3,7.44704472 3,7.99850233 L3,7.99850233 L3,19.0014977 C3,19.5525106 3.44475929,20 3.99339768,20 L3.99339768,20 L20.0066023,20 C20.5550537,20 21,19.5529553 21,19.0014977 L21,19.0014977 L21,7.99850233 C21,7.44748943 20.5552407,7 20.0066023,7 L20.0066023,7 Z M10.4995642,4 L3.50043583,4 C3.23079681,4 3,4.22385763 3,4.5 L3,4.5 L3,5 L11,5 L11,4.5 C11,4.23193359 10.7759472,4 10.4995642,4 L10.4995642,4 Z"></path></svg>