<svg xmlns:xlink="http://www.w3.org/1999/xlink" xmlns="http://www.w3.org/2000/svg" viewBox="0 0 24 24" width="24" height="24"><path fill="#3D474D" fill-rule="evenodd" d="M10,2 C14.418278,2 18,5.581722 18,10 C18,11.6982633 17.4708292,13.2729322 16.5683799,14.5681143 L21.4393398,19.4393398 C22.0251263,20.0251263 22.0251263,20.9748737 21.4393398,21.5606602 C20.8535534,22.1464466 19.9038059,22.1464466 19.3180195,21.5606602 L14.4243207,16.6662718 C13.1571271,17.5089763 11.6359059,18 10,18 C5.581722,18 2,14.418278 2,10 C2,5.581722 5.581722,2 10,2 Z M10,16 C13.3137085,16 16,13.3137085 16,10 C16,6.6862915 13.3137085,4 10,4 C6.6862915,4 4,6.6862915 4,10 C4,13.3137085 6.6862915,16 10,16 Z"></path></svg>