<svg xmlns:xlink="http://www.w3.org/1999/xlink" xmlns="http://www.w3.org/2000/svg" viewBox="0 0 24 24" width="24" height="24"><path fill="#3D474D" fill-rule="evenodd" d="M12.3012091,2.20157749 L12.4368352,2.22904126 C12.4830793,2.24007509 12.5315902,2.25347907 12.5860615,2.2707259 L12.7710501,2.33546768 L13.1640669,2.49514184 L23.4159917,6.85585074 C23.7717456,7.00717245 23.9374705,7.41823838 23.7861488,7.7739922 C23.7152786,7.94060648 23.582606,8.07327902 23.4159917,8.14414926 L20.6176033,9.33406532 C20.8635167,9.77313588 21,10.2755723 21,10.7997462 L21.0010775,18.2681881 C21.5982846,18.6141507 22,19.2601625 22,20 C22,21.1045695 21.1045695,22 20,22 C18.8954305,22 18,21.1045695 18,20 C18,19.2598548 18.4020497,18.6136132 18.9996679,18.2677566 L18.9988201,15.0123664 L18.9943653,15.1395097 C18.8372093,17.0919416 15.4186047,19 12,19 C8.5,19 4,17 4,15 L4.00090575,14.8741827 L4.01449201,14.4315169 L4.05796804,13.6891296 L4.1304281,12.7728382 L4.23187218,11.6826427 L4.326976,10.7508714 L4.43282007,9.78036638 L0.584008254,8.14414926 C0.228254438,7.99282755 0.062529475,7.58176162 0.213851188,7.2260078 C0.284721428,7.05939352 0.417393973,6.92672098 0.584008254,6.85585074 L10.9860369,2.43210288 L11.2289499,2.33546768 L11.4139385,2.2707259 C11.4411741,2.26210248 11.4669197,2.25443978 11.4916368,2.2475537 L11.6312928,2.21408403 C11.6537432,2.2095681 11.6760887,2.20546061 11.6987909,2.20157749 C11.9031109,2.16662935 12.0968891,2.16662935 12.3012091,2.20157749 Z M6.302,11.088 L6.16723138,12.4531351 L6.07949109,13.4696675 L6.03484306,14.0996305 L6.00834632,14.6148745 L6.001,14.862 L6.06084476,14.9377698 L6.16029045,15.0428974 C6.45421759,15.3320061 6.93883017,15.6521705 7.55296214,15.9469539 C8.89626725,16.5917403 10.6022094,17 12,17 C13.3387338,17 14.7546163,16.6224313 15.8202221,16.0135137 C16.2519265,15.7668255 16.5587274,15.5227179 16.7510594,15.3338154 L16.8740085,15.2033118 C16.958852,15.1045549 17,15.0325018 17,15 L16.9960749,14.7504672 L16.9842935,14.4488065 L16.9371255,13.6917748 L16.881059,12.9921363 L16.8072237,12.1819774 L16.739,11.496 L14.9021737,12.2768382 C14.0092236,12.6503411 13.5256001,12.8065259 12.9397721,12.9067284 C12.3079628,13.0147957 11.6923755,13.0147957 11.0605662,12.9067284 C10.7480029,12.8532663 10.4644765,12.7840483 10.1294469,12.673052 L9.77426663,12.5471657 L9.36685308,12.3876444 C9.29360373,12.3579333 9.21743225,12.3265798 9.13796577,12.2934634 L6.302,11.088 Z M18.7437491,10.1312598 L18.6118201,10.1863664 L18.7070814,11.0776098 L18.8004404,12.0157588 L18.8571201,12.6307418 L18.9244271,13.4469421 L18.9704794,14.1356131 L18.9893726,14.5238776 L18.9988201,14.9373664 L19,10.7997462 C19,10.5480567 18.9055983,10.3114025 18.7437491,10.1312598 Z M12,4.182 L11.9525672,4.19825703 L11.6187679,4.33556831 L4.179,7.5 L10.6245911,10.2411461 L11.0645381,10.4207664 L11.3102678,10.5121362 L11.5009815,10.5727039 C11.5294747,10.5807313 11.5566446,10.58785 11.5829759,10.5942474 L11.734777,10.6254751 C11.9202407,10.6571979 12.0797593,10.6571979 12.265223,10.6254751 L12.4170241,10.5942474 C12.4433554,10.58785 12.4705253,10.5807313 12.4990185,10.5727039 L12.6897322,10.5121362 L12.9354619,10.4207664 L13.3754089,10.2411461 L16.3148201,8.99036638 L14,8 C13.4953158,7.77569592 13.2680228,7.18473417 13.4923269,6.68004999 C13.716631,6.1753658 14.3075927,5.94807282 14.8122769,6.1723769 L18.8638201,7.90636638 L19.82,7.5 L12.1381167,4.23385609 L12,4.182 Z"></path></svg>