<svg xmlns:xlink="http://www.w3.org/1999/xlink" xmlns="http://www.w3.org/2000/svg" viewBox="0 0 24 24" width="24" height="24"><path fill="#3D474D" fill-rule="evenodd" d="M4.68404856,12 C5.27804679,12 5.65091978,12.0928256 5.9768457,12.2671327 C6.30277163,12.4414398 6.5585602,12.6972284 6.7328673,13.0231543 C6.90717439,13.3490802 7,13.7219532 7,14.3159514 L7,18.6840486 C7,19.2780468 6.90717439,19.6509198 6.7328673,19.9768457 C6.5585602,20.3027716 6.30277163,20.5585602 5.9768457,20.7328673 C5.65091978,20.9071744 5.27804679,21 4.68404856,21 L4.31595144,21 C3.72195321,21 3.34908022,20.9071744 3.0231543,20.7328673 C2.69722837,20.5585602 2.4414398,20.3027716 2.2671327,19.9768457 C2.09282561,19.6509198 2,19.2780468 2,18.6840486 L2,14.3159514 C2,13.7219532 2.09282561,13.3490802 2.2671327,13.0231543 C2.4414398,12.6972284 2.69722837,12.4414398 3.0231543,12.2671327 C3.34908022,12.0928256 3.72195321,12 4.31595144,12 L4.68404856,12 Z M11.6840486,8 C12.2780468,8 12.6509198,8.09282561 12.9768457,8.2671327 C13.3027716,8.4414398 13.5585602,8.69722837 13.7328673,9.0231543 C13.9071744,9.34908022 14,9.72195321 14,10.3159514 L14,18.6840486 C14,19.2780468 13.9071744,19.6509198 13.7328673,19.9768457 C13.5585602,20.3027716 13.3027716,20.5585602 12.9768457,20.7328673 C12.6509198,20.9071744 12.2780468,21 11.6840486,21 L11.3159514,21 C10.7219532,21 10.3490802,20.9071744 10.0231543,20.7328673 C9.69722837,20.5585602 9.4414398,20.3027716 9.2671327,19.9768457 C9.09282561,19.6509198 9,19.2780468 9,18.6840486 L9,10.3159514 C9,9.72195321 9.09282561,9.34908022 9.2671327,9.0231543 C9.4414398,8.69722837 9.69722837,8.4414398 10.0231543,8.2671327 C10.3490802,8.09282561 10.7219532,8 11.3159514,8 L11.6840486,8 Z M18.6840486,2 C19.2780468,2 19.6509198,2.09282561 19.9768457,2.2671327 C20.3027716,2.4414398 20.5585602,2.69722837 20.7328673,3.0231543 C20.9071744,3.34908022 21,3.72195321 21,4.31595144 L21,18.6840486 C21,19.2780468 20.9071744,19.6509198 20.7328673,19.9768457 C20.5585602,20.3027716 20.3027716,20.5585602 19.9768457,20.7328673 C19.6509198,20.9071744 19.2780468,21 18.6840486,21 L18.3159514,21 C17.7219532,21 17.3490802,20.9071744 17.0231543,20.7328673 C16.6972284,20.5585602 16.4414398,20.3027716 16.2671327,19.9768457 C16.0928256,19.6509198 16,19.2780468 16,18.6840486 L16,4.31595144 C16,3.72195321 16.0928256,3.34908022 16.2671327,3.0231543 C16.4414398,2.69722837 16.6972284,2.4414398 17.0231543,2.2671327 C17.3490802,2.09282561 17.7219532,2 18.3159514,2 L18.6840486,2 Z"></path></svg>