<svg xmlns:xlink="http://www.w3.org/1999/xlink" xmlns="http://www.w3.org/2000/svg" viewBox="0 0 24 24" width="24" height="24"><path fill="#3D474D" d="M5.8204766,0.598094385 L16.1904011,5.13083616 C17.5992758,4.50708829 18.8630543,4.17190699 19.9824433,4.07910124 C21.025695,3.99260784 21.767851,4.12124666 22.202129,4.31053869 C22.6045666,4.4859522 22.845538,4.90332686 22.7962317,5.33955481 C22.7430244,5.81029662 22.4833509,6.51734197 21.8868196,7.37757774 C21.2467569,8.30058852 20.3245994,9.22745648 19.0799921,10.1356985 L17.8204766,21.3827041 L15.4009453,22.7796211 C14.9247382,23.0545594 14.4419532,22.8401386 14.3208477,22.2927108 L12.4032816,13.6160988 C11.3598188,14.035149 10.2666381,14.4386454 9.14231271,14.8246197 C8.65548451,14.991745 8.1757666,15.1511586 7.70663286,15.3024486 L7.30940108,18.7910223 L6.73894079,19.1203777 C6.25684294,19.398717 5.79158595,19.1878056 5.69889232,18.6442038 L5.25554521,16.0480944 L5.08394316,16.0981131 L4.74129137,16.1930541 C3.75271923,16.4584037 3.05116716,15.2432798 3.77525268,14.519826 L3.77525268,14.519826 L4.15654521,14.1450944 L2.13129523,12.4649444 C1.70864838,12.1143445 1.76043415,11.602415 2.23894079,11.3261491 L2.80940108,10.9967937 L6.03016333,12.3962059 C6.39545496,12.0658476 6.77305072,11.7303962 7.1608623,11.3926469 C8.05699878,10.6121921 8.95273784,9.8674473 9.83709876,9.1734986 L3.28257323,3.17385857 C2.87174124,2.79773755 2.92804677,2.26803952 3.40094531,1.99501143 L5.8204766,0.598094385 Z M16.9119919,11.5122504 L16.6341633,11.6753175 C16.1597202,11.9492374 15.6587578,12.2294286 15.1323859,12.5156905 L14.3040041,12.9590831 L15.9009995,20.1811603 L15.9443008,20.1561603 L16.9119919,11.5122504 Z M20.3606079,6.05831873 L20.1476913,6.07226282 C19.1025071,6.15891644 17.8484907,6.52439626 16.3795349,7.24996347 L16.0479992,7.42439066 L15.3634507,7.79777466 C15.2593238,7.85568591 15.1537402,7.91490138 15.0466865,7.97545043 C14.1968487,8.47627853 13.2851074,9.08786833 12.3251997,9.79364692 C11.0724324,10.7147525 9.77525059,11.7679061 8.47437489,12.9008527 L8.47437489,12.9008527 L8.40302916,12.9631848 L9.32544651,12.6417315 C10.4262542,12.249207 11.4884121,11.8401637 12.4907644,11.4175479 L12.4907644,11.4175479 L13.109256,11.1516724 C14.283447,10.6368602 15.3352976,10.1158169 16.2403811,9.59326674 L15.9585452,9.75209439 L16.3570639,9.51828237 C16.4727274,9.44900653 16.5860119,9.380511 16.6969643,9.31280012 L17.3105517,8.93151106 C18.6888902,8.01567265 19.6414828,7.10576793 20.243315,6.23788793 L20.243315,6.23788793 L20.3606079,6.05831873 Z M5.94516683,2.83515224 L5.90099953,2.86065224 L11.3556381,7.85436339 L11.6526989,7.66965121 C12.1708505,7.34753705 12.6725201,7.04322856 13.1563417,6.75799431 L13.9134919,6.31869609 L5.94516683,2.83515224 Z"></path></svg>