<svg xmlns:xlink="http://www.w3.org/1999/xlink" xmlns="http://www.w3.org/2000/svg" viewBox="0 0 24 24" width="24" height="24"><path fill="#3D474D" d="M15.5012144,1 C17.1573979,1 18.5,2.34237885 18.5,4.00335124 L18.5,11.9966488 C18.5,12.3562627 18.4369082,12.7011146 18.3212007,13.0207022 C18.7605171,13.0783138 19.1636708,13.2476514 19.5006682,13.499987 L19.5,11 L19.5054857,10.8507377 C19.5818349,9.81587779 20.4456382,9 21.5,9 C22.6045695,9 23.5,9.8954305 23.5,11 C23.5,12.1045695 22.6045695,13 21.5,13 L21.5,13 L21.5,15.0020869 C21.5,16.5962361 20.2498695,17.903555 18.6760479,17.9949016 L18.4998938,18 L13,18 L13,19.85 L16.9061385,21.5861885 L17.0099758,21.6397007 C17.440989,21.8944754 17.6220939,22.4375032 17.4138115,22.9061385 C17.1895075,23.4108226 16.5985457,23.6381156 16.0938615,23.4138115 L16.0938615,23.4138115 L13,22.038 L13,22.5 C13,23.0522847 12.5522847,23.5 12,23.5 C11.4871642,23.5 11.0644928,23.1139598 11.0067277,22.6166211 L11,22.5 L11,22.038 L7.90613847,23.4138115 C7.40145428,23.6381156 6.81049253,23.4108226 6.58618845,22.9061385 C6.37790609,22.4375032 6.55901099,21.8944754 6.99002419,21.6397007 L7.09386153,21.5861885 L11,19.85 L11,18 L5.50010618,18 C3.89877996,18 2.59608619,16.7535291 2.50507914,15.1784064 L2.5,15.0020869 L2.5,13 C1.3954305,13 0.5,12.1045695 0.5,11 C0.5,9.8954305 1.3954305,9 2.5,9 C3.6045695,9 4.5,9.8954305 4.5,11 L4.5,11 L4.50013215,13.4997831 C4.83648981,13.2477467 5.23918773,13.0781822 5.6788354,13.0211823 C5.56310765,12.7018846 5.5,12.3567543 5.5,11.9966488 L5.5,4.00335124 C5.5,2.34464615 6.84226429,1 8.49878564,1 L15.5012144,1 Z M17.9915915,15 L6.00840855,15 C5.72206338,15 5.5,15.2217853 5.5,15.5 C5.5,15.7486571 5.6750842,15.9503189 5.91543297,15.9920627 L6.00840855,16 L17.9915915,16 C18.2461205,16 18.449859,15.8247622 18.4927218,15.6356993 L18.5010393,15.5644679 L18.4988422,15.4637636 C18.4838016,15.2314303 18.31107,15.0457035 18.0805501,15.0072992 L17.9915915,15 Z M15.5012144,3 L8.49878564,3 C7.98703265,3 7.56448025,3.38661638 7.5067266,3.88618553 L7.5,4.00335124 L7.5,11.9966488 C7.5,12.5129968 7.88528303,12.9355473 8.38224434,12.9932772 L8.49878564,13 L15.5012144,13 C16.0129673,13 16.4355198,12.6133836 16.4932734,12.1138145 L16.5,11.9966488 L16.5,4.00335124 C16.5,3.48700315 16.114717,3.06445274 15.6177557,3.00672282 L15.5012144,3 Z"></path></svg>