<svg xmlns:xlink="http://www.w3.org/1999/xlink" xmlns="http://www.w3.org/2000/svg" viewBox="0 0 24 24" width="24" height="24"><path fill="#3D474D" fill-rule="evenodd" d="M16.9997069,0.361222604 L17,6.559 L17.229404,6.43656939 C17.7549849,6.14094754 18.191019,5.80498473 18.5173949,5.44487808 L18.5173949,5.44487808 L18.6504979,5.28911568 L19.2318539,4.5656152 L19.9966253,5.09149766 C22.5121527,6.82125859 24,9.30355496 24,12 C24,12.3638165 23.9728886,12.7253159 23.9191047,13.0831194 L23.9191047,13.0831194 L23.8499903,13.5429102 L23.453884,13.7863937 C22.2920374,14.500572 21.4562955,15.6329694 21.1403648,16.9372333 L21.1403648,16.9372333 L20.8670943,18.0653819 L19.7918102,17.6281636 C19.1607885,17.3715856 18.4796825,17.2376187 17.777356,17.2376187 C15.634171,17.2376187 13.7341933,18.4999104 12.9266449,20.3919457 L12.9266449,20.3919457 L12.0067103,22.5472947 L11.0871235,20.3917973 C10.280005,18.4999237 8.38010739,17.2376187 6.23689715,17.2376187 C5.67199126,17.2376187 5.12039226,17.3242567 4.59603446,17.4922314 L4.59603446,17.4922314 L3.59986954,17.8113465 L3.32587663,16.8018383 C2.94153471,15.3857566 1.94062493,14.1926772 0.595680415,13.5371178 L0.595680415,13.5371178 L0.0993858152,13.2952114 L0.0396904596,12.7463367 C0.0130970346,12.5018209 0,12.2528955 0,12 C0,9.29958701 1.49221592,6.8142844 4.01431265,5.08488499 L4.01431265,5.08488499 L4.78030835,4.55964245 L5.36061348,5.28481491 C5.69562421,5.70345769 6.17758747,6.09388327 6.77656801,6.43189444 L6.77656801,6.43189444 L7,6.553 L6.99971118,0.361222604 L10.425,4.232 L10.6223259,4.14687701 C10.986477,4.00282666 11.3717903,3.91541131 11.7681014,3.89027426 L11.7681014,3.89027426 L12.0071266,3.88271057 C12.4849679,3.88271057 12.9500617,3.97305968 13.3851138,4.14419023 L13.3851138,4.14419023 L13.579,4.227 L16.9997069,0.361222604 Z M15,5.638 L13.8920464,6.89102305 L13.1488616,6.29499268 C12.8138816,6.02634038 12.4198008,5.88271057 12.0071266,5.88271057 C11.5922417,5.88271057 11.1961251,6.02790031 10.8600454,6.29929497 L10.8600454,6.29929497 L10.1164726,6.89975298 L9,5.639 L9.00070275,9.42070232 L7.69199239,8.99617196 C6.46559155,8.59834184 5.40355719,8.03393542 4.58761586,7.34041289 L4.58761586,7.34041289 L4.475,7.24 L4.43352009,7.27421354 C2.94478293,8.52405832 2.08446114,10.0963003 2.00590155,11.7511785 L2.00590155,11.7511785 L2.001,12.025 L2.20527754,12.1506949 C3.38044961,12.9023341 4.3125936,13.974985 4.88110253,15.2337785 L4.88110253,15.2337785 L4.932,15.352 L5.25364784,15.3026239 C5.46955359,15.273854 5.68743599,15.2545528 5.90680054,15.244882 L5.90680054,15.244882 L6.23689715,15.2376187 C8.53890186,15.2376187 10.64313,16.3011113 11.9879744,18.0190126 L11.9879744,18.0190126 L12.006,18.044 L12.1985221,17.8072422 C13.4909348,16.2806236 15.4036896,15.3202162 17.5021097,15.242697 L17.5021097,15.242697 L17.777356,15.2376187 C18.2580318,15.2376187 18.7325846,15.2836865 19.1956641,15.3739507 L19.1956641,15.3739507 L19.529,15.447 L19.5685369,15.351583 C20.0696207,14.1865831 20.880645,13.1714185 21.9140937,12.4136317 L21.9140937,12.4136317 L21.985,12.363 L21.9934582,12.263443 L22,12 C22,10.2569019 21.132232,8.59124691 19.5733223,7.27928708 L19.5733223,7.27928708 L19.532,7.246 L19.4184394,7.34745938 C18.6746137,7.9775042 17.7275584,8.50057604 16.6387493,8.88851563 L16.6387493,8.88851563 L16.3079154,9.00081537 L15.0007135,9.42302689 L15,5.638 Z M10.5,8 C10.7761424,8 11,8.21403503 11,8.50468445 L11,9.49531555 C11,9.74307513 10.8167438,9.94913626 10.5877486,9.99186886 L10.5,10 C10.2238576,10 10,9.78596497 10,9.49531555 L10,8.50468445 C10,8.25692487 10.1832562,8.05086374 10.4122514,8.00813114 L10.5,8 Z M13.5,8 C13.7761424,8 14,8.21403503 14,8.50468445 L14,9.49531555 C14,9.74307513 13.8167438,9.94913626 13.5877486,9.99186886 L13.5,10 C13.2238576,10 13,9.78596497 13,9.49531555 L13,8.50468445 C13,8.25692487 13.1832562,8.05086374 13.4122514,8.00813114 L13.5,8 Z"></path></svg>