<svg xmlns:xlink="http://www.w3.org/1999/xlink" xmlns="http://www.w3.org/2000/svg" viewBox="0 0 24 24" width="24" height="24"><g fill="#3D474D" fill-rule="evenodd" transform="translate(4.5 2)"><path fill-rule="nonzero" d="M3.79014155,15.38108 L1.1997695,17.5397234 C0.669423379,17.9816785 0.597768299,18.7698844 1.0397234,19.3002305 C1.4816785,19.8305766 2.26988438,19.9022317 2.8002305,19.4602766 L5.8002305,16.9602766 C6.0437179,16.7573704 6.20103459,16.4695455 6.24034735,16.1550434 L6.74034735,12.1550434 C6.82597546,11.4700185 6.34006834,10.8452808 5.65504342,10.7596527 C4.97001849,10.6740245 4.34528077,11.1599317 4.25965265,11.8449566 L3.79014155,15.38108 Z" fill="#3D474D"></path><path d="M7.0003905,4 C8.10496622,4 9.00039,3.104568 9.00039,2 C9.00039,0.895432 8.10496622,0 7.0003905,0 C5.89582278,0 5.000395,0.895432 5.000395,2 C5.000395,3.104568 5.89582278,4 7.0003905,4 L7.0003905,4 Z" fill="#3D474D"></path><path fill-rule="nonzero" d="M10.1489315,14.5076009 C10.0588117,14.2973215 9.91271151,14.1158071 9.7265479,13.9828331 L7.03831534,12.0626671 C6.94419931,11.9954414 6.81388096,11.7175535 6.82225735,11.6086605 L7.037378,8.63101277 L8.05092925,9.81348922 C8.288407,10.0905466 8.63509389,10.25 9,10.25 L12.4999998,10.25 C13.1903558,10.25 13.7499998,9.69035594 13.7499998,9 C13.7499998,8.30964406 13.1903558,7.75 12.4999998,7.75 L9.60158827,7.78111456 L7.60002608,5.44595868 C6.51134233,4.17582764 4.8005627,4.73904352 4.68307219,6.40495035 L4.32903643,11.4248503 C4.25398388,12.4002035 4.77998266,13.5218314 5.5852199,14.0970008 L7.99852559,15.8364648 L9.35106889,18.9923991 C9.62301342,19.6269364 10.3578621,19.9208758 10.9923993,19.6489313 C11.6269365,19.3769868 11.920876,18.6421381 11.6489315,18.0076009 L10.1489315,14.5076009 Z" fill="#3D474D"></path><line x1="11" x2="15" y1="6" y2="19" stroke="#3D474D" stroke-linecap="round" stroke-linejoin="round" fill="#3D474D"></line><rect width="2" height="6" x="1.1" y="5" rx="1" transform="rotate(4 2.1 8)" fill="#3D474D"></rect></g></svg>