<svg xmlns:xlink="http://www.w3.org/1999/xlink" viewBox="0 0 24 24" width="32" height="32" fill="currentColor" xmlns="http://www.w3.org/2000/svg"><g clip-path="url(#unassigned-person-svg-clip-path)" fill-rule="evenodd" clip-rule="evenodd" fill="#8A9499"><path d="M12 22a1 1 0 1 1 0 2 1 1 0 0 1 0-2Zm3.835-.765a1 1 0 1 1 .75 1.855 1 1 0 0 1-.75-1.855Zm-8.965.537a1 1 0 1 1 1.841.782 1 1 0 0 1-1.841-.782Zm12.201-2.7a1 1 0 1 1 1.414 1.413 1 1 0 0 1-1.414-1.414Zm-15.556 0a1 1 0 1 1 1.414 1.413 1 1 0 0 1-1.414-1.414Zm17.727-3.253a1 1 0 1 1 1.841.781 1 1 0 0 1-1.84-.781Zm-19.795-.53a1 1 0 1 1 .781 1.841 1 1 0 0 1-.781-1.841ZM23 11a1 1 0 1 1 0 2 1 1 0 0 1 0-2ZM1 11a1 1 0 1 1 0 2 1 1 0 0 1 0-2Zm20.788-4.137a1 1 0 1 1 .75 1.855 1 1 0 0 1-.75-1.855ZM.917 7.4a1 1 0 1 1 1.84.781A1 1 0 0 1 .918 7.4ZM19.07 3.515a1 1 0 1 1 1.414 1.414 1 1 0 0 1-1.414-1.414Zm-15.556 0a1 1 0 1 1 1.414 1.414 1 1 0 0 1-1.414-1.414Zm11.774-2.068a1 1 0 1 1 1.841.781 1 1 0 0 1-1.841-.781ZM7.416.91a1 1 0 1 1 .75 1.855A1 1 0 0 1 7.415.91ZM12 0a1 1 0 1 1 0 2 1 1 0 0 1 0-2ZM12 6a1.667 1.667 0 1 0 0 3.333A1.667 1.667 0 0 0 12 6ZM9 7.667a3 3 0 1 1 6 0 3 3 0 0 1-6 0ZM7.308 14.349c.731-1.35 2.272-2.683 4.691-2.683S15.96 13 16.69 14.35c.36.662.544 1.366.515 1.955-.014.291-.085.613-.274.88a1.12 1.12 0 0 1-.93.482H8a1.12 1.12 0 0 1-.931-.481c-.19-.268-.26-.59-.275-.881-.03-.589.156-1.293.514-1.955Zm.828 1.984h7.727a.823.823 0 0 0 .01-.095c.014-.287-.082-.749-.356-1.254C14.985 14 13.86 13 12 13c-1.86 0-2.985 1-3.518 1.984-.274.505-.37.967-.355 1.254.002.038.005.07.01.095Z" fill="#8A9499"></path></g><defs><clipPath id="unassigned-person-svg-clip-path"><path fill="currentColor" d="M0 0h24v24H0z"></path></clipPath></defs></svg>