<svg xmlns:xlink="http://www.w3.org/1999/xlink" xmlns="http://www.w3.org/2000/svg" viewBox="0 0 24 24" width="24" height="24"><g fill="none" fill-rule="evenodd"><g transform="translate(6 1)" fill="none"><path stroke="#3D474D" stroke-linejoin="round" stroke-width="2px" d="M-2.4361148,5 L14.4361148,5 C15.3276335,5 15.6509198,5.09282561 15.9768457,5.2671327 C16.3027716,5.4414398 16.5585602,5.69722837 16.7328673,6.0231543 C16.9071744,6.34908022 17,6.67236646 17,7.5638852 L17,14.4361148 C17,15.3276335 16.9071744,15.6509198 16.7328673,15.9768457 C16.5585602,16.3027716 16.3027716,16.5585602 15.9768457,16.7328673 C15.6509198,16.9071744 15.3276335,17 14.4361148,17 L-2.4361148,17 C-3.32763354,17 -3.65091978,16.9071744 -3.9768457,16.7328673 C-4.30277163,16.5585602 -4.5585602,16.3027716 -4.7328673,15.9768457 C-4.90717439,15.6509198 -5,15.3276335 -5,14.4361148 L-5,7.5638852 C-5,6.67236646 -4.90717439,6.34908022 -4.7328673,6.0231543 C-4.5585602,5.69722837 -4.30277163,5.4414398 -3.9768457,5.2671327 C-3.65091978,5.09282561 -3.32763354,5 -2.4361148,5 Z" transform="rotate(90 6 11)" fill="none"></path><line x1="4" x2="8" y1="1" y2="1" stroke="#3D474D" stroke-linecap="round" stroke-width="2px" fill="none"></line></g></g></svg>