<svg xmlns:xlink="http://www.w3.org/1999/xlink" xmlns="http://www.w3.org/2000/svg" viewBox="0 0 24 24" width="24" height="24"><path fill="#3D474D" fill-rule="evenodd" d="M11,0 C17.0751322,0 22,4.92486775 22,11 C22,17.0751322 17.0751322,22 11,22 C4.92486775,22 0,17.0751322 0,11 C0,4.92486775 4.92486775,0 11,0 Z M11,2 C6.02943725,2 2,6.02943725 2,11 C2,15.9705627 6.02943725,20 11,20 C15.9705627,20 20,15.9705627 20,11 C20,6.02943725 15.9705627,2 11,2 Z M7.17118326,11 C7.63287156,10.9999922 8.03454668,11.316059 8.14313715,11.7647952 C8.22720521,12.1121957 8.32592828,12.378526 8.43930633,12.563786 C8.54094973,12.7298715 8.70283716,12.9152693 8.92496861,13.1199795 C9.26595119,13.4342239 9.346177,13.9416549 9.11876455,14.3457616 L7.59690071,17.0500789 C7.32606511,17.5314184 6.71629599,17.7020272 6.23497352,17.4311614 C6.19719886,17.4099035 6.16084625,17.3862123 6.12614571,17.3602374 C5.3093153,16.7488051 4.6501967,16.0063213 4.14878992,15.1327862 C3.63939125,14.2453278 3.29692505,13.2537834 3.12139131,12.1581529 C3.03406796,11.6128389 3.40530348,11.0999567 3.95061076,11.0125916 C4.00292341,11.0042105 4.0558194,11 4.10879919,11 L7.17118326,11 Z M17.8676487,10.9997735 C18.419929,10.9998919 18.8675511,11.4476932 18.8674407,11.9999735 C18.8674296,12.0554614 18.8628001,12.1108521 18.8536002,12.165572 C18.6535288,13.3555753 18.3149459,14.3519859 17.8378516,15.1548039 C17.3728623,15.9372525 16.7164249,16.6574146 15.8685395,17.3152903 C15.4321995,17.6538731 14.8040034,17.574602 14.4654367,17.1382495 C14.4352774,17.0993795 14.4080277,17.0583369 14.3839095,17.015456 L12.8819751,14.345095 C12.6547286,13.941035 12.7349685,13.433766 13.0758382,13.1195793 C13.2965046,12.9161864 13.4574726,12.7319833 13.5587424,12.56697 C13.661472,12.3995779 13.7576273,12.1315888 13.8472083,11.7630026 C13.9561693,11.3146616 14.3577298,10.9990715 14.8191214,10.9991638 L17.8676487,10.9997735 Z M11,9 C12.1045695,9 13,9.8954305 13,11 C13,12.1045695 12.1045695,13 11,13 C9.8954305,13 9,12.1045695 9,11 C9,9.8954305 9.8954305,9 11,9 Z M11,3 C12.0690842,3 13.0386417,3.17264419 13.9086725,3.51793258 C14.4219735,3.72168835 14.6729511,4.30295986 14.4692319,4.81627548 C14.4526543,4.85804645 14.4332796,4.89865237 14.4112397,4.93781706 L12.8832215,7.65308486 C12.6561064,8.05668011 12.1815892,8.25152688 11.7363823,8.12400741 C11.4477521,8.0413358 11.2022914,8 11,8 C10.7979471,8 10.5527788,8.04124132 10.2644953,8.12372395 C9.81935618,8.25110301 9.34499243,8.05624015 9.11792101,7.65273942 L7.58983517,4.93736577 C7.31892362,4.45606046 7.4895347,3.84628311 7.97086366,3.57541359 C8.0100838,3.55334232 8.05074908,3.53394369 8.09258218,3.51734998 C8.96208255,3.17244999 9.93122182,3 11,3 Z" transform="translate(1 1)"></path></svg>