<svg xmlns:xlink="http://www.w3.org/1999/xlink" xmlns="http://www.w3.org/2000/svg" viewBox="0 0 24 24" width="24" height="24"><path fill="#3D474D" d="M21,0 C22.5976809,0 23.9036609,1.24891996 23.9949073,2.82372721 L24,3 L24,15 C24,16.5976809 22.75108,17.9036609 21.1762728,17.9949073 L21,18 L14,18 L14,20 L17,20 C17.5522847,20 18,20.4477153 18,21 C18,21.5128358 17.6139598,21.9355072 17.1166211,21.9932723 L17,22 L7,22 C6.44771525,22 6,21.5522847 6,21 C6,20.4871642 6.38604019,20.0644928 6.88337887,20.0067277 L7,20 L10,20 L10,18 L3,18 C1.40231912,18 0.0963391206,16.75108 0.00509269341,15.1762728 L0,15 L0,3 C0,1.40231912 1.24891996,0.0963391206 2.82372721,0.00509269341 L3,0 L21,0 Z M13,18 L11,18 L11,20 L13,20 L13,18 Z M12,15 C11.4477153,15 11,15.4477153 11,16 C11,16.5522847 11.4477153,17 12,17 C12.5522847,17 13,16.5522847 13,16 C13,15.4477153 12.5522847,15 12,15 Z M21,2 L3,2 C2.48716416,2 2.06449284,2.38604019 2.00672773,2.88337887 L2,3 L2,13 C2,13.5128358 2.38604019,13.9355072 2.88337887,13.9932723 L3,14 L21,14 C21.5128358,14 21.9355072,13.6139598 21.9932723,13.1166211 L22,13 L22,3 C22,2.44771525 21.5522847,2 21,2 Z" transform="translate(0 1)"></path></svg>