<svg xmlns:xlink="http://www.w3.org/1999/xlink" xmlns="http://www.w3.org/2000/svg" viewBox="0 0 24 24" width="24" height="24"><path fill="#3D474D" fill-rule="evenodd" d="M9,5 C9,6.11227036 9.89449617,7 10.9979131,7 L10.9979131,7 L13.0020869,7 C14.1017394,7 15,6.1045695 15,5 L15,5 L17.4991463,5 C19.8870322,5 21.8405968,6.8638647 21.9907235,9.20928848 C22.0063731,9.25996496 22.0213085,9.31157527 22.0352762,9.36370331 L23.5881905,15.1592583 C24.1599577,17.2931227 22.8936277,19.4864705 20.7597633,20.0582377 C18.6258989,20.630005 16.4325511,19.363675 15.8607838,17.2298106 L14.9955201,14 L9.00352008,14 L8.13921616,17.2298106 C7.58531664,19.2969918 5.50960175,20.5500122 3.44040943,20.1064855 L3.24023667,20.0582377 C1.10637226,19.4864705 -0.159957697,17.2931227 0.411809549,15.1592583 L0.411809549,15.1592583 L1.96472382,9.36370331 C1.97869148,9.31157527 1.99362686,9.25996496 2.00950545,9.20888652 C2.1587519,6.85939709 4.10721707,5 6.50085366,5 Z M17.4991463,14 L17.0655201,14 L17.7926355,16.7121725 C18.0655244,17.7306078 19.0771706,18.3538131 20.0965291,18.1597192 L20.2421252,18.1263861 C21.3090574,17.8405025 21.9422224,16.7438286 21.6563388,15.6768964 L21.6563388,15.6768964 L20.8166867,12.5433585 C19.9948628,13.4387782 18.8141876,14 17.4991463,14 Z M3.1844648,12.5403661 L2.3436612,15.6768964 C2.05777758,16.7438286 2.69094256,17.8405025 3.75787476,18.1263861 C4.82480697,18.4122697 5.92148088,17.7791047 6.20736451,16.7121725 L6.93352008,14 L6.50085366,14 C5.18841508,14 4.00717896,13.4369522 3.1844648,12.5403661 Z M12.4953156,12 L11.5046844,12 C11.214035,12 11,12.2238576 11,12.5 C11,12.7680664 11.2259549,13 11.5046844,13 L11.5046844,13 L12.4953156,13 C12.785965,13 13,12.7761424 13,12.5 L13,12.5 L12.9918689,12.4122514 C12.9491363,12.1832562 12.7430751,12 12.4953156,12 L12.4953156,12 Z M6.5,7 C5.11928813,7 4,8.11928813 4,9.5 C4,10.8807119 5.11928813,12 6.5,12 C7.88071187,12 9,10.8807119 9,9.5 C9,8.11928813 7.88071187,7 6.5,7 Z M17.5,7 C16.1192881,7 15,8.11928813 15,9.5 C15,10.8807119 16.1192881,12 17.5,12 C18.8807119,12 20,10.8807119 20,9.5 C20,8.11928813 18.8807119,7 17.5,7 Z M6.5,8 C6.77614237,8 7,8.2157526 7,8.49538898 L6.99952008,9 L7.50461102,9 C7.74780727,9 7.95007308,9.18325617 7.99201862,9.41225137 L8,9.5 C8,9.77614237 7.7842474,10 7.50461102,10 L6.99952008,10 L7,10.504611 C7,10.7478073 6.81674383,10.9500731 6.58774863,10.9920186 L6.5,11 C6.22385763,11 6,10.7842474 6,10.504611 L5.99952008,10 L5.49538898,10 C5.2217932,10 5,9.76806641 5,9.5 C5,9.22385763 5.2157526,9 5.49538898,9 L5.99952008,9 L6,8.49538898 C6,8.25219273 6.18325617,8.04992692 6.41225137,8.00798138 L6.5,8 Z M17.5,8 C18.3284271,8 19,8.67157288 19,9.5 C19,10.3284271 18.3284271,11 17.5,11 C16.6715729,11 16,10.3284271 16,9.5 C16,8.67157288 16.6715729,8 17.5,8 Z M12.9906311,4 C13.5082716,4 13.9349029,4.38272018 13.9932092,4.88266744 L14,5 C14,5.55228475 13.5566468,6 12.9906311,6 L11.0093689,6 C10.4519098,6 10,5.55613518 10,5 C10,4.44771525 10.4433532,4 11.0093689,4 L12.9906311,4 Z"></path></svg>