<svg xmlns:xlink="http://www.w3.org/1999/xlink" xmlns="http://www.w3.org/2000/svg" viewBox="0 0 20 20" width="20" height="20"><g fill="none" fill-rule="evenodd"><circle cx="10" cy="10" r="10" fill="#8A9499" opacity="0.205"></circle><path fill="#8A9499" d="M8.5,1 C10.4329966,1 12,2.56700338 12,4.5 L12,7.5 C12,9.43299662 10.4329966,11 8.5,11 L6,11 L4,12 L4,11 L3.5,11 C1.56700338,11 9.09731426e-13,9.43299662 9.09494702e-13,7.5 L9.09494702e-13,4.5 C9.09257978e-13,2.56700338 1.56700338,1 3.5,1 L8.5,1 Z M8.5,2.5 L3.5,2.5 C2.3954305,2.5 1.5,3.3954305 1.5,4.5 L1.5,4.5 L1.5,7.5 C1.5,8.6045695 2.3954305,9.5 3.5,9.5 L3.5,9.5 L8.5,9.5 C9.6045695,9.5 10.5,8.6045695 10.5,7.5 L10.5,7.5 L10.5,4.5 C10.5,3.3954305 9.6045695,2.5 8.5,2.5 L8.5,2.5 Z M3.75,4 L8.25,4 C8.66421356,4 9,4.33578644 9,4.75 C9,5.16421356 8.66421356,5.5 8.25,5.5 L3.75,5.5 C3.33578644,5.5 3,5.16421356 3,4.75 C3,4.33578644 3.33578644,4 3.75,4 Z M3.75,6.5 L6.25,6.5 C6.66421356,6.5 7,6.83578644 7,7.25 C7,7.66421356 6.66421356,8 6.25,8 L3.75,8 C3.33578644,8 3,7.66421356 3,7.25 C3,6.83578644 3.33578644,6.5 3.75,6.5 Z" transform="translate(4 4)"></path></g></svg>