<svg xmlns:xlink="http://www.w3.org/1999/xlink" xmlns="http://www.w3.org/2000/svg" viewBox="0 0 24 24" width="24" height="24"><path fill="#3D474D" fill-rule="evenodd" d="M13.3158865,2.62398676 C13.6448323,2.82761985 13.9220298,3.10481733 14.1256629,3.43376309 L22.8267618,17.4893844 C23.4953663,18.5694379 23.161821,19.9870053 22.0817675,20.6556098 C21.7181003,20.8807372 21.2988624,21 20.8711519,21 L3.12884807,21 C1.85859315,21 0.828848074,19.9702549 0.828848074,18.7 C0.828848074,18.2722896 0.948110871,17.8530517 1.17323824,17.4893844 L9.87433713,3.43376309 C10.6010812,2.25979191 12.1419154,1.8972427 13.3158865,2.62398676 Z M12.5225621,4.56104706 C12.0516834,4.272444 11.4360018,4.42020758 11.1473987,4.89108625 L11.1473987,4.89108625 L2.9665916,18.238719 C2.91839893,18.3173491 2.89289222,18.4077762 2.89289222,18.5 C2.89289222,18.7761424 3.11674985,19 3.39289222,19 L3.39289222,19 L20.6071078,19 C20.6993316,19 20.7897587,18.9744933 20.8683888,18.9263006 C21.1038281,18.7819991 21.1777099,18.4741583 21.0334084,18.238719 L21.0334084,18.238719 L12.8526013,4.89108625 C12.7701618,4.75657983 12.6570685,4.64348648 12.5225621,4.56104706 Z M12,8 C12.5522847,8 13,8.44771525 13,9 L13,13 C13,13.5522847 12.5522847,14 12,14 C11.4477153,14 11,13.5522847 11,13 L11,9 C11,8.44771525 11.4477153,8 12,8 Z M12,17 C12.5522847,17 13,16.5522847 13,16 C13,15.4477153 12.5522847,15 12,15 C11.4477153,15 11,15.4477153 11,16 C11,16.5522847 11.4477153,17 12,17 Z"></path></svg>