<svg xmlns:xlink="http://www.w3.org/1999/xlink" xmlns="http://www.w3.org/2000/svg" viewBox="0 0 24 24" width="24" height="24"><path fill="#3D474D" fill-rule="evenodd" d="M14.1715729,1 C14.7020059,1 15.2107137,1.21071368 15.5857864,1.58578644 L21.4142136,7.41421356 C21.7892863,7.78928632 22,8.29799415 22,8.82842712 L22,20 C22,21.6568542 20.6568542,23 19,23 L5,23 C3.34314575,23 2,21.6568542 2,20 L2,4 C2,2.34314575 3.34314575,1 5,1 L14.1715729,1 Z M14,3 L5,3 C4.44771525,3 4,3.44771525 4,4 L4,20 C4,20.5522847 4.44771525,21 5,21 L19,21 C19.5522847,21 20,20.5522847 20,20 L20,9 C20,8.44771525 19.5522847,8 19,8 L16,8 C15.4477153,8 15,7.55228475 15,7 L15,4 C15,3.44771525 14.5522847,3 14,3 Z M13,15 C13.5522847,15 14,15.4477153 14,16 C14,16.5522847 13.5522847,17 13,17 L8,17 C7.44771525,17 7,16.5522847 7,16 C7,15.4477153 7.44771525,15 8,15 L13,15 Z M16,11 C16.5522847,11 17,11.4477153 17,12 C17,12.5522847 16.5522847,13 16,13 L8,13 C7.44771525,13 7,12.5522847 7,12 C7,11.4477153 7.44771525,11 8,11 L16,11 Z"></path></svg>