<svg xmlns:xlink="http://www.w3.org/1999/xlink" xmlns="http://www.w3.org/2000/svg" viewBox="0 0 24 24" width="24" height="24"><path fill="#3D474D" fill-rule="evenodd" d="M23.1842628,17.5370173 C23.5870141,17.9149193 23.6071585,18.5477637 23.2292565,18.950515 C22.8513546,19.3532662 22.2185102,19.3734106 21.8157589,18.9955087 C19.9443497,17.2395634 18.3861126,17.0247528 15.5541403,18.1709424 L15.0558858,18.3807307 L14.5309,18.6169818 C14.441076,18.658551 14.3500642,18.7012144 14.2578276,18.7449679 L13.6894134,19.0205351 L13.0898264,19.3220609 L12.139367,19.8102635 L11.5536798,20.1046956 L11.0148246,20.3675947 C10.9285902,20.4088837 10.8440612,20.4489339 10.7611148,20.487783 L10.2814419,20.7067637 L9.83384674,20.8987196 C8.82229187,21.3164898 8.02450777,21.5282821 7.10311306,21.6371779 C4.82626215,21.9062693 2.78468545,21.1285489 0.919623124,19.1148064 L0.752319865,18.9303098 C0.385576937,18.5173715 0.423025716,17.8853149 0.835964052,17.518572 C1.24890239,17.1518291 1.88095894,17.1892778 2.24770186,17.6022162 L2.38696795,17.7557997 C4.40582064,19.9355925 6.04881118,20.2452462 9.11224992,19.0032859 L9.60801695,18.794339 C9.69269946,18.757381 9.77843114,18.71936 9.86524471,18.680282 L10.3993708,18.4331746 L10.9610339,18.1609753 L11.5518052,17.8639626 L12.7863171,17.2319218 L13.3395679,16.9571445 C13.4278679,16.9139675 13.5143018,16.8720715 13.5990015,16.8314136 L14.0874468,16.6019801 L14.5406115,16.4002014 C15.415886,16.0229255 16.1175079,15.7992205 16.8736622,15.6549407 L17.2573401,15.5890763 C19.4248715,15.2562732 21.3822938,15.8462279 23.1842628,17.5370173 Z M16.7000109,2.60008828 C17.1678285,3.22384517 17.0763696,4.09338007 16.5114589,4.60791901 L16.4000109,4.70008828 L13.5350109,6.84808828 L15.7480863,10.168038 C16.1314037,10.743014 16.0646124,11.4838992 15.6361067,11.9801987 C16.0576295,11.8378711 16.4573821,11.73437 16.8736622,11.6549407 L17.2573401,11.5890763 C19.4248715,11.2562732 21.3822938,11.8462279 23.1842628,13.5370173 C23.5870141,13.9149193 23.6071585,14.5477637 23.2292565,14.950515 C22.8513546,15.3532662 22.2185102,15.3734106 21.8157589,14.9955087 C19.9443497,13.2395634 18.3861126,13.0247528 15.5541403,14.1709424 L15.0558858,14.3807307 L14.5309,14.6169818 C14.441076,14.658551 14.3500642,14.7012144 14.2578276,14.7449679 L13.6894134,15.0205351 L13.0898264,15.3220609 L12.139367,15.8102635 L11.5536798,16.1046956 L11.0148246,16.3675947 C10.9285902,16.4088837 10.8440612,16.4489339 10.7611148,16.487783 L10.2814419,16.7067637 L9.83384674,16.8987196 C8.82229187,17.3164898 8.02450777,17.5282821 7.10311306,17.6371779 C4.82626215,17.9062693 2.78468545,17.1285489 0.919623124,15.1148064 L0.752319865,14.9303098 C0.385576937,14.5173715 0.423025716,13.8853149 0.835964052,13.518572 C1.24890239,13.1518291 1.88095894,13.1892778 2.24770186,13.6022162 L2.38696795,13.7557997 C3.29834518,14.7398307 4.13312473,15.3427423 5.05656439,15.5938383 C5.14159153,15.2900814 5.32197774,15.0129184 5.58614989,14.8104773 L5.70501245,14.7280908 L12.3950109,10.5470883 L10.8021817,8.15750793 C10.0870875,7.08486663 10.3016002,5.63995469 11.2640017,4.80954053 L11.3998569,4.70020378 L14.6000109,2.30008828 C15.2627526,1.803032 16.2029546,1.93734658 16.7000109,2.60008828 Z M19.0000109,5.50008828 C20.3807227,5.50008828 21.5000109,6.6193764 21.5000109,8.00008828 C21.5000109,9.38080015 20.3807227,10.5000883 19.0000109,10.5000883 C17.619299,10.5000883 16.5000109,9.38080015 16.5000109,8.00008828 C16.5000109,6.6193764 17.619299,5.50008828 19.0000109,5.50008828 Z"></path></svg>