<svg xmlns:xlink="http://www.w3.org/1999/xlink" xmlns="http://www.w3.org/2000/svg" viewBox="0 0 24 24" width="24" height="24"><path fill="#3D474D" fill-rule="evenodd" d="M10,-1 C16.0751322,-1 21,3.92486775 21,10 C21,16.0751322 16.0751322,21 10,21 C3.92486775,21 -1,16.0751322 -1,10 C-1,3.92486775 3.92486775,-1 10,-1 Z M10,1 C5.02943725,1 1,5.02943725 1,10 C1,14.9705627 5.02943725,19 10,19 C14.9705627,19 19,14.9705627 19,10 C19,5.02943725 14.9705627,1 10,1 Z M14.2195787,13.3807745 C14.5325118,13.8358474 14.4172846,14.4584392 13.9622117,14.7713723 C12.8051795,15.5670109 11.433662,16 10,16 C8.56633805,16 7.19482053,15.5670109 6.03778828,14.7713723 C5.58271536,14.4584392 5.46748822,13.8358474 5.78042125,13.3807745 C6.09335429,12.9257015 6.71594613,12.8104744 7.17101905,13.1234074 C7.99722416,13.6915513 8.97425304,14 10,14 C11.025747,14 12.0027758,13.6915513 12.828981,13.1234074 C13.2840539,12.8104744 13.9066457,12.9257015 14.2195787,13.3807745 Z M6.5,5 C7.32842712,5 8,5.67157288 8,6.5 L8,8.5 C8,9.32842712 7.32842712,10 6.5,10 C5.67157288,10 5,9.32842712 5,8.5 L5,6.5 C5,5.67157288 5.67157288,5 6.5,5 Z M13.5,5 C14.3284271,5 15,5.67157288 15,6.5 L15,8.5 C15,9.32842712 14.3284271,10 13.5,10 C12.6715729,10 12,9.32842712 12,8.5 L12,6.5 C12,5.67157288 12.6715729,5 13.5,5 Z" transform="translate(2 2)"></path></svg>