<svg xmlns:xlink="http://www.w3.org/1999/xlink" xmlns="http://www.w3.org/2000/svg" viewBox="0 0 24 24" width="24" height="24"><path fill="#3D474D" fill-rule="evenodd" d="M14.1200603,4.5965829 L19.7781677,10.6588409 C20.4953537,11.4272544 20.4953537,12.6197004 19.7781677,13.3881139 L14.1200603,19.4503718 C13.5548093,20.0559979 12.605626,20.0887283 12,19.5234774 C11.3943622,18.9582155 11.3616,18.0090245 11.9268218,17.4033493 L14.7630042,14.3641787 C14.9514078,14.1622908 14.9404767,13.8458971 14.7385889,13.6574935 C14.6460014,13.57109 14.5240762,13.523039 14.3974349,13.5230438 L4.5,13.5234203 C3.67160439,13.5234518 3.00003152,12.85193 3,12.0235344 C3,12.0235154 3,12.0234964 3,12.0234774 C3,11.195041 3.67156364,10.5234518 4.5,10.5234203 L14.3974041,10.5230438 C14.6735465,10.5230333 14.8973956,10.2991671 14.8973851,10.0230248 C14.8973802,9.89638007 14.8493173,9.77445561 14.7629026,9.68187389 L11.9269267,6.64350753 C11.3616746,6.03791598 11.3943762,5.08875963 11.9999677,4.52350749 C11.9999785,4.52349745 11.9999892,4.52348741 12,4.52347738 C12.605626,3.95822643 13.5548093,3.99095689 14.1200603,4.5965829 Z"></path></svg>