<svg xmlns:xlink="http://www.w3.org/1999/xlink" xmlns="http://www.w3.org/2000/svg" viewBox="0 0 24 24" width="24" height="24"><path fill="#3D474D" fill-rule="evenodd" d="M12.2133702,0.2 L12.213,0.216 L12.2990992,0.222875245 C14.9983695,0.463110325 17.4535738,2.5661279 18.0841608,5.19334192 L18.0841608,5.19334192 L18.1350255,5.42648123 L18.3497172,6.51945757 C18.4481515,7.02057766 18.9966683,7.47272727 19.5069823,7.47272727 L19.5069823,7.47272727 L19.506,7.506 L19.5911353,7.51618793 C21.4554376,7.79293318 22.9008168,9.35892999 22.995104,11.2794025 L22.995104,11.2794025 L23,11.4792983 L23,14.0181818 L21.192098,14.0181818 C20.0865338,14.0181818 19.1904762,14.9158773 19.1904762,16.0247528 L19.1904762,16.0247528 L19.153,16.024 L19.1456639,16.0780595 C18.9100141,17.4329151 17.7719573,18.4771556 16.3745689,18.5585271 L16.3745689,18.5585271 L16.1985911,18.5636364 L15.4204565,18.5636364 C14.7343824,18.5636364 13.8813155,19.1460348 13.6282975,19.7900807 L13.6282975,19.7900807 L12,23.934838 L10.3717025,19.7900807 C10.1162264,19.1397778 9.27132712,18.5636364 8.57954352,18.5636364 L8.57954352,18.5636364 L7.80140886,18.5636364 C6.32710462,18.5636364 5.10037408,17.4882395 4.85442766,16.0776969 L4.85442766,16.0776969 L4.846,16.024 L4.80952381,16.0247528 C4.80952381,14.9626102 3.9951382,14.0998931 2.9575791,14.0236588 L2.9575791,14.0236588 L2.80790202,14.0181818 L1,14.0181818 L1,11.4792983 C1,9.46372544 2.47791326,7.80161478 4.40822028,7.51607047 L4.40822028,7.51607047 L4.493,7.505 L4.49301774,7.47272727 C4.96650542,7.47272727 5.4734764,7.08364667 5.62243992,6.62611177 L5.62243992,6.62611177 L5.65028276,6.51945757 L5.86497454,5.42648123 C6.43788347,2.50985395 9.24704659,0.2 12.2133702,0.2 L12.2133702,0.2 Z M11.998,2.205 L11.8120375,2.22139914 C9.9449912,2.41934242 8.19017844,3.96546723 7.82747218,5.81197184 L7.82747218,5.81197184 L7.6127804,6.90494817 C7.36382682,8.17234822 6.27210648,9.19761232 5.01486169,9.42542514 L5.01486169,9.42542514 L4.999,9.427 L4.99985869,9.47272727 C3.94344199,9.47272727 3.08163551,10.2870453 3.00547215,11.3289673 L3.00547215,11.3289673 L3,11.4792983 L3,12.023 C4.92843843,12.117273 6.49023364,13.5614409 6.76618988,15.4316783 L6.76618988,15.4316783 L6.781,15.556 L6.80952381,15.5567025 C6.80952381,16.0731226 7.19581897,16.4987004 7.68646004,16.5568624 L7.68646004,16.5568624 L7.80140886,16.5636364 L8.57954352,16.5636364 C9.90455018,16.5636364 11.2823773,17.3902431 11.9786646,18.5451625 L11.9786646,18.5451625 L12,18.583 L12.0208002,18.5470754 C12.6836306,17.4501884 13.9698798,16.6435723 15.231482,16.569239 L15.231482,16.569239 L15.4204565,16.5636364 L16.1985911,16.5636364 C16.7449122,16.5636364 17.1904762,16.1147833 17.1904762,15.5567025 L17.1904762,15.5567025 L17.218,15.556 L17.2338434,15.4327226 C17.5100032,13.5651772 19.0728304,12.1175209 21,12.023 L21,12.023 L21,11.4792983 C21,10.4214452 20.1830721,9.55482855 19.149242,9.47823086 L19.149242,9.47823086 L19.0001413,9.47272727 L19,9.427 L18.7964813,9.38499445 C17.6755871,9.10741909 16.7190963,8.19992131 16.4262806,7.07601403 L16.4262806,7.07601403 L16.3872196,6.90494817 L16.1725278,5.81197184 C15.7979587,3.90507455 13.9209546,2.29766336 11.9803589,2.20488711 L11.998,2.205 Z M10,6.19999991 C10.5522847,6.19999991 11,6.64266024 11,7.19895647 L11,8.20104335 C11,8.71334408 10.6172798,9.13557437 10.1173326,9.1932792 L10,9.19999991 C9.44771525,9.19999991 9,8.75733958 9,8.20104335 L9,7.19895647 C9,6.68665575 9.38272018,6.26442546 9.88266744,6.20672062 L10,6.19999991 Z M14,6.19999991 C14.5522847,6.19999991 15,6.64266024 15,7.19895647 L15,8.20104335 C15,8.71334408 14.6172798,9.13557437 14.1173326,9.1932792 L14,9.19999991 C13.4477153,9.19999991 13,8.75733958 13,8.20104335 L13,7.19895647 C13,6.68665575 13.3827202,6.26442546 13.8826674,6.20672062 L14,6.19999991 Z"></path></svg>