<svg xmlns:xlink="http://www.w3.org/1999/xlink" xmlns="http://www.w3.org/2000/svg" viewBox="0 0 24 24" width="24" height="24"><g fill="none" fill-rule="evenodd"><g transform="translate(4 1)" fill="none"><polygon stroke="#3D474D" stroke-linecap="round" stroke-linejoin="round" stroke-width="1.5px" points="1.882 14.5 0 12 14.118 12 16 14.5 14.118 17 0 17" transform="matrix(-1 0 0 1 16 0)" fill="none"></polygon><polygon stroke="#3D474D" stroke-linecap="round" stroke-linejoin="round" stroke-width="1.5px" points="1.882 5.5 0 3 14.118 3 16 5.5 14.118 8 0 8" fill="none"></polygon><path fill="#3D474D" d="M7,1 C7,0.44771525 7.44386482,0 8,0 L8,0 C8.55228475,0 9,0.443864822 9,1 L9,2 L7,2 L7,1 Z"></path><rect width="2" height="2" x="7" y="9" fill="#3D474D"></rect><path fill="#3D474D" d="M7,18 L9,18 L9,22.0001925 C9,22.5523709 8.55613518,23 8,23 L8,23 C7.44771525,23 7,22.5562834 7,22.0001925 L7,18 Z"></path></g></g></svg>