<svg xmlns:xlink="http://www.w3.org/1999/xlink" xmlns="http://www.w3.org/2000/svg" viewBox="0 0 24 24" width="24" height="24"><path fill="#3D474D" fill-rule="evenodd" d="M12,1 C17.5272275,1 22,5.471819 22,11.0069348 L22,11.0069348 L22,12.9999798 C22,15.6820377 19.9184494,18.2503684 17.2948112,18.8042476 L17.2948112,18.8042476 L17.263,18.811 L17.2631579,18.9989566 C17.2631579,20.5966285 16.0139273,21.903587 14.4402562,21.9949034 L14.4999395,21.9888876 C14.4999798,21.992587 14.5,21.9962911 14.5,22 C14.5,22.5522847 14.0522847,23 13.5,23 C12.9477153,23 12.5,22.5522847 12.5,22 L11.5,22 L11.5,22 C11.5,22.5522847 11.0522847,23 10.5,23 C9.94771525,23 9.5,22.5522847 9.5,22 L9.50129222,21.9909236 C7.95536464,21.8708387 6.73684211,20.5742071 6.73684211,18.9989566 L6.73684211,18.9989566 L6.736,18.811 L6.47508731,18.7501694 C4.03644509,18.1184178 2.11601966,15.7459216 2.005066,13.2293247 L2.005066,13.2293247 L2,12.9999798 L2,11.0069348 C2,5.58991905 6.30645872,1.16068355 11.7201148,1.00394471 L11.7201148,1.00394471 Z M12,3 L11.763541,3.00342064 C7.44555989,3.12852081 4,6.67231333 4,11.0069348 L4,11.0069348 L4,12.9999798 C4,14.7342997 5.42178695,16.4892251 7.11830553,16.847379 L7.11830553,16.847379 L8.73684211,17.1890701 L8.73684211,18.9989566 C8.73684211,19.549615 9.18612513,20 9.73588434,20 L9.73588434,20 L14.2641157,20 C14.8148691,20 15.2631579,19.5514714 15.2631579,18.9989566 L15.2631579,18.9989566 L15.2631579,17.1890701 L16.8816945,16.847379 C18.5801383,16.4888186 20,14.7369158 20,12.9999798 L20,12.9999798 L20,11.0069348 C20,6.57648397 16.4227534,3 12,3 L12,3 Z M11.4,12.8666667 C11.8418278,12.5352958 12.4686292,12.6248389 12.8,13.0666667 L12.8,13.0666667 L13.8,14.4 C13.9298221,14.5730962 14,14.7836298 14,15 C14,15.5522847 13.5522847,16 13,16 L13,16 L11,16 C10.7836298,16 10.5730962,15.9298221 10.4,15.8 C9.9581722,15.4686292 9.86862915,14.8418278 10.2,14.4 L10.2,14.4 L11.2,13.0666667 C11.2568542,12.990861 11.3241943,12.9235209 11.4,12.8666667 Z M8,9 C9.1045695,9 10,9.8954305 10,11 C10,12.1045695 9.1045695,13 8,13 C6.8954305,13 6,12.1045695 6,11 C6,9.8954305 6.8954305,9 8,9 Z M16,9 C17.1045695,9 18,9.8954305 18,11 C18,12.1045695 17.1045695,13 16,13 C14.8954305,13 14,12.1045695 14,11 C14,9.8954305 14.8954305,9 16,9 Z"></path></svg>