<svg xmlns:xlink="http://www.w3.org/1999/xlink" xmlns="http://www.w3.org/2000/svg" viewBox="0 0 24 24" width="24" height="24" data-icon="ProjectBoard" focusable="false" class="svg-icon"><path fill="#1F1E30" fill-rule="evenodd" d="M20,4 C21.1045695,4 22,4.8954305 22,6 L22,20 C22,21.1045695 21.1045695,22 20,22 L13,22 C11.8954305,22 11,21.1045695 11,20 L11,19 L4,19 C2.8954305,19 2,18.1045695 2,17 L2,6 C2,4.8954305 2.8954305,4 4,4 L20,4 Z M19.3590287,14 L13.6409713,14 C13.4180916,14 13.3372701,14.0232064 13.2557886,14.0667832 C13.1743071,14.1103599 13.1103599,14.1743071 13.0667832,14.2557886 C13.0232064,14.3372701 13,14.4180916 13,14.6409713 L13,14.6409713 L13,19.3590287 C13,19.5819084 13.0232064,19.6627299 13.0667832,19.7442114 C13.1103599,19.8256929 13.1743071,19.8896401 13.2557886,19.9332168 C13.3372701,19.9767936 13.4180916,20 13.6409713,20 L13.6409713,20 L19.3590287,20 C19.5819084,20 19.6627299,19.9767936 19.7442114,19.9332168 C19.8256929,19.8896401 19.8896401,19.8256929 19.9332168,19.7442114 C19.9767936,19.6627299 20,19.5819084 20,19.3590287 L20,19.3590287 L20,14.6409713 C20,14.4180916 19.9767936,14.3372701 19.9332168,14.2557886 C19.8896401,14.1743071 19.8256929,14.1103599 19.7442114,14.0667832 C19.6627299,14.0232064 19.5819084,14 19.3590287,14 L19.3590287,14 Z M10.3590287,11 L4.6409713,11 C4.41809162,11 4.33727006,11.0232064 4.25578857,11.0667832 C4.17430709,11.1103599 4.11035995,11.1743071 4.06678318,11.2557886 C4.0232064,11.3372701 4,11.4180916 4,11.6409713 L4,11.6409713 L4,16.3590287 C4,16.5819084 4.0232064,16.6627299 4.06678318,16.7442114 C4.11035995,16.8256929 4.17430709,16.8896401 4.25578857,16.9332168 C4.33727006,16.9767936 4.41809162,17 4.6409713,17 L4.6409713,17 L10.3590287,17 C10.5819084,17 10.6627299,16.9767936 10.7442114,16.9332168 C10.8256929,16.8896401 10.8896401,16.8256929 10.9332168,16.7442114 C10.9767936,16.6627299 11,16.5819084 11,16.3590287 L11,16.3590287 L11,11.6409713 C11,11.4180916 10.9767936,11.3372701 10.9332168,11.2557886 C10.8896401,11.1743071 10.8256929,11.1103599 10.7442114,11.0667832 C10.6627299,11.0232064 10.5819084,11 10.3590287,11 L10.3590287,11 Z M19.3590287,6 L13.6409713,6 C13.4180916,6 13.3372701,6.0232064 13.2557886,6.06678318 C13.1743071,6.11035995 13.1103599,6.17430709 13.0667832,6.25578857 C13.0232064,6.33727006 13,6.41809162 13,6.6409713 L13,6.6409713 L13,12.3590287 C13,12.5819084 13.0232064,12.6627299 13.0667832,12.7442114 C13.1103599,12.8256929 13.1743071,12.8896401 13.2557886,12.9332168 C13.3372701,12.9767936 13.4180916,13 13.6409713,13 L13.6409713,13 L19.3590287,13 C19.5819084,13 19.6627299,12.9767936 19.7442114,12.9332168 C19.8256929,12.8896401 19.8896401,12.8256929 19.9332168,12.7442114 C19.9767936,12.6627299 20,12.5819084 20,12.3590287 L20,12.3590287 L20,6.6409713 C20,6.41809162 19.9767936,6.33727006 19.9332168,6.25578857 C19.8896401,6.17430709 19.8256929,6.11035995 19.7442114,6.06678318 C19.6627299,6.0232064 19.5819084,6 19.3590287,6 L19.3590287,6 Z M10.3590287,6 L4.6409713,6 C4.41809162,6 4.33727006,6.0232064 4.25578857,6.06678318 C4.17430709,6.11035995 4.11035995,6.17430709 4.06678318,6.25578857 C4.0232064,6.33727006 4,6.41809162 4,6.6409713 L4,6.6409713 L4,9.3590287 C4,9.58190838 4.0232064,9.66272994 4.06678318,9.74421143 C4.11035995,9.82569291 4.17430709,9.88964005 4.25578857,9.93321682 C4.33727006,9.9767936 4.41809162,10 4.6409713,10 L4.6409713,10 L10.3590287,10 C10.5819084,10 10.6627299,9.9767936 10.7442114,9.93321682 C10.8256929,9.88964005 10.8896401,9.82569291 10.9332168,9.74421143 C10.9767936,9.66272994 11,9.58190838 11,9.3590287 L11,9.3590287 L11,6.6409713 C11,6.41809162 10.9767936,6.33727006 10.9332168,6.25578857 C10.8896401,6.17430709 10.8256929,6.11035995 10.7442114,6.06678318 C10.6627299,6.0232064 10.5819084,6 10.3590287,6 L10.3590287,6 Z M21,1 C21.5522847,1 22,1.44771525 22,2 C22,2.55228475 21.5522847,3 21,3 L3,3 C2.44771525,3 2,2.55228475 2,2 C2,1.44771525 2.44771525,1 3,1 L21,1 Z"></path></svg>