<svg xmlns:xlink="http://www.w3.org/1999/xlink" xmlns="http://www.w3.org/2000/svg" viewBox="0 0 24 24" width="24" height="24"><path fill="#3D474D" fill-rule="evenodd" d="M21,1.5 L21,15 C21,15.0537622 20.9957574,15.1065336 20.9875888,15.1579974 C20.995673,15.2706592 21,15.3848243 21,15.5 C21,17.9852814 18.9852814,20 16.5,20 C14.0147186,20 12,17.9852814 12,15.5 C12,13.0147186 14.0147186,11 16.5,11 C17.4252961,11 18.2853652,11.2792703 19.0005166,11.7581204 L19,7.36728387 L10,10.2302839 L10,18.5 L10,18.5 C10,20.9852814 7.98528137,23 5.5,23 C3.01471863,23 1,20.9852814 1,18.5 C1,16.0147186 3.01471863,14 5.5,14 C6.42529612,14 7.28536516,14.2792703 8.00051661,14.7581204 L8,5 C8,4.56452223 8.28181835,4.17911267 8.69679634,4.04707422 L19.6967963,0.54707422 C20.3417416,0.341864373 21,0.823194685 21,1.5 Z M5.5,16 C4.11928813,16 3,17.1192881 3,18.5 C3,19.8807119 4.11928813,21 5.5,21 C6.88071187,21 8,19.8807119 8,18.5 C8,17.1192881 6.88071187,16 5.5,16 Z M16.5,13 C15.1192881,13 14,14.1192881 14,15.5 C14,16.8807119 15.1192881,18 16.5,18 C17.8807119,18 19,16.8807119 19,15.5 C19,14.1192881 17.8807119,13 16.5,13 Z M19,2.86758149 L10,5.73121785 L10,8.13241851 L19,5.26878215 L19,2.86758149 Z"></path></svg>