<svg xmlns:xlink="http://www.w3.org/1999/xlink" xmlns="http://www.w3.org/2000/svg" viewBox="0 0 24 24" width="24" height="24"><path fill="#3D474D" fill-rule="evenodd" d="M10,21 L14,21 C14,22.1045695 13.1045695,23 12,23 C10.9456382,23 10.0818349,22.1841222 10.0054857,21.1492623 L10,21 L14,21 Z M12,4 C15.3137085,4 18.2059881,6.67784573 18.4604859,9.98631646 L18.8459415,14.9972399 C18.9310257,16.1033337 19.8039449,17.4019725 20.7970711,17.8985355 L21.5573397,18.2786698 C21.8018142,18.4009071 22,18.7213302 22,19.0078316 L22,19.4921684 C22,19.7726361 21.7753906,20 21.5056152,20 L2.49438477,20 C2.2213436,20 2,19.7786698 2,19.4921684 L2,19.0078316 C2,18.7273639 2.19683838,18.4015808 2.44266033,18.2786698 L3.2029289,17.8985355 C4.19542386,17.4022881 5.06873405,16.1064574 5.15405847,14.9972399 L5.53951412,9.98631646 C5.79383345,6.68016517 8.69303423,4 12,4 Z M12,6 C9.73573401,6 7.70760704,7.87791811 7.53362309,10.1397095 L7.14816744,15.1506329 C7.07256959,16.133405 6.6572335,17.1481192 6.03358244,18 L17.9669593,18 C17.3429866,17.1476433 16.9273624,16.1325209 16.8518326,15.1506329 L16.4663769,10.1397095 C16.2920818,7.87387365 14.269278,6 12,6 Z M12,1 C12.5522847,1 13,1.44371665 13,1.99980749 L13.0006122,3.08175656 C12.7822418,3.04590624 12.5608621,3.0215201 12.3371745,3.00924604 L12,3 L11.7751832,3.00412903 C11.5135232,3.01374164 11.2547689,3.04003947 11.0000485,3.08198658 L11,1.99980749 C11,1.48707038 11.3827202,1.06448042 11.8826674,1.00672644 L12,1 Z"></path></svg>