<svg xmlns:xlink="http://www.w3.org/1999/xlink" xmlns="http://www.w3.org/2000/svg" viewBox="0 0 24 24" width="24" height="24"><path fill="#3D474D" fill-rule="evenodd" d="M5.71082695,8.00398529 C8.55236813,8.05914501 9.83746208,8.42001882 10.3699311,8.62803559 C10.9024002,8.83605236 11.1020761,9.39076374 11.3683106,9.52944158 C11.5839788,9.64178014 12.4172564,9.64178014 12.6329246,9.52944158 C12.8991591,9.39076374 13.098835,8.83605236 13.6313041,8.62803559 C14.1637731,8.42001882 15.4488671,8.05914501 18.2904082,8.00398529 C21.1319494,7.94882557 23.6442916,8.48688853 23.6442916,8.48688853 C23.8487247,8.52654707 24.0083081,8.73146841 24.0009814,8.93755434 L23.961361,10.0519899 C23.9539222,10.2612272 23.8452265,10.56454 23.7189869,10.7289311 L23.6443278,10.8261533 C23.5179071,10.9907803 23.3853142,11.2974585 23.3493443,11.4959804 C23.3493443,11.4959804 22.8829538,14.3138272 22.3504847,14.9378775 C21.8180157,15.5619278 20.6066207,15.8765091 18.7563187,15.9779614 C16.9060166,16.0794136 15.4283871,15.8392835 14.6296835,15.0765554 C13.83098,14.3138272 12.9630217,11.6991442 12.7660419,11.4015925 C12.6925505,11.2905786 12.346584,11.1696454 12.0006176,11.1696454 C11.6546512,11.1696454 11.3086847,11.2905786 11.2351933,11.4015925 C11.0382135,11.6991442 10.1702552,14.3138272 9.37155166,15.0765554 C8.57284809,15.8392835 7.09521855,16.0794136 5.24491653,15.9779614 C3.39461451,15.8765091 2.1832195,15.5619278 1.65075045,14.9378775 C1.1182814,14.3138272 0.647258429,11.4708089 0.647258429,11.4708089 C0.613322696,11.2794024 0.48314696,10.9905444 0.356907369,10.8261533 L0.28224828,10.7289311 C0.15582755,10.5643041 0.0472009261,10.2580758 0.0398741676,10.0519899 L0.000253800776,8.93755434 C-0.00718499552,8.72831703 0.14966253,8.52606074 0.369979799,8.48449189 C0.369979799,8.48449189 2.86928577,7.94882557 5.71082695,8.00398529 Z M21.1424583,10.5636167 C21.0147612,10.1263033 19.6415365,9.92186055 18.2054261,9.99510925 C16.7693156,10.068358 15.2754491,10.2417549 15.1903178,10.8102623 C15.1051864,11.3787698 15.7862373,13.2773069 16.509854,13.670889 C17.2334706,14.0644711 20.0783162,14.2175909 20.5891044,13.2992328 C21.0998926,12.3808746 21.2701553,11.0009301 21.1424583,10.5636167 Z M2.97462505,10.5636167 C2.84509829,11.0009301 3.01780064,12.3808746 3.53590771,13.2992328 C4.05401478,14.2175909 6.85365153,14.0644711 7.58763654,13.670889 C8.32162156,13.2773069 9.01243098,11.3787698 8.9260798,10.8102623 C8.83972862,10.2417549 7.41042852,10.068358 5.95374069,9.99510925 C4.49705287,9.92186055 3.10415182,10.1263033 2.97462505,10.5636167 Z"></path></svg>