<svg xmlns:xlink="http://www.w3.org/1999/xlink" xmlns="http://www.w3.org/2000/svg" viewBox="0 0 24 24" width="24" height="24"><path fill="#3D474D" fill-rule="evenodd" d="M12,1 C15.3137085,1 18,3.6862915 18,7 C18,8.11808696 17.6941731,9.16474421 17.1616078,10.0608832 C17.665235,10.5358684 18.0972734,11.0773873 18.4482035,11.6671689 L19.4998905,10.998 L19.5,9 C19.5,8.72385763 19.7238576,8.5 20,8.5 C20.2454599,8.5 20.4496084,8.67687516 20.4919443,8.91012437 L20.5,9 L20.4998905,10.361 L21.7315623,9.57816926 C21.9645329,9.42991518 22.2735767,9.49859157 22.4218307,9.73156225 C22.5536121,9.93864731 22.5139917,10.2058395 22.3399375,10.3667825 L22.2684377,10.4218307 L21.2528905,11.067 L22.2236068,11.5527864 C22.4431528,11.6625594 22.5466478,11.9120593 22.480202,12.139617 L22.4472136,12.2236068 C22.3374406,12.4431528 22.0879407,12.5466478 21.860383,12.480202 L21.7763932,12.4472136 L20.2688905,11.693 L18.9027082,12.5629089 C19.290686,13.4746598 19.5,14.4699869 19.5,15.5 C19.5,19.6421356 16.1421356,23 12,23 C7.85786438,23 4.5,19.6421356 4.5,15.5 C4.5,14.4703627 4.70916133,13.475386 5.09686723,12.5639068 L3.73089047,11.694 L2.2236068,12.4472136 C1.97661755,12.5707082 1.67628103,12.470596 1.5527864,12.2236068 C1.44301341,12.0040608 1.50991738,11.7423639 1.6996086,11.6001852 L1.7763932,11.5527864 L2.74589047,11.067 L1.73156225,10.4218307 C1.49859157,10.2735767 1.42991518,9.96453294 1.57816926,9.73156225 C1.70995065,9.5244772 1.96877573,9.44720493 2.18828824,9.53671349 L2.26843775,9.57816926 L3.49989047,10.362 L3.5,9 C3.5,8.75454011 3.67687516,8.55039163 3.91012437,8.50805567 L4,8.5 C4.24545989,8.5 4.44960837,8.67687516 4.49194433,8.91012437 L4.5,9 L4.49989047,10.998 L5.55119703,11.6681765 C5.90212152,11.0781942 6.33420017,10.5364891 6.83716952,10.0594325 C6.30582691,9.16474421 6,8.11808696 6,7 C6,3.6862915 8.6862915,1 12,1 Z M15.865,11.588 L15.7899526,11.652014 C15.6974011,11.7275212 15.6027342,11.8001592 15.506085,11.86985 C15.4678334,11.8971575 15.4293743,11.9242162 15.3905868,11.9508309 C15.36862,11.9661493 15.3465632,11.9810622 15.3244114,11.9958254 C15.2804078,12.0249381 15.2358292,12.0538198 15.1908485,12.0821208 C15.1691825,12.095921 15.1476272,12.1092825 15.1259895,12.1225055 L15.0886939,12.1449784 C14.9541456,12.2259258 14.8161618,12.3017446 14.675013,12.3721643 C14.6560817,12.3815174 14.6374374,12.3906869 14.6187445,12.3997596 C14.5628202,12.4270448 14.5060959,12.453518 14.4488976,12.4791219 C14.4243172,12.4899204 14.3996211,12.5007638 14.3748482,12.5114414 C14.3167981,12.5367129 14.2583684,12.5608303 14.1994831,12.5840431 C14.1815167,12.5908237 14.1630879,12.597978 14.1446206,12.6050418 L14.1994831,12.5840431 C14.1129676,12.6181479 14.0254688,12.6503002 13.9370411,12.6804458 L13.8986038,12.693024 C13.8760901,12.7005241 13.8535249,12.7078923 13.830909,12.715128 C13.7848454,12.7302617 13.7385741,12.7444537 13.6920685,12.7580977 C13.6599838,12.7671031 13.6282786,12.7761165 13.5964832,12.7848714 C13.4539768,12.8245291 13.3087677,12.8587716 13.161631,12.8876359 C13.10901,12.8976286 13.0563469,12.9072422 13.0034937,12.9161587 C12.958279,12.9240699 12.9125822,12.9312247 12.8667175,12.9378607 C12.8363943,12.9420088 12.8064167,12.9461242 12.776384,12.9500157 C12.7177392,12.9578116 12.6583849,12.9645902 12.5987741,12.9704964 C12.5693381,12.973275 12.5403458,12.9759443 12.5113086,12.9784053 C12.4577018,12.9830489 12.4032867,12.9869084 12.3486759,12.9900376 C12.2329174,12.9966415 12.1167271,13 12,13 L12.2501409,12.9948803 C12.167184,12.9982823 12.0837926,13 12,13 L12,13 L10.5,13 C10.2206827,13 9.99999999,13.2205535 9.99999999,13.4984348 L9.99999999,13.4984348 L9.99999999,16.5 C9.99999999,17.0522847 9.55228474,17.5 8.99999999,17.5 C8.44771524,17.5 7.99999999,17.0522847 7.99999999,16.5 L7.99999999,16.5 L7.99999999,13.4984348 C7.99999999,12.8984004 8.21026678,12.3485526 8.56143804,11.9183704 C8.52989845,11.8954866 8.49727431,11.8721552 8.46489598,11.8485074 C8.37722705,11.7847625 8.29119793,11.7183034 8.20692284,11.649464 L8.4069984,11.8056882 C8.3450614,11.7593061 8.2840507,11.7117546 8.22399905,11.6630665 L8.20692284,11.649464 L8.134,11.588 L8.02705264,11.6959985 C7.11759022,12.6447573 6.56737375,13.8968614 6.50578933,15.2459581 L6.50578933,15.2459581 L6.5,15.5 C6.5,18.5375661 8.96243388,21 12,21 C15.0375661,21 17.5,18.5375661 17.5,15.5 C17.5,14.0545593 16.9392512,12.7040548 15.9729474,11.6959985 L15.9729474,11.6959985 L15.865,11.588 Z M12,17 C12.5522847,17 13,17.4477153 13,18 C13,18.5522847 12.5522847,19 12,19 C11.4477153,19 11,18.5522847 11,18 C11,17.4477153 11.4477153,17 12,17 Z M12,14 C12.5522847,14 13,14.4477153 13,15 C13,15.5522847 12.5522847,16 12,16 C11.4477153,16 11,15.5522847 11,15 C11,14.4477153 11.4477153,14 12,14 Z M12,3 C9.790861,3 8,4.790861 8,7 C8,7.99578614 8.36387142,8.90658556 8.96590488,9.60668886 C9.05799977,9.71393449 9.15503853,9.81544405 9.25664462,9.91128844 C9.27070364,9.92428097 9.28463835,9.93723062 9.29866499,9.95008154 L9.25664462,9.91128844 C9.30710575,9.9588881 9.35869339,10.0050905 9.41135162,10.0498626 L9.29866499,9.95008154 C9.36090358,10.0071033 9.42495223,10.0621813 9.49071481,10.1152196 L9.41135162,10.0498626 C9.45631142,10.0880891 9.50205167,10.1252731 9.54853755,10.1613939 L9.49071481,10.1152196 C9.54159959,10.1562587 9.59351052,10.1960765 9.64640306,10.2346286 L9.54853755,10.1613939 C9.61825017,10.2155625 9.68963968,10.26734 9.76258869,10.3166574 L9.64640306,10.2346286 C9.78590366,10.3363071 9.93223241,10.4291807 10.0845722,10.5124322 C10.115918,10.5299498 10.1476562,10.5467318 10.1796184,10.5630824 L10.0845722,10.5124322 C10.1360072,10.5405406 10.1881273,10.5675522 10.2409013,10.5934354 L10.1796184,10.5630824 C10.2448609,10.5964579 10.3110369,10.6280362 10.3780783,10.6577773 L10.2409013,10.5934354 C10.3112481,10.6279373 10.3827565,10.6604343 10.4553522,10.690852 L10.3780783,10.6577773 C10.4374555,10.6841182 10.4975116,10.7090179 10.5581994,10.7324486 L10.4553522,10.690852 C10.5189452,10.7174976 10.5833725,10.7425476 10.6485841,10.7659519 L10.5581994,10.7324486 C10.7202648,10.7950197 10.8868353,10.8471142 11.0570114,10.8882018 C11.0744705,10.8924255 11.091751,10.8964784 11.1090743,10.9004188 L11.0570114,10.8882018 C11.1264306,10.9049625 11.1964498,10.9198916 11.267008,10.9329532 L11.1090743,10.9004188 C11.1858284,10.9178777 11.2634217,10.9331291 11.341784,10.9461028 L11.267008,10.9329532 C11.337431,10.9459897 11.4083909,10.9571658 11.4798271,10.9664457 L11.341784,10.9461028 C11.4148558,10.9582006 11.4885964,10.9683178 11.5629485,10.9763975 L11.4798271,10.9664457 C11.5536795,10.9760395 11.6280409,10.9836066 11.7028442,10.9891075 L11.5629485,10.9763975 C11.6344909,10.9841719 11.7065995,10.9900597 11.7792236,10.9940104 L12,11 C12.0739115,11 12.1474874,10.9979887 12.2206704,10.993997 C12.2462564,10.9926243 12.2716729,10.9909998 12.2970237,10.989139 L12.2206704,10.993997 C12.293427,10.9900285 12.3657952,10.9841028 12.4377189,10.9762501 L12.2970237,10.989139 C12.3708183,10.9837223 12.4440567,10.9763036 12.5166847,10.966937 L12.4377189,10.9762501 C12.5131679,10.9680125 12.5881276,10.9576545 12.6625333,10.9452111 L12.5166847,10.966937 C12.5886249,10.957659 12.6599662,10.9464699 12.7306561,10.933422 L12.6625333,10.9452111 C12.7391766,10.9323936 12.815232,10.9173635 12.8906286,10.9001592 L12.7306561,10.933422 C12.8020419,10.9202457 12.8727634,10.905174 12.9427665,10.888261 L12.8906286,10.9001592 C13.7314103,10.7083058 14.4902699,10.2460783 15.0688626,9.56671915 L15.0500593,9.58800901 C15.6425552,8.8904209 16,7.9869533 16,7 C16,4.790861 14.209139,3 12,3 Z M12.6115167,7.20908446 L12.6708905,7.261 L12.7162195,7.31634394 C12.8548695,7.51717152 12.8851612,7.81625367 12.7780676,8.03044082 L12,9.586576 L11.2219324,8.03044082 C11.1146838,7.81594352 11.1448322,7.51735358 11.2836759,7.31642675 L11.3288905,7.26 L11.3886108,7.20897653 C11.7473997,6.93012385 12.2531566,6.9305226 12.6115167,7.20908446 Z M10,5 C10.5522847,5 11,5.44771525 11,6 C11,6.55228475 10.5522847,7 10,7 C9.44771525,7 9,6.55228475 9,6 C9,5.44771525 9.44771525,5 10,5 Z M14,5 C14.5522847,5 15,5.44771525 15,6 C15,6.55228475 14.5522847,7 14,7 C13.4477153,7 13,6.55228475 13,6 C13,5.44771525 13.4477153,5 14,5 Z"></path></svg>