<svg xmlns:xlink="http://www.w3.org/1999/xlink" xmlns="http://www.w3.org/2000/svg" viewBox="0 0 24 24" width="24" height="24"><path fill="#3D474D" fill-rule="evenodd" d="M9.61880215,16 L11.3480762,18.9951905 C11.7622898,19.7126295 11.516477,20.6300151 10.7990381,21.0442286 C10.0815992,21.4584422 9.16421356,21.2126295 8.75,20.4951905 L6.15470054,16 L9.61880215,16 Z M18.6641006,2.7591167 C18.8831239,3.08765173 19,3.47366712 19,3.86851709 L19,16.1314829 C19,17.2360524 18.1045695,18.1314829 17,18.1314829 C16.60515,18.1314829 16.2191346,18.0146069 15.8905996,17.7955835 L11.6972244,15 L7,15 C4.23857625,15 2,12.7614237 2,10 C2,7.23857625 4.23857625,5 7,5 L11.6972244,5 L15.8905996,2.2044165 C16.809657,1.59171158 18.0513957,1.84005932 18.6641006,2.7591167 Z M17,3.86851709 L12.3027756,7 L7,7 C5.34314575,7 4,8.34314575 4,10 C4,11.6568542 5.34314575,13 7,13 L12.3027756,13 L17,16.1314829 L17,3.86851709 Z M20,8 C21.1045695,8 22,8.8954305 22,10 C22,11.0543618 21.1841222,11.9181651 20.1492623,11.9945143 L20,12 L20,8 Z"></path></svg>