<svg xmlns:xlink="http://www.w3.org/1999/xlink" xmlns="http://www.w3.org/2000/svg" viewBox="0 0 24 24" width="24" height="24"><g fill="none" fill-rule="evenodd"><path fill="#3D474D" d="M9.60058594,6.71484375 C9.98144722,6.71484375 10.6035113,6.56673325 11.4667969,6.27050781 C12.3300824,5.97428237 13.0790984,5.82617188 13.7138672,5.82617188 C14.754888,5.82617188 15.6816366,6.10546596 16.4941406,6.6640625 C16.9511742,6.98567869 17.4039691,7.42154673 17.8525391,7.97167969 C17.1754523,8.5472034 16.6803401,9.05924255 16.3671875,9.5078125 C15.8001274,10.3203166 15.5166016,11.217443 15.5166016,12.1992188 C15.5166016,13.2740939 15.8170543,14.2431597 16.4179688,15.1064453 C17.0188832,15.9697309 17.7044232,16.5156239 18.4746094,16.7441406 C18.1529932,17.7851615 17.6197954,18.8727157 16.875,20.0068359 C15.7493433,21.7080163 14.632167,22.5585938 13.5234375,22.5585938 C13.0833311,22.5585938 12.4760781,22.4189467 11.7016602,22.1396484 C10.9272422,21.8603502 10.2734402,21.7207031 9.74023438,21.7207031 C9.20702858,21.7207031 8.58708036,21.8666978 7.88037109,22.1586914 C7.17366183,22.4506851 6.60026262,22.5966797 6.16015625,22.5966797 C4.83137356,22.5966797 3.52800118,21.4710399 2.25,19.2197266 C0.971998818,16.993804 0.333007812,14.8102321 0.333007812,12.6689453 C0.333007812,10.6800031 0.821772456,9.05925105 1.79931641,7.80664062 C2.77686036,6.5540302 4.01040922,5.92773438 5.5,5.92773438 C6.1347688,5.92773438 6.90282752,6.05891796 7.80419922,6.32128906 C8.70557091,6.58366017 9.3043605,6.71484375 9.60058594,6.71484375 L9.60058594,6.71484375 Z M13.5742188,1.47167969 C13.5742188,2.01334906 13.4472669,2.60579105 13.1933594,3.24902344 C12.9394519,3.89225582 12.5374376,4.48892954 11.9873047,5.0390625 C11.513344,5.50455962 11.0436221,5.81770753 10.578125,5.97851562 C10.2818996,6.07161505 9.83333634,6.14355443 9.23242188,6.19433594 C9.24934904,4.90787117 9.58577146,3.79492657 10.2416992,2.85546875 C10.897627,1.91601093 11.9830653,1.27278819 13.4980469,0.92578125 C13.5319012,1.03580784 13.5530599,1.1331376 13.5615234,1.21777344 C13.569987,1.30240928 13.5742188,1.38704385 13.5742188,1.47167969 L13.5742188,1.47167969 Z" transform="translate(3)"></path></g></svg>