<svg xmlns:xlink="http://www.w3.org/1999/xlink" xmlns="http://www.w3.org/2000/svg" viewBox="0 0 24 24" width="24" height="24"><path fill="#3D474D" d="M11,0 C13.7614237,0 16,2.23857625 16,5 C16,6.34537282 15.4686373,7.56663922 14.6043282,8.46538289 C15.4427507,8.99574424 16,9.93279584 16,11 L16,12.437 L18.4635574,9.48168114 C19.1353292,8.67555503 20.3070871,8.53177879 21.1501122,9.12569049 L21.2803688,9.22560738 C21.736354,9.60559503 22,10.1684903 22,10.7620499 L22,10.7620499 L22,17.2379501 C22,18.3425196 21.1045695,19.2379501 20,19.2379501 C19.4064403,19.2379501 18.8435451,18.974304 18.4635574,18.5183189 L18.4635574,18.5183189 L16,15.562 L16,17 C16,18.6568542 14.6568542,20 13,20 L3,20 C1.34314575,20 4.26325641e-14,18.6568542 4.26325641e-14,17 L4.26325641e-14,11 C4.26325641e-14,10.0825761 0.411807829,9.26133514 1.06065744,8.71104306 C0.40238076,8.00032766 4.26325641e-14,7.04715436 4.26325641e-14,6 C4.26325641e-14,3.790861 1.790861,2 4,2 C4.93675816,2 5.79830662,2.32201104 6.4799923,2.86138007 C7.28007861,1.17031147 9.00336886,0 11,0 Z M13,10 L3,10 C2.48716416,10 2.06449284,10.3860402 2.00672773,10.8833789 L2,11 L2,17 C2,17.5128358 2.38604019,17.9355072 2.88337887,17.9932723 L3,18 L13,18 C13.5128358,18 13.9355072,17.6139598 13.9932723,17.1166211 L14,17 L14,11 C14,10.4871642 13.6139598,10.0644928 13.1166211,10.0067277 L13,10 Z M20,10.7620499 L17.3017083,14 L20,17.2379501 L20,10.7620499 Z M11,2 C9.34314575,2 8,3.34314575 8,5 C8,6.65685425 9.34314575,8 11,8 C12.6568542,8 14,6.65685425 14,5 C14,3.34314575 12.6568542,2 11,2 Z M4,4 C2.8954305,4 2,4.8954305 2,6 C2,7.1045695 2.8954305,8 4,8 C5.1045695,8 6,7.1045695 6,6 C6,4.8954305 5.1045695,4 4,4 Z" transform="translate(1 2)"></path></svg>