<svg xmlns:xlink="http://www.w3.org/1999/xlink" xmlns="http://www.w3.org/2000/svg" viewBox="0 0 24 24" width="24" height="24"><path fill="#FFFFFF" fill-rule="evenodd" d="M12,1 C18.0751322,1 23,5.92486775 23,12 C23,18.0751322 18.0751322,23 12,23 C5.92486775,23 1,18.0751322 1,12 C1,5.92486775 5.92486775,1 12,1 Z M12,3 C7.02943725,3 3,7.02943725 3,12 C3,16.9705627 7.02943725,21 12,21 C16.9705627,21 21,16.9705627 21,12 C21,7.02943725 16.9705627,3 12,3 Z M14.009222,16 C14.5173285,16 14.9361019,16.3827202 14.9933343,16.8826674 L15,17 C15,17.5522847 14.5490248,18 14.009222,18 L9.99077797,18 C9.44358641,18 9,17.5561352 9,17 C9,16.4477153 9.45097518,16 9.99077797,16 L14.009222,16 Z M16.0046024,12 C16.515078,12 16.935804,12.3827202 16.9933032,12.8826674 L17,13 C17,13.5522847 16.5443356,14 16.0046024,14 L7.99539757,14 C7.44565467,14 7,13.5561352 7,13 C7,12.4477153 7.4556644,12 7.99539757,12 L16.0046024,12 Z M17.9931545,8 C18.509501,8 18.9350657,8.38272018 18.9932262,8.88266744 L19,9 C19,9.55228475 18.5500512,10 17.9931545,10 L6.00684547,10 C5.45078007,10 5,9.55613518 5,9 C5,8.44771525 5.44994876,8 6.00684547,8 L17.9931545,8 Z"></path></svg>