<svg xmlns:xlink="http://www.w3.org/1999/xlink" xmlns="http://www.w3.org/2000/svg" viewBox="0 0 24 24" width="24" height="24"><path fill="#3D474D" fill-rule="evenodd" d="M11.3885525,1.89277321 C11.7486882,1.61448654 12.2513118,1.61448654 12.6114475,1.89277321 L12.6114475,1.89277321 L22.7752031,9.74658437 C23.3214714,10.1687008 23.4221164,10.9537317 23,11.5 C22.5778836,12.0462683 21.7928527,12.1469133 21.2465844,11.7247969 L21.2465844,11.7247969 L20.999046,11.5330582 L21,21 C21,21.5522847 20.5522847,22 20,22 L4,22 C3.44771525,22 3,21.5522847 3,21 L2.99904601,11.5340582 L2.75341563,11.7247969 C2.24356522,12.1187722 1.52572603,12.0573642 1.08908387,11.6032892 L1,11.5 C0.577883587,10.9537317 0.678528577,10.1687008 1.22479688,9.74658437 L1.22479688,9.74658437 Z M12,4.57970895 L4.99904601,9.98805821 L5,20 L8.99904601,19.9990582 L9,13.5 C9,13.2238576 9.22385763,13 9.5,13 L14.5,13 C14.7761424,13 15,13.2238576 15,13.5 L14.999046,19.9990582 L19,20 L18.999046,9.98805821 L12,4.57970895 Z"></path></svg>