<svg xmlns:xlink="http://www.w3.org/1999/xlink" xmlns="http://www.w3.org/2000/svg" viewBox="0 0 24 24" width="24" height="24"><path fill="#3D474D" fill-rule="evenodd" d="M20.34188,16.1991888 C20.4488033,16.1118814 20.6062582,16.1277832 20.6935656,16.2347064 L20.6935656,16.2347064 L20.9080352,16.500541 C22.3026784,18.252087 23,19.58524 23,20.5 C23,21.8807119 22,23 20.5,23 C19,23 18,22 18,20.5 C18,19.539508 18.7687874,18.1177436 20.3063621,16.2347068 C20.3169787,16.2217048 20.3288781,16.2098054 20.34188,16.1991888 Z M5.05020009,8.73729161 L14.949695,18.6367865 C14.100662,19.4858196 12.811182,19.7129937 11.7231152,19.2052292 L10.2656648,18.5250857 C9.05999577,17.9624401 7.62777693,18.2611172 6.74749489,19.2587702 L4.25212302,22.0868583 C3.56556542,22.8649569 2.37822695,22.9391656 1.60012834,22.252608 C1.57081258,22.2267411 1.54231132,22.1999656 1.51466619,22.1723204 C0.780909142,21.4385634 0.780909142,20.2489082 1.51466619,19.5151511 C1.54231132,19.487506 1.57081258,19.4607305 1.60012834,19.4348636 L4.42821645,16.9394918 C5.42586943,16.0592097 5.72454652,14.6269909 5.16190095,13.4213218 L4.48175746,11.9638714 C4.00071738,10.9330713 4.1792898,9.72150147 4.92132653,8.8749161 L5.05020009,8.73729161 Z M14.5989742,1.3544073 C14.7069176,1.43644424 14.8091755,1.52570428 14.9050448,1.62157353 L22.0654131,8.78194187 C23.236986,9.95351474 23.236986,11.8530097 22.0654131,13.0245826 C21.9695438,13.1204518 21.8672859,13.2097118 21.7593426,13.2917488 L15.6568018,17.9296798 L14.2259691,16.498847 L20.6563773,11.3817522 L20.6888118,11.3544033 L20.6888118,11.3544033 L20.719648,11.3252641 C20.9859146,11.0589975 21.0101207,10.6423339 20.7922662,10.3487224 L20.719648,10.2646039 L16.1068731,5.65041478 L10.8135205,9.98262426 C10.7066593,10.0700561 10.5491536,10.0543056 10.4617217,9.94744438 C10.3863741,9.85535291 10.3863741,9.72291695 10.4617217,9.63082548 L14.7930687,4.33661038 L13.4223827,2.9673386 C13.4123788,2.9573347 13.4020959,2.94761787 13.3915465,2.93819942 L13.359112,2.91085052 C13.064484,2.67635074 12.6477517,2.69934484 12.3806157,2.94895776 L12.3052345,3.03060933 L7.18742817,9.46030612 L5.75730688,8.03018483 L10.3952378,1.92764408 C11.3977726,0.608519361 13.2798495,0.351872513 14.5989742,1.3544073 Z"></path></svg>