<svg xmlns:xlink="http://www.w3.org/1999/xlink" xmlns="http://www.w3.org/2000/svg" viewBox="0 0 24 24" width="24" height="24"><path fill="#3D474D" fill-rule="evenodd" d="M7.78306954,2.02381294 C8.32220277,1.90400556 8.85637968,2.24393632 8.97618706,2.78306954 L8.97618706,2.78306954 L12.1442132,17.0391872 L13.8283781,11.4253042 C14.0821685,10.5793363 14.8608142,10 15.7440307,10 L15.7440307,10 L17.1706743,10.0000889 C17.5824856,8.8348501 18.6937479,8 20,8 C21.6568542,8 23,9.34314575 23,11 C23,12.6568542 21.6568542,14 20,14 C18.6941178,14 17.5831148,13.1656226 17.1710242,12.0009007 L15.7440307,12 L12.9578263,21.2873479 C12.8537824,21.6341609 12.5703916,21.8976401 12.2169305,21.9761871 C11.6777972,22.0959944 11.1436203,21.7560637 11.0238129,21.2169305 L11.0238129,21.2169305 L7.80700072,6.74127549 L6.17660738,11.6324555 C5.90437928,12.4491398 5.1401016,13 4.27924078,13 L4.27924078,13 L1,13 C0.44771525,13 1.04869017e-15,12.5522847 0,12 C-6.76353751e-17,11.4477153 0.44771525,11 1,11 L1,11 L4.27924078,11 L7.0513167,2.68377223 C7.16239577,2.35053503 7.44017129,2.10001255 7.78306954,2.02381294 Z M20,10 C19.4477153,10 19,10.4477153 19,11 C19,11.5522847 19.4477153,12 20,12 C20.5522847,12 21,11.5522847 21,11 C21,10.4477153 20.5522847,10 20,10 Z"></path></svg>