<svg xmlns:xlink="http://www.w3.org/1999/xlink" xmlns="http://www.w3.org/2000/svg" viewBox="0 0 24 24" width="24" height="24"><path fill="#3D474D" fill-rule="evenodd" d="M12,1 C18.0751322,1 23,5.92486775 23,12 C23,18.0751322 18.0751322,23 12,23 C5.92486775,23 1,18.0751322 1,12 C1,5.92486775 5.92486775,1 12,1 Z M12,3 C7.02943725,3 3,7.02943725 3,12 C3,16.9705627 7.02943725,21 12,21 C16.9705627,21 21,16.9705627 21,12 C21,7.02943725 16.9705627,3 12,3 Z M12.5921429,6.25 C12.6179045,6.25 12.6436146,6.25230375 12.6689658,6.25688371 C13.5029886,6.40755846 13.92,6.96305256 13.92,7.92336602 C13.92,8.51517042 13.880407,9.03010397 13.801221,9.46816669 C13.716325,9.93788185 14.0282719,10.3874905 14.497985,10.4723977 C14.5487174,10.4815683 14.6001685,10.4861812 14.6517231,10.4861812 L15.7185924,10.4861812 C16.4262943,10.4861812 17,11.0598869 17,11.7675888 C17,12.2253403 16.7599797,12.627032 16.3989273,12.8536757 C16.5015417,13.0379728 16.56,13.2502257 16.56,13.4761322 C16.56,13.9143224 16.3400552,14.3011416 16.0045421,14.5322136 C16.117825,14.7233244 16.1828571,14.9464055 16.1828571,15.1846756 C16.1828571,15.8923775 15.6091514,16.4660832 14.9014496,16.4660832 L14.8242647,16.4660832 C14.8161697,16.4660832 14.8080923,16.4660832 14.800033,16.4658587 L14.5508324,16.4659743 C14.5164091,16.4659842 14.4797411,16.4659932 14.4408284,16.4660014 L12.6,16.4660832 L12.6,16.4660832 C10.84,16.4660832 10.84,15.6118115 9.52,15.6118115 C8.2,15.6118115 8.2,10.4861812 9.52,10.4861812 L9.58460591,10.4861812 C10.1009233,10.4861767 10.5902088,10.2553715 10.9185695,9.85692083 L11.7653956,8.82933622 C12.0204967,8.51978269 12.16,8.13114566 12.16,7.73002227 L12.16,6.6821183 C12.1600246,6.44346595 12.3534905,6.25 12.5921429,6.25 Z M7.76,10.0590453 C8.04365416,10.0590453 8.27360128,10.2889924 8.27360128,10.5726466 C8.27360128,10.6465528 8.25765096,10.7195885 8.2268309,10.7867618 C7.9156103,11.4653096 7.76,12.2193878 7.76,13.0489963 C7.76,13.8786049 7.9156103,14.6326831 8.2268309,15.3112309 C8.3450944,15.5690553 8.23194761,15.8739309 7.9741192,15.9921857 C7.9069419,16.022997 7.8339062,16.0389474 7.76,16.0389474 L7.36373264,16.0389474 C7.04547774,16.0389474 6.7529714,15.86407 6.60235028,15.583714 C6.20078343,14.8362647 6,13.9913588 6,13.0489963 C6,12.106634 6.20078335,11.2617283 6.60235005,10.5142791 C6.75297436,10.2339379 7.04547013,10.0590453 7.36371353,10.0590453 L7.76,10.0590453 Z"></path></svg>