<svg xmlns:xlink="http://www.w3.org/1999/xlink" xmlns="http://www.w3.org/2000/svg" viewBox="0 0 24 24" width="24" height="24"><path fill="#3D474D" d="M19,5.08578644 L22.7071068,8.79289322 L22.7902954,8.88710056 C23.0953203,9.27939176 23.0675907,9.84662282 22.7071068,10.2071068 L22.7071068,10.2071068 L22.6128994,10.2902954 C22.2206082,10.5953203 21.6533772,10.5675907 21.2928932,10.2071068 L21.2928932,10.2071068 L19,7.915 L18.1160871,8.79950104 C18.678395,9.33883305 19.1346548,9.95519966 19.457254,10.6289584 L20,10.0857864 L23.7071068,13.7928932 L23.7902954,13.8871006 C24.0953203,14.2793918 24.0675907,14.8466228 23.7071068,15.2071068 L23.7071068,15.2071068 L23.6128994,15.2902954 C23.2206082,15.5953203 22.6533772,15.5675907 22.2928932,15.2071068 L22.2928932,15.2071068 L20,12.915 L19.998,12.916 L20,13 C20,13.8911999 19.783736,14.7347162 19.3931653,15.500702 L20.4142136,15.5 L23.7071068,18.7928932 L23.7902954,18.8871006 C24.0953203,19.2793918 24.0675907,19.8466228 23.7071068,20.2071068 L23.7071068,20.2071068 L23.6128994,20.2902954 C23.2206082,20.5953203 22.6533772,20.5675907 22.2928932,20.2071068 L22.2928932,20.2071068 L19.586,17.5 L18,17.5 L17.8833789,17.4932723 C17.8576486,17.4902837 17.8322163,17.4863185 17.8071199,17.4814146 C17.4778714,17.7611371 17.1175438,18.0182363 16.7311759,18.2476708 L17.5925782,18.6781456 L20.7073258,21.7928932 L20.7905144,21.8871006 C21.0955393,22.2793918 21.0678098,22.8466228 20.7073258,23.2071068 L20.7073258,23.2071068 L20.6131185,23.2902954 C20.2208273,23.5953203 19.6535962,23.5675907 19.2931123,23.2071068 L19.2931123,23.2071068 L16.4072191,20.321 L14.5530055,19.3944272 L14.4517051,19.3362552 C14.4010006,19.3030875 14.3541437,19.2658691 14.3113522,19.2252533 C13.5789452,19.4041178 12.8020075,19.5 12,19.5 C11.1979925,19.5 10.4210548,19.4041178 9.68697116,19.2250048 C9.64607535,19.2658691 9.59921846,19.3030875 9.54851397,19.3362552 L9.4472136,19.3944272 L7.593,20.321 L4.70710678,23.2071068 C4.34662282,23.5675907 3.77939176,23.5953203 3.38710056,23.2902954 L3.29289322,23.2071068 C2.93240926,22.8466228 2.90467972,22.2793918 3.20970461,21.8871006 L3.29289322,21.7928932 L6.40764085,18.6781456 L7.26882411,18.2476708 C6.88245621,18.0182363 6.52212859,17.7611371 6.19244503,17.4796482 L6.11662113,17.4932723 L6.11662113,17.4932723 L6,17.5 L4.414,17.5 L1.70710678,20.2071068 C1.34662282,20.5675907 0.779391764,20.5953203 0.387100557,20.2902954 L0.292893219,20.2071068 C-0.0675907428,19.8466228 -0.0953202783,19.2793918 0.209704612,18.8871006 L0.292893219,18.7928932 L3.58578644,15.5 L4.60683467,15.500702 C4.216264,14.7347162 4,13.8911999 4,13 C4,12.9723341 4.00020841,12.9447142 4.00062398,12.917141 L4,12.915 L1.70710678,15.2071068 C1.34662282,15.5675907 0.779391764,15.5953203 0.387100557,15.2902954 L0.292893219,15.2071068 C-0.0675907428,14.8466228 -0.0953202783,14.2793918 0.209704612,13.8871006 L0.292893219,13.7928932 L4,10.0857864 L4.54274603,10.6289584 C4.86534523,9.95519966 5.32160495,9.33883305 5.88391293,8.79950104 L5,7.915 L2.70710678,10.2071068 C2.34662282,10.5675907 1.77939176,10.5953203 1.38710056,10.2902954 L1.29289322,10.2071068 C0.932409257,9.84662282 0.904679722,9.27939176 1.20970461,8.88710056 L1.29289322,8.79289322 L5,5.08578644 L7.52303734,7.60742505 C8.80598101,6.90586862 10.3499306,6.5 12,6.5 C13.6500694,6.5 15.194019,6.90586862 16.4769627,7.60742505 L19,5.08578644 Z M12,8.5 C8.64061206,8.5 6,10.5747666 6,13 C6,15.4252334 8.64061206,17.5 12,17.5 C15.3593879,17.5 18,15.4252334 18,13 C18,10.5747666 15.3593879,8.5 12,8.5 Z M10,11.5 C10.5522847,11.5 11,11.9477153 11,12.5 L11,13.5 C11,14.0522847 10.5522847,14.5 10,14.5 C9.44771525,14.5 9,14.0522847 9,13.5 L9,12.5 C9,11.9477153 9.44771525,11.5 10,11.5 Z M14,11.5 C14.5522847,11.5 15,11.9477153 15,12.5 L15,13.5 C15,14.0522847 14.5522847,14.5 14,14.5 C13.4477153,14.5 13,14.0522847 13,13.5 L13,12.5 C13,11.9477153 13.4477153,11.5 14,11.5 Z M12,5.32907052e-15 C12.2454599,5.32907052e-15 12.4496084,0.176875161 12.4919443,0.410124368 L12.5,0.5 L12.5,5.5 C12.5,5.77614237 12.2761424,6 12,6 C11.7545401,6 11.5503916,5.82312484 11.5080557,5.58987563 L11.5,5.5 L11.5,0.5 C11.5,0.223857625 11.7238576,5.32907052e-15 12,5.32907052e-15 Z"></path></svg>