<svg xmlns:xlink="http://www.w3.org/1999/xlink" xmlns="http://www.w3.org/2000/svg" viewBox="0 0 24 24" width="24" height="24"><path fill="#3D474D" fill-rule="evenodd" d="M4,22 C3.44771525,22 3,21.5522847 3,21 C3,20.4477153 3.44771525,20 4,20 L5,20 L5,19.5 C5,14.7215371 10,14 10,12 C10,10 5,9.27846287 5,4.5 L5,4 L4,4 C3.44771525,4 3,3.55228475 3,3 C3,2.44771525 3.44771525,2 4,2 L21,2 C21.5522847,2 22,2.44771525 22,3 C22,3.55228475 21.5522847,4 21,4 L20,4 L20,4.5 C20,9.27846287 15,10 15,12 C15,14 20,14.7215371 20,19.5 L20,20 L21,20 C21.5522847,20 22,20.4477153 22,21 C22,21.5522847 21.5522847,22 21,22 L4,22 Z M18,4 L7,4 L7,4.5 C7,5.85921998 7.52588604,6.72404638 8.77014765,7.74702068 C8.84966595,7.81239695 10.2551165,8.88832127 10.6379918,9.24422236 C11.4927404,10.0387526 12,10.8902713 12,12 C12,13.1097287 11.4927404,13.9612474 10.6379918,14.7557776 C10.2551165,15.1116787 8.84966595,16.187603 8.77014765,16.2529793 C7.52588604,17.2759536 7,18.14078 7,19.5 L7,20 L9,20 L9,19.4198698 C9,18.8360201 9.25512546,18.281321 9.69841725,17.9013566 L12.5,15.5 L15.3015827,17.9013566 C15.7448745,18.281321 16,18.8360201 16,19.4198698 L16,20 L18,20 L18,19.5 C18,18.14078 17.474114,17.2759536 16.2298524,16.2529793 C16.150334,16.187603 14.7448835,15.1116787 14.3620082,14.7557776 C13.5072596,13.9612474 13,13.1097287 13,12 C13,10.8902713 13.5072596,10.0387526 14.3620082,9.24422236 C14.7448835,8.88832127 16.150334,7.81239695 16.2298524,7.74702068 C17.474114,6.72404638 18,5.85921998 18,4.5 L18,4 Z M15,7 L12.5,9 L10,7 L15,7 Z"></path></svg>