<svg xmlns:xlink="http://www.w3.org/1999/xlink" xmlns="http://www.w3.org/2000/svg" viewBox="0 0 24 24" width="24" height="24"><path fill="#3D474D" fill-rule="evenodd" d="M4.55737902,2.82514597 C4.98856154,2.82514597 5.35600566,3.03217096 5.49641635,3.32234196 C6.85361061,3.88344508 8.66983792,4.41605673 9.7391972,4.41605673 C10.1917581,4.41605673 10.6572065,4.32986257 11.2629469,4.14814046 L11.3260327,4.12912172 L11.3260327,4.12912172 L11.4434301,4.09294403 C11.5811383,4.0497458 11.7391134,3.99739195 12.1027939,3.87616509 C13.4429564,3.42944426 14.1775868,3.25696582 15.1482881,3.25696582 C15.5182616,3.25696582 15.9101906,3.28962657 16.3218374,3.35137359 C17.0115353,3.45482828 17.7375655,3.63633584 18.4756588,3.87358012 C18.8874763,4.00595 19.2777935,4.14759738 19.6351545,4.28949072 C19.8516829,4.37546523 20.0111456,4.44334462 20.1017517,4.48411739 C20.3790455,4.60889957 20.557379,4.88470769 20.557379,5.18878401 L20.557379,16.0069658 C20.557379,16.5677011 19.9788983,16.9417384 19.4675518,16.7116324 C19.3971731,16.679962 19.2588138,16.6210658 19.0648308,16.5440432 C18.7380062,16.4142746 18.3797439,16.2842601 18.0027356,16.1630788 C17.338472,15.9495655 16.6907648,15.7876387 16.092584,15.6979116 C15.7529681,15.6469692 15.4365638,15.6206022 15.1482881,15.6206022 C14.4974816,15.6206022 14.0012589,15.735338 13.188408,16.0304233 C13.0245407,16.0903247 13.0245407,16.0903247 12.8550789,16.1527561 C11.6372437,16.6001241 10.8757382,16.7796931 9.7391972,16.7796931 C9.34839374,16.7796931 8.93836373,16.7449816 8.51098901,16.678914 C7.65792983,16.5470401 6.76011082,16.2953991 5.84938541,15.9591313 L5.55737902,15.847146 L5.55737902,23.4597581 C5.55737902,23.8525469 5.28315548,24.7089046 4.6819875,24.814415 L4.55737902,24.825146 C3.86938447,24.825146 3.55737902,23.8787328 3.55737902,23.4597581 L3.55737902,23.4597581 L3.55737902,3.58376666 C3.55737902,3.44128136 3.60915956,3.30797081 3.69922399,3.19407384 C3.80767303,3.04473737 3.96604196,2.93772806 4.14340973,2.89293614 C4.26942443,2.84944368 4.40966136,2.82514597 4.55737902,2.82514597 Z M14.9462679,4.95014597 C14.2385555,4.95014597 13.6698377,5.08709475 12.5565991,5.46768916 C12.0541455,5.63946815 11.9561427,5.67234712 11.7299286,5.74195145 C11.0406022,5.95405188 10.4761668,6.06125708 9.89071235,6.06125708 C8.7146715,6.06125708 6.95510588,5.55401671 5.55737902,4.9790178 L5.55737902,13.7453038 L5.60453403,13.7675731 L5.60453403,13.7675731 C5.95774828,13.9337101 6.3458437,14.1001407 6.75545475,14.2552597 C7.52286591,14.5458769 8.27253627,14.7613824 8.96345371,14.8709296 C9.29316912,14.923207 9.6034303,14.950146 9.89071235,14.950146 C10.7493656,14.950146 11.3122242,14.8140162 12.304872,14.4400202 C12.367538,14.41634 12.4051377,14.4021319 12.4379408,14.3897666 L12.6215887,14.3208135 L12.6215887,14.3208135 C13.5254555,13.9842736 14.1378971,13.8390349 14.9462679,13.8390349 C15.2920601,13.8390349 15.6583728,13.8703436 16.0431146,13.9295347 C16.6877342,14.0287069 17.3663115,14.2027011 18.0561634,14.4301248 C18.2275337,14.4866205 18.3949206,14.5448792 18.557379,14.6041367 L18.557379,5.81532641 C18.2653611,5.6976075 17.9476007,5.58009587 17.6141502,5.47016713 C16.9933025,5.26549207 16.3879292,5.11026814 15.8288451,5.02425521 C15.5114264,4.97542156 15.215702,4.95014597 14.9462679,4.95014597 Z" transform="rotate(15 12.057 13.825)"></path></svg>