<svg xmlns:xlink="http://www.w3.org/1999/xlink" xmlns="http://www.w3.org/2000/svg" width="24" height="24" viewBox="0 0 24 24"><path fill="#FFFFFF" fill-rule="evenodd" clip-rule="evenodd" d="M8.436 13c.892 0 1.215.093 1.54.267.327.174.583.43.757.756.174.326.267.65.267 1.54v3.873c0 .892-.093 1.215-.267 1.54-.174.327-.43.583-.756.757-.326.174-.65.267-1.54.267H3.563c-.892 0-1.215-.093-1.54-.267a1.817 1.817 0 0 1-.757-.756c-.174-.326-.267-.65-.267-1.54v-3.873c0-.892.093-1.215.267-1.54.174-.327.43-.583.756-.757.326-.174.65-.267 1.54-.267h4.873Zm12 0c.892 0 1.215.093 1.54.267.327.174.583.43.757.756.174.326.267.65.267 1.54v3.873c0 .892-.093 1.215-.267 1.54-.174.327-.43.583-.756.757-.326.174-.65.267-1.54.267h-4.873c-.892 0-1.215-.093-1.54-.267a1.817 1.817 0 0 1-.757-.756c-.174-.326-.267-.65-.267-1.54v-3.873c0-.892.093-1.215.267-1.54.174-.327.43-.583.756-.757.326-.174.65-.267 1.54-.267h4.873ZM8.36 15H3.641c-.223 0-.304.023-.385.067a.454.454 0 0 0-.19.189c-.043.081-.066.162-.066.385v3.718c0 .223.023.304.067.385a.454.454 0 0 0 .189.19c.081.043.162.066.385.066h4.718c.223 0 .304-.023.385-.067a.454.454 0 0 0 .19-.189c.043-.081.066-.162.066-.385v-3.718c0-.223-.023-.304-.067-.385a.454.454 0 0 0-.189-.19C8.663 15.024 8.582 15 8.36 15Zm12 0h-4.718c-.223 0-.304.023-.385.067a.454.454 0 0 0-.19.189c-.043.081-.066.162-.066.385v3.718c0 .223.023.304.067.385a.454.454 0 0 0 .189.19c.081.043.162.066.385.066h4.718c.223 0 .304-.023.385-.067a.454.454 0 0 0 .19-.189c.043-.081.066-.162.066-.385v-3.718c0-.223-.023-.304-.067-.385a.454.454 0 0 0-.189-.19c-.081-.043-.162-.066-.385-.066ZM8.436 2c.892 0 1.215.093 1.54.267.327.174.583.43.757.756.174.326.267.65.267 1.54v3.873c0 .892-.093 1.215-.267 1.54-.174.327-.43.583-.756.757-.326.174-.65.267-1.54.267H3.563c-.892 0-1.215-.093-1.54-.267a1.817 1.817 0 0 1-.757-.756C1.093 9.65 1 9.327 1 8.437V4.563c0-.892.093-1.215.267-1.54.174-.327.43-.583.756-.757.326-.174.65-.267 1.54-.267h4.873Zm12 0c.892 0 1.215.093 1.54.267.327.174.583.43.757.756.174.326.267.65.267 1.54v3.873c0 .892-.093 1.215-.267 1.54-.174.327-.43.583-.756.757-.326.174-.65.267-1.54.267h-4.873c-.892 0-1.215-.093-1.54-.267a1.817 1.817 0 0 1-.757-.756c-.174-.326-.267-.65-.267-1.54V4.563c0-.892.093-1.215.267-1.54.174-.327.43-.583.756-.757.326-.174.65-.267 1.54-.267h4.873ZM8.541 4h-4.9c-.223 0-.304.023-.385.067a.454.454 0 0 0-.19.189C3.024 4.337 3 4.418 3 4.64v3.918c0 .223.023.304.067.385a.454.454 0 0 0 .189.19c.081.043.162.066.385.066h4.9c.223 0 .304-.023.385-.067a.454.454 0 0 0 .189-.189c.044-.081.067-.162.067-.385V4.641c0-.223-.023-.304-.067-.385a.454.454 0 0 0-.189-.19C8.845 4.024 8.764 4 8.541 4Zm11.818 0h-4.718c-.223 0-.304.023-.385.067a.454.454 0 0 0-.19.189c-.043.081-.066.162-.066.385v3.718c0 .223.023.304.067.385a.454.454 0 0 0 .189.19c.081.043.162.066.385.066h4.718c.223 0 .304-.023.385-.067a.454.454 0 0 0 .19-.189c.043-.081.066-.162.066-.385V4.641c0-.223-.023-.304-.067-.385a.454.454 0 0 0-.189-.19C20.663 4.024 20.582 4 20.36 4Z"></path></svg>