<svg xmlns:xlink="http://www.w3.org/1999/xlink" xmlns="http://www.w3.org/2000/svg" viewBox="0 0 24 24" width="24" height="24"><path fill="#3D474D" fill-rule="evenodd" d="M14,1 L15,2 C15,2 14,3 14,5 C14,5.0490161 13.9972971,5.09683091 13.9920311,5.14344443 C14.3709556,5.0694282 14.7574087,5.02446368 15.148253,5.00758387 L15.148253,5.00758387 L15.5,5 C20.2093616,5 24,9.04334758 24,14 C24,18.9566524 20.2093616,23 15.5,23 C14.3244626,23 13.1823286,22.746597 12.129426,22.2647061 L12.129426,22.2647061 L12,22.202 L11.8709131,22.2646063 C10.9235136,22.6983023 9.90336674,22.9470144 8.85167553,22.9924199 L8.85167553,22.9924199 L8.5,23 C3.79063836,23 0,18.9566524 0,14 C0,9.04334758 3.79063836,5 8.5,5 C8.97036174,5 9.43537521,5.04056983 9.89146398,5.12011313 L9.97310929,5.13628989 C9.97944835,5.09194159 9.98837209,5.04651163 10,5 C10.5,3 14,1 14,1 Z M15.5,7 C14.4367821,7 13.4122799,7.27455152 12.4928694,7.79395257 L12.4928694,7.79395257 L12.0013855,8.07160578 L11.5097167,7.79428013 C10.5884004,7.274612 9.56332928,7 8.5,7 C4.92509039,7 2,10.1200964 2,14 C2,17.8799036 4.92509039,21 8.5,21 C9.56320544,21 10.588295,20.725446 11.5086959,20.2062838 L11.5086959,20.2062838 L11.9998955,19.9292173 L12.4911405,20.2062033 C13.4122392,20.72556 14.4370029,21 15.5,21 C19.0749096,21 22,17.8799036 22,14 C22,10.1200964 19.0749096,7 15.5,7 Z M16.9490987,15.001302 C16.601706,16.6968143 14.5182639,18 12,18 C9.48173605,18 7.39829402,16.6968143 7.05090131,15.001302 L16.9490987,15.001302 Z M8,10 L10,13 L6,13 L8,10 Z M16,10 L18,13 L14,13 L16,10 Z"></path></svg>