<svg xmlns:xlink="http://www.w3.org/1999/xlink" xmlns="http://www.w3.org/2000/svg" viewBox="0 0 24 24" width="24" height="24"><path fill="#3D474D" fill-rule="evenodd" d="M16,20 C16.5522847,20 17,20.4477153 17,21 C17,21.5522847 16.5522847,22 16,22 L8,22 C7.44771525,22 7,21.5522847 7,21 C7,20.4477153 7.44771525,20 8,20 L16,20 Z M19.1541722,3 C20.4914503,3 20.9763797,3.13923842 21.4652686,3.40069906 C21.9541574,3.66215969 22.3378403,4.04584256 22.5993009,4.53473144 C22.8607616,5.02362033 23,5.50854969 23,6.8458278 L23,15.1541722 C23,16.4914503 22.8607616,16.9763797 22.5993009,17.4652686 C22.3378403,17.9541574 21.9541574,18.3378403 21.4652686,18.5993009 C20.9763797,18.8607616 20.4914503,19 19.1541722,19 L4.8458278,19 C3.50854969,19 3.02362033,18.8607616 2.53473144,18.5993009 C2.04584256,18.3378403 1.66215969,17.9541574 1.40069906,17.4652686 C1.13923842,16.9763797 1,16.4914503 1,15.1541722 L1,6.8458278 C1,5.50854969 1.13923842,5.02362033 1.40069906,4.53473144 C1.66215969,4.04584256 2.04584256,3.66215969 2.53473144,3.40069906 C3.02362033,3.13923842 3.50854969,3 4.8458278,3 L19.1541722,3 Z M19.7180574,5 L4.2819426,5 C3.83618323,5 3.67454011,5.04641281 3.51157715,5.13356635 C3.34861419,5.2207199 3.2207199,5.34861419 3.13356635,5.51157715 C3.04641281,5.67454011 3,5.83618323 3,6.2819426 L3,6.2819426 L3,15.7180574 C3,16.1638168 3.04641281,16.3254599 3.13356635,16.4884229 C3.2207199,16.6513858 3.34861419,16.7792801 3.51157715,16.8664336 C3.67454011,16.9535872 3.83618323,17 4.2819426,17 L4.2819426,17 L19.7180574,17 C20.1638168,17 20.3254599,16.9535872 20.4884229,16.8664336 C20.6513858,16.7792801 20.7792801,16.6513858 20.8664336,16.4884229 C20.9535872,16.3254599 21,16.1638168 21,15.7180574 L21,15.7180574 L21,6.2819426 C21,5.83618323 20.9535872,5.67454011 20.8664336,5.51157715 C20.7792801,5.34861419 20.6513858,5.2207199 20.4884229,5.13356635 C20.3254599,5.04641281 20.1638168,5 19.7180574,5 L19.7180574,5 Z"></path></svg>