<svg xmlns:xlink="http://www.w3.org/1999/xlink" xmlns="http://www.w3.org/2000/svg" viewBox="0 0 24 24" width="24" height="24"><path fill="#3D474D" d="M13,0 C14.6568542,0 16,1.34314575 16,3 L16,3 L18,3 C20.209139,3 22,4.790861 22,7 L22,7 L22,16 C22,18.209139 20.209139,20 18,20 L18,20 L4,20 C1.790861,20 0,18.209139 0,16 L0,16 L0,7 C0,4.790861 1.790861,3 4,3 L4,3 L6,3 C6,1.34314575 7.34314575,0 9,0 L9,0 Z M20.0018933,8.44638585 C18.9784301,8.96505908 17.6104141,9.36228881 16.0131971,9.62542505 L16.0131971,9.62542505 L15.4411623,9.71256534 C15.3443048,9.72615715 15.2467037,9.73928147 15.1483824,9.75193573 L15.1483824,9.75193573 L14.5499984,9.82220018 C14.2466718,9.85449159 13.9372833,9.88250641 13.6224638,9.90617549 L13.996183,9.87541826 C13.9987152,9.91662057 14,9.95816025 14,10 C14,11.1045695 13.1045695,12 12,12 L10,12 C8.8954305,12 8,11.1045695 8,10 L8.0037928,9.8758128 C7.81709409,9.85949922 7.63245129,9.84162333 7.45000162,9.82220018 L7.45000162,9.82220018 L6.85161762,9.75193573 C6.65497498,9.72662721 6.46121332,9.69943846 6.27051948,9.67038999 L6.27051948,9.67038999 L5.70782828,9.5776859 C4.23053553,9.31529403 2.96219812,8.93482023 1.9989344,8.44680526 L2,16 C2,17.1045695 2.8954305,18 4,18 L4,18 L18,18 C19.1045695,18 20,17.1045695 20,16 L20,16 Z M18,5 L4,5 C3.15413432,5 2.43091418,5.52510795 2.13854032,6.26712311 C2.26496876,6.39784877 2.48080111,6.53533124 2.77269188,6.67293506 L2.77269188,6.67293506 L3.03889179,6.78980672 C3.18089105,6.8481211 3.33604291,6.90615125 3.50346385,6.96343793 L3.50346385,6.96343793 L3.85440268,7.07688392 C3.91553169,7.09558102 3.97795847,7.11416149 4.04165031,7.13260833 L4.04165031,7.13260833 L4.43872028,7.24154967 C4.57596265,7.2772382 4.71800346,7.31225613 4.86458092,7.34646739 L4.86458092,7.34646739 L5.31766148,7.44654507 L5.31766148,7.44654507 L5.55391837,7.49451376 L6.04488368,7.58580059 C6.12869595,7.60046431 6.21347876,7.61484133 6.2991994,7.62891462 L6.2991994,7.62891462 L6.82451529,7.70957366 L7.37076814,7.78212698 L7.93638721,7.84575818 L8.51980177,7.89965081 C8.71706467,7.91590122 8.9170317,7.93039247 9.11944106,7.94298848 L9.11944106,7.94298848 L9.73373436,7.97495476 L10.3611109,7.99473324 C10.5722425,7.99920405 10.7852927,8.00150749 11,8.00150749 L10.839,8 L11.16,8 L11.3207854,7.99979692 C11.3740316,7.99922956 11.4271661,7.9985225 11.4801848,7.99767784 L11.6388891,7.99473324 L12.2662656,7.97495476 L12.8805589,7.94298848 C13.0829683,7.93039247 13.2829353,7.91590122 13.4801982,7.89965081 L13.4801982,7.89965081 L14.0636128,7.84575818 L14.6292319,7.78212698 L15.1754847,7.70957366 C15.2648257,7.69678329 15.3532944,7.68365517 15.4408579,7.67020633 L15.4408579,7.67020633 L15.9551163,7.58580059 L16.4460816,7.49451376 C16.60568,7.46302868 16.7611345,7.43053283 16.9121831,7.39716226 L16.9121831,7.39716226 L17.3518501,7.29456251 C17.4228377,7.27707055 17.4926585,7.25939394 17.5612797,7.24154967 L17.5612797,7.24154967 L17.9583497,7.13260833 C18.0857334,7.09571465 18.2080568,7.05828645 18.3250583,7.02045977 L18.3250583,7.02045977 L18.6598347,6.90592043 C18.7659303,6.8674329 18.866442,6.82868297 18.9611082,6.78980672 L18.9611082,6.78980672 L19.2273081,6.67293506 C19.5187847,6.53552651 19.7344185,6.39823897 19.8627535,6.26702697 C19.5690858,5.52510795 18.8458657,5 18,5 L18,5 Z M13,2 L9,2 C8.44771525,2 8,2.44771525 8,3 L8,3 L14,3 C14,2.48716416 13.6139598,2.06449284 13.1166211,2.00672773 L13.1166211,2.00672773 L13,2 Z" transform="translate(1 2)"></path></svg>