<svg xmlns:xlink="http://www.w3.org/1999/xlink" xmlns="http://www.w3.org/2000/svg" viewBox="0 0 24 24" width="24" height="24"><path fill="#3D474D" d="M9,3.10862447e-15 C10.8922251,3.10862447e-15 12.4775731,1.31389724 12.8934867,3.07913454 C13.9710388,3.20074192 15.0121951,3.46454157 15.9856166,3.85858489 L15.9856166,3.85858489 L16.119,3.915 L16.1690358,3.87872374 C16.9221245,3.35980626 17.8091739,3.05386546 18.7439442,3.00647892 L18.7439442,3.00647892 L19,3 C19.2388212,3 19.475862,3.01681562 19.7444696,3.05568125 L19.7444696,3.05568125 L20.9708301,3.27443353 L20.406,7.228 L20.5709683,7.45955097 C20.8438429,7.85981743 21.080479,8.278107 21.2783864,8.71105022 L21.2783864,8.71105022 L21.416,9.03 L21.5167117,9.04497971 C22.8718424,9.28151633 23.9137207,10.4239374 23.9949027,11.8280509 L23.9949027,11.8280509 L24,12.0048815 L24,12.9951185 C24,14.6556673 22.6573885,16 20.996608,15.9999989 L20.996608,15.9999989 L20.908,15.999 L20.8606766,16.0858291 C20.6711111,16.4048672 20.4596118,16.7135494 20.2275018,17.0103484 L20.2275018,17.0103484 L20.001,17.287 L20,17.9940809 C20,19.5957661 18.7516847,20.9035317 17.1719606,20.9949005 L17.1719606,20.9949005 L16.9951185,21 L16.0048815,21 C15.5025296,21 15.0180904,20.8767008 14.5883207,20.6478094 L14.5883207,20.6478094 L14.537,20.617 L14.1538724,20.7106049 C13.4381368,20.8700492 12.7007188,20.9647218 11.9511345,20.9918503 L11.9511345,20.9918503 L11.5,21 C10.594069,21 9.70305618,20.9017121 8.8430933,20.7098712 L8.8430933,20.7098712 L8.46,20.617 L8.41203893,20.645755 C8.04411706,20.8429945 7.63544483,20.9623708 7.20945063,20.992453 L7.20945063,20.992453 L6.9951185,21 L6.0048815,21 C4.34210976,21 3,19.6625252 3,17.9957063 L3,17.9957063 L2.999,17.287 L2.82631354,17.0785791 C1.71776127,15.6891509 1.07812308,14.0511451 1.00670735,12.3247048 L1.00670735,12.3247048 L1,12 C1,11.6746771 1.02013427,11.3513687 1.06006981,11.0310888 L1.06006981,11.0310888 L1.063,11.01 L0.969886324,10.9182182 C0.405224895,10.3283982 0.0566033192,9.55066744 0.0063104225,8.71110564 L0.0063104225,8.71110564 L0,8.5 C0,7.3855347 0.525658962,6.35655962 1.39942236,5.70025047 L1.39942236,5.70025047 L3,4.49800991 L3,6.49981691 C3,6.53096708 3.00287205,6.56151443 3.0083721,6.59119155 L3.0083721,6.59119155 L3.032,6.676 L3.14270684,6.5468928 C3.70408028,5.91467188 4.36067025,5.34905951 5.09413754,4.86497752 C5.03244078,4.58708168 5,4.29732931 5,4 C5,1.790861 6.790861,3.10862447e-15 9,3.10862447e-15 Z M18.701,5.016 L18.5842293,5.02853903 C17.9700665,5.11355504 17.4036362,5.38579985 16.9526176,5.8087585 L16.9526176,5.8087585 L16.448936,6.2811037 L15.8287848,5.97743018 C15.0102193,5.57659786 14.1176549,5.29247436 13.1815712,5.13741503 L13.1815712,5.13741503 L12.8503129,5.08778599 C12.8446977,5.10770118 12.8389322,5.12755334 12.8330177,5.14734116 L12.8272622,5.16644241 C12.822639,5.18163186 12.8179279,5.19678296 12.8131295,5.21189511 C12.7985045,5.25794042 12.7829915,5.30385913 12.7666763,5.3493959 C12.7612471,5.36456977 12.7558733,5.37928834 12.7504158,5.39396616 C12.7337756,5.43870105 12.7162677,5.48329919 12.6979906,5.52749838 C12.6882281,5.55113264 12.6783036,5.57449326 12.6681646,5.59773875 C12.6505166,5.6381671 12.6322862,5.67813444 12.6134236,5.71774273 C12.6044895,5.73653685 12.5952155,5.75562143 12.5857948,5.77462041 C13.204758,5.81242647 13.8146328,5.90408832 14.4061783,6.04651116 C15.0455328,6.20044473 15.4390443,6.8435318 15.2851107,7.48288635 C15.1311771,8.1222409 14.4880901,8.51575236 13.8487355,8.36181879 C13.2151386,8.20927147 12.5505853,8.13146842 11.8732083,8.13146842 C10.7789607,8.13146842 9.72159835,8.33479529 8.78339857,8.72152292 C8.26440982,8.935451 7.79070675,9.20213633 7.37780519,9.51181251 C6.85170571,9.90638711 6.1053519,9.79976514 5.7107773,9.27366567 C5.31620269,8.74756619 5.42282466,8.00121238 5.94892414,7.60663777 C6.14878392,7.45674294 6.35755048,7.31476337 6.57440137,7.18113859 C6.55889336,7.16927567 6.54338209,7.1572648 6.52795851,7.14513959 C6.51715032,7.13638678 6.50642967,7.12785875 6.49575401,7.11927704 C6.35277232,7.00475511 6.21752684,6.88002683 6.09110811,6.7461554 L6.09110811,6.7461554 L6.02707554,6.67618995 C6.02192171,6.67046835 6.01678415,6.66473181 6.01166295,6.65898038 L5.92078881,6.72363591 C5.28660306,7.17937741 4.73684223,7.71003267 4.29111701,8.29708533 L4.29111701,8.29708533 L4.10651862,8.55207824 L3.75422268,9.06304937 L3.13997624,8.97413792 C2.7508533,8.91781283 2.39270356,8.77302932 2.08521149,8.56162761 L2.08521149,8.56162761 L2,8.499 C2,8.96442731 2.2118486,9.39124561 2.56396913,9.67145803 L2.56396913,9.67145803 L2.68643972,9.75928281 L3.26484152,10.1317988 L3.1237091,10.8051475 C3.04159961,11.1968953 3,11.5960246 3,12 C3,13.5440942 3.61104946,15.0165389 4.73266555,16.2302793 L4.73266555,16.2302793 L4.99760048,16.5169747 L5,17.9940809 C5,18.5564039 5.44513339,19 6.0048815,19 L6.0048815,19 L6.9951185,19 C7.23688513,19 7.46084202,18.91672 7.63754012,18.7670063 L7.63754012,18.7670063 L8.05288528,18.4150904 L8.57389268,18.572912 C9.50237075,18.8541631 10.4883824,19 11.5,19 C12.5104719,19 13.4955729,18.8544913 14.4226142,18.5740405 L14.4226142,18.5740405 L14.9409852,18.4172217 L15.3555755,18.7656688 C15.5349427,18.91642 15.7611685,19 16.0048815,19 L16.0048815,19 L16.9951185,19 C17.552129,19 18,18.5513227 18,17.9924556 L18,17.9924556 L18.0023995,16.5169747 L18.2673345,16.2302793 C18.73861,15.7202954 19.1224976,15.1608223 19.4077435,14.5676469 L19.4077435,14.5676469 L19.6797717,14.0019582 L20.9951185,14 C21.552245,14 22,13.5516709 22,12.9951185 L22,12.9951185 L22,12.0048815 C22,11.447755 21.5516709,11 20.997414,10.9999974 L20.997414,10.9999974 L19.9613314,11.0023757 L19.7445565,10.2928717 C19.5094189,9.52326653 19.1152682,8.79289337 18.5797755,8.13083918 L18.5797755,8.13083918 L18.3057433,7.79204056 L18.701,5.016 Z M16,10 C16.5522847,10 17,10.4477153 17,11 C17,11.5522847 16.5522847,12 16,12 C15.4477153,12 15,11.5522847 15,11 C15,10.4477153 15.4477153,10 16,10 Z M9,2 C7.8954305,2 7,2.8954305 7,4 C7,4.33177251 7.08078423,4.64467686 7.22375536,4.9201157 C7.23545765,4.94335342 7.24795277,4.96629505 7.26085829,4.98893507 L7.22375536,4.9201157 C7.2460051,4.9629806 7.26976094,5.00493814 7.29495278,5.0459182 L7.26085829,4.98893507 C7.2851592,5.03156588 7.31091525,5.07312728 7.33804947,5.1135639 L7.29495278,5.0459182 C7.32277076,5.09117027 7.35233974,5.13523046 7.38356534,5.17800438 L7.33804947,5.1135639 C7.36562416,5.15465692 7.39462211,5.19458835 7.42496254,5.23330004 L7.38356534,5.17800438 C7.41380277,5.21942468 7.44559363,5.25963883 7.47885221,5.29856115 L7.42496254,5.23330004 C7.45660864,5.27367766 7.48971524,5.31272831 7.52419066,5.35038604 L7.47885221,5.29856115 C7.51031348,5.33538008 7.54308813,5.37104302 7.57710362,5.40547744 L7.52419066,5.35038604 C7.5902173,5.42250737 7.66126463,5.48951957 7.7366886,5.55095929 C7.7728588,5.58007666 7.80990204,5.60820854 7.847923,5.63504772 C7.87271796,5.65277137 7.89797172,5.66972161 7.92360384,5.68609079 L7.847923,5.63504772 C7.8875565,5.6630252 7.92825242,5.689598 7.96993831,5.71469367 L7.92360384,5.68609079 C7.96429841,5.71207914 8.00594666,5.73660284 8.04846971,5.75960514 L7.96993831,5.71469367 C8.01484788,5.74173005 8.06090646,5.76705202 8.10802346,5.79056898 L8.04846971,5.75960514 C8.09556331,5.78507983 8.14372987,5.80868849 8.19286225,5.83035405 L8.10802346,5.79056898 C8.15082706,5.81193304 8.19450416,5.83180746 8.23898685,5.85012431 L8.19286225,5.83035405 C8.24115191,5.851648 8.29037454,5.87106494 8.34042841,5.88853166 L8.23898685,5.85012431 C8.28414672,5.86872001 8.33013689,5.88571037 8.37688631,5.90102432 L8.34042841,5.88853166 C8.38862856,5.90535152 8.43759952,5.92036295 8.48725046,5.93350061 L8.37688631,5.90102432 C8.42810738,5.91780307 8.48023989,5.93256938 8.53319036,5.94522978 L8.48725046,5.93350061 C8.53429454,5.94594849 8.58194908,5.95671419 8.63013679,5.96574212 L8.53319036,5.94522978 C8.58350571,5.95726012 8.63455964,5.96738894 8.68627195,5.97553604 L8.63013679,5.96574212 C8.68248473,5.97554947 8.7354619,5.98330604 8.78896923,5.98894058 L8.68627195,5.97553604 C8.73842724,5.98375293 8.79125224,5.989954 8.84466468,5.99405699 L9,6 C9.10961967,6 9.2171844,5.99117882 9.32202194,5.97420706 C9.39631149,5.9621956 9.46945152,5.94602501 9.54097108,5.92597787 C9.74610827,5.86849396 9.93816366,5.77896862 10.1111538,5.66316992 C10.1632486,5.62833625 10.2141598,5.59066345 10.2631428,5.55071603 C10.5830805,5.28976279 10.8207122,4.93192374 10.9312386,4.52190054 C10.9511098,4.44814549 10.9669075,4.37256093 10.9783149,4.29554534 L10.9939892,4.1562911 L10.9939892,4.1562911 L10.9999865,4.00747134 L10.9998808,3.9779367 C10.9880516,2.88353122 10.0972057,2 9,2 Z" transform="translate(0 1.5)"></path></svg>