<svg xmlns:xlink="http://www.w3.org/1999/xlink" xmlns="http://www.w3.org/2000/svg" viewBox="0 0 24 24" width="24" height="24"><g fill="none" fill-rule="evenodd" stroke-linecap="round" stroke-linejoin="round"><path stroke="#3D474D" stroke-width="2px" d="M14.8578644,0.949747468 C17.6192881,0.949747468 19.8578644,3.18832372 19.8578644,5.94974747 C19.8578644,6.41410267 19.794564,6.86367328 19.6761215,7.29030097 C21.5382072,8.01756165 22.8578644,9.82954333 22.8578644,11.9497475 C22.8578644,14.7111712 20.6192881,16.9497475 17.8578644,16.9497475 L17.8578644,16.9497475 L5.85786438,16.9497475 C3.09644063,16.9497475 0.857864376,14.7111712 0.857864376,11.9497475 C0.857864376,9.18832372 3.09644063,6.94974747 5.85786438,6.94974747 C5.86997588,6.94974747 5.88207733,6.94979053 5.89416858,6.94987651 C5.87004674,6.78777465 5.85786438,6.62018373 5.85786438,6.44974747 C5.85786438,4.51675084 7.42486775,2.94974747 9.35786438,2.94974747 C9.82433003,2.94974747 10.2694824,3.04100045 10.6764438,3.20662876 C11.5701279,1.84746283 13.1091598,0.949747468 14.8578644,0.949747468 Z" transform="translate(.142 3.05)" fill="none"></path></g></svg>