<svg xmlns:xlink="http://www.w3.org/1999/xlink" xmlns="http://www.w3.org/2000/svg" viewBox="0 0 24 24" width="24" height="24"><path fill="#3D474D" fill-rule="evenodd" d="M12,1.5 C16.6944204,1.5 20.5,5.30557963 20.5,10 C20.5,13.1381701 19.170777,15.9940705 16.5004023,17.5914142 L16.5,18 C16.5,20.4852814 14.4852814,22.5 12,22.5 C10.5560667,22.5 9.22459852,21.8140093 8.38183485,20.6759843 C8.05315461,20.2321513 8.14650437,19.6059055 8.59033738,19.2772253 C9.0341704,18.948545 9.66041612,19.0418948 9.98909637,19.4857278 C10.4585984,20.1197193 11.1967011,20.5 12,20.5 C13.3254834,20.5 14.4100387,19.4684641 14.4946823,18.1643759 L14.5,18 L14.4999998,17 C14.4999998,16.9382084 14.5056043,16.8777257 14.5163326,16.8190327 C14.5186934,16.8068972 14.5211911,16.7946538 14.523915,16.7824655 C14.5286248,16.7603897 14.5342512,16.7385897 14.5405806,16.7170909 C14.5449057,16.7033366 14.5493385,16.6894285 14.5540719,16.675623 C14.5602875,16.6566584 14.5672811,16.6381062 14.5748008,16.6198258 C14.581768,16.6034879 14.5891027,16.5868909 14.5968867,16.5704948 C14.6040482,16.5550405 14.6115516,16.5402727 14.6194051,16.5257216 C14.628985,16.5081193 14.6391465,16.4905047 14.6498515,16.4731925 C14.6592586,16.4580339 14.6692863,16.4428176 14.6797105,16.427899 C14.6903981,16.4123771 14.7014188,16.397458 14.7128724,16.3828297 C14.7266452,16.3655845 14.7410866,16.3483971 14.7560809,16.3317168 C14.7642897,16.3221833 14.7730173,16.3128275 14.7819409,16.3036264 C14.7974547,16.2879996 14.8138273,16.272204 14.830722,16.2569764 C14.842587,16.2459653 14.8551836,16.2351796 14.86809,16.2246806 C14.8850363,16.2110932 14.9022173,16.197975 14.9198227,16.1854132 C14.9311765,16.1772611 14.9431396,16.1691378 14.9553227,16.1612476 C14.9783399,16.1462475 15.001736,16.1323508 15.0257211,16.1194054 C15.0347196,16.1147754 15.0437033,16.1101143 15.0527864,16.1055728 C17.3445595,14.9596863 18.5,12.6480033 18.5,10 C18.5,6.41014913 15.5898509,3.5 12,3.5 C8.41014913,3.5 5.5,6.41014913 5.5,10 C5.5,10.5522847 5.05228475,11 4.5,11 C3.94771525,11 3.5,10.5522847 3.5,10 C3.5,5.30557963 7.30557963,1.5 12,1.5 Z M12,5.5 C14.4852814,5.5 16.5,7.51471863 16.5,10 C16.5,11.2088394 16.019799,12.344162 15.1819805,13.1819805 C14.7914562,13.5725048 14.1582912,13.5725048 13.767767,13.1819805 C13.3772427,12.7914562 13.3772427,12.1582912 13.767767,11.767767 C14.2342309,11.301303 14.5,10.6729542 14.5,10 C14.5,8.61928813 13.3807119,7.5 12,7.5 C10.6745166,7.5 9.58996133,8.53153594 9.50531768,9.83562431 L9.5,10 L9.499,11.5 C10.5543618,11.5 11.4181651,12.3158778 11.4945143,13.3507377 L11.5,13.5 C11.5,14.6045695 10.6045695,15.5 9.5,15.5 C9.29061528,15.5 9.08874573,15.4678237 8.89906616,15.408146 C8.81588477,15.539897 8.72519006,15.6631273 8.62914052,15.7746753 L8.49827413,15.9159394 L7.43933983,16.9748737 C7.04881554,17.365398 6.41565056,17.365398 6.02512627,16.9748737 C5.6646423,16.6143898 5.63691277,16.0471587 5.94193766,15.6548675 L6.02512627,15.5606602 L7.08406057,14.5017259 C7.26337493,14.3224115 7.44734279,13.9105341 7.49053296,13.6182299 L7.5,13.5013041 L7.5,10 C7.5,7.51471863 9.51471863,5.5 12,5.5 Z"></path></svg>