<svg xmlns:xlink="http://www.w3.org/1999/xlink" xmlns="http://www.w3.org/2000/svg" viewBox="0 0 24 24" width="24" height="24"><path fill="#3D474D" fill-rule="evenodd" d="M11.1715729,1 C11.7020059,1 12.2107137,1.21071368 12.5857864,1.58578644 L15,4 L15.1715729,4 C15.7020059,4 16.2107137,4.21071368 16.5857864,4.58578644 L21.4142136,9.41421356 C21.7892863,9.78928632 22,10.2979941 22,10.8284271 L22,20 C22,21.6568542 20.6568542,23 19,23 L9,23 C7.34314575,23 6,21.6568542 6,20 L5,20 C3.34314575,20 2,18.6568542 2,17 L2,4 C2,2.34314575 3.34314575,1 5,1 L11.1715729,1 Z M15,6 L9,6 C8.44771525,6 8,6.44771525 8,7 L8,20 C8,20.5522847 8.44771525,21 9,21 L19,21 C19.5522847,21 20,20.5522847 20,20 L20,11 C20,10.4477153 19.5522847,10 19,10 L17,10 C16.4477153,10 16,9.55228475 16,9 L16,7 C16,6.44771525 15.5522847,6 15,6 Z M11,3 L5,3 C4.44771525,3 4,3.44771525 4,4 L4,17 C4,17.5522847 4.44771525,18 5,18 L6,17.999 L6,7 C6,5.34314575 7.34314575,4 9,4 L12,4 L12,4 C12,3.44771525 11.5522847,3 11,3 Z"></path></svg>