<svg xmlns:xlink="http://www.w3.org/1999/xlink" xmlns="http://www.w3.org/2000/svg" viewBox="0 0 24 24" width="24" height="24"><path fill="#3D474D" fill-rule="evenodd" d="M14,-5.24025268e-14 C14.5522847,-5.24025268e-14 15,0.44771525 15,1 C15,1.55228475 14.5522847,2 14,2 C13.9105094,2 13.8237644,1.98824479 13.7412249,1.96619426 L12.4454251,3.26180468 C12.7513904,3.69148514 12.9469405,4.20524471 12.9906723,4.76168022 C13.8246823,5.2111113 14.5669048,5.84424436 15.1788668,6.61362591 C15.6393188,6.27897787 15.950108,5.75115913 15.9945143,5.14926234 L16,5 C16,4.44771525 16.4477153,4 17,4 C17.5522847,4 18,4.44771525 18,5 C18,6.38753679 17.293512,7.61006447 16.2206331,8.32748585 C16.5473692,9.04853507 16.7805683,9.83465249 16.9025017,10.6623565 C17.8541144,10.8194488 18.7521099,11.3218961 19.3935191,12.1428624 C19.7335395,12.5780688 19.6563761,13.2065142 19.2211698,13.5465347 C18.8194409,13.8603997 18.2530585,13.8187945 17.9008646,13.4682349 L17.8174976,13.3741854 L17.7212797,13.2599424 C17.5079882,13.0248754 17.2492508,12.8513161 16.9690476,12.7422091 C16.885635,13.7836864 16.6262724,14.7755603 16.2205412,15.6739023 C17.2932123,16.3894171 18,17.612169 18,19 C18,19.5522847 17.5522847,20 17,20 C16.4871642,20 16.0644928,19.6139598 16.0067277,19.1166211 L16,19 L15.9945143,18.8507377 C15.9500965,18.2486858 15.6391586,17.7207501 15.1792325,17.3844626 C14.447235,18.3077823 13.5216926,19.0392072 12.4574202,19.4941739 C12.0769753,19.6568107 11.6836118,19.7815802 11.2810259,19.8665088 C10.8077355,19.966353 10.4540674,19.7580716 10.2357083,19.4606811 C10.1561346,19.3523071 10.1069627,19.2486443 10.0660657,19.1329989 L10.0660657,19.1329989 L10.079,19.167 L10.0440169,19.2653722 L10.0215933,19.3150694 L9.96720179,19.4154605 C9.7671333,19.7461561 9.43341246,19.9972872 8.90744984,19.9032328 C8.47569331,19.8260247 8.05357932,19.703241 7.64557061,19.5371476 C6.53835694,19.08642 5.5763423,18.3376368 4.8194413,17.3854006 C4.36099916,17.7204823 4.04991475,18.248533 4.00548574,18.8507377 L4,19 C4,19.5522847 3.55228475,20 3,20 C2.44771525,20 2,19.5522847 2,19 C2,17.6124632 2.70648803,16.3899355 3.77936694,15.6725142 C3.37372681,14.7753605 3.11431717,13.7835431 3.03003228,12.7437346 C2.75074915,12.8513161 2.49201178,13.0248754 2.2787203,13.2599424 L2.18250241,13.3741854 C1.84248197,13.8093917 1.2140365,13.8865551 0.778830181,13.5465347 C0.343623859,13.2065142 0.266460459,12.5780688 0.606480903,12.1428624 C1.24768775,11.3221551 2.1453189,10.8197659 3.0974895,10.6604831 C3.21943171,9.83465249 3.45263084,9.04853507 3.77951113,8.32579895 C2.70648803,7.61006447 2,6.38753679 2,5 C2,4.44771525 2.44771525,4 3,4 C3.51283584,4 3.93550716,4.38604019 3.99327227,4.88337887 L4,5 L4.00548574,5.14926234 C4.04989204,5.75115913 4.36068119,6.27897787 4.82041215,6.61527752 C5.43269148,5.84448874 6.17555143,5.21079706 7.01125323,4.76023353 C7.05329573,4.20462426 7.2487944,3.69122567 7.55457487,3.26180468 L6.25877513,1.96619426 C6.17623559,1.98824479 6.08949058,2 6,2 C5.44771525,2 5,1.55228475 5,1 C5,0.44771525 5.44771525,-5.24025268e-14 6,-5.24025268e-14 C6.55228475,-5.24025268e-14 7,0.44771525 7,1 C7,1.08949058 6.98824479,1.17623559 6.96619426,1.25877513 L8.26180468,2.55457487 C8.75220086,2.20537542 9.35211643,2 10,2 C10.6478836,2 11.2477991,2.20537542 11.7381953,2.55457487 L13.0338057,1.25877513 C13.0117552,1.17623559 13,1.08949058 13,1 C13,0.44771525 13.4477153,-5.24025268e-14 14,-5.24025268e-14 Z M10,6 C7.27572854,6 5,8.65501663 5,12 C5,14.6079114 6.40143495,16.8713145 8.39964864,17.6847529 L8.2944472,17.638 L8.3350525,17.2083284 L8.40700582,16.2995149 L8.67393258,12.498112 L8.73616809,11.7105848 L8.83466707,10.6886257 L8.87558937,10.3643 L8.92264049,10.0727543 C8.94087353,9.9764629 8.96044913,9.89214469 8.98308908,9.81581231 C9.01307945,9.71469736 9.04854187,9.62358103 9.10387158,9.52730622 C9.27418991,9.23094889 9.5355779,9 10,9 C10.4149751,9 10.6834617,9.2010793 10.8619471,9.46435724 C10.930017,9.56476489 10.9747339,9.66217433 11.0123251,9.76963874 C11.0547058,9.89079543 11.0879479,10.0287763 11.1196149,10.1982215 C11.1359853,10.2858167 11.1522091,10.3839003 11.1684235,10.4928903 L11.1684235,10.4928903 L11.2171759,10.8529978 L11.2810237,11.4150345 L11.3521546,12.1397176 L11.601596,15.1430902 L11.7578442,16.9546116 L11.823,17.585 L11.8721438,17.5634069 C13.6603644,16.6933452 14.9083014,14.6395343 14.9951588,12.2651015 L14.9951588,12.2651015 L15,12 C15,8.65501663 12.7242715,6 10,6 Z" transform="translate(2 2)"></path></svg>