<svg xmlns:xlink="http://www.w3.org/1999/xlink" xmlns="http://www.w3.org/2000/svg" viewBox="0 0 24 24" width="24" height="24"><path fill="#3D474D" fill-rule="evenodd" d="M13.6576708,2 C14.9385817,2 16.0665449,2.81116662 16.4861489,3.99984762 L16.590287,4 C18.8190838,4 19.6272994,4.23206403 20.4421143,4.66783176 C21.2569291,5.10359949 21.8964005,5.74307093 22.3321682,6.55788574 C22.767936,7.37270056 23,8.18091615 23,10.409713 L23,15.590287 C23,17.8190838 22.767936,18.6272994 22.3321682,19.4421143 C21.8964005,20.2569291 21.2569291,20.8964005 20.4421143,21.3321682 C19.6272994,21.767936 18.8190838,22 16.590287,22 L7.409713,22 C5.18091615,22 4.37270056,21.767936 3.55788574,21.3321682 C2.74307093,20.8964005 2.10359949,20.2569291 1.66783176,19.4421143 C1.23206403,18.6272994 1,17.8190838 1,15.590287 L1,10.409713 C1,8.18091615 1.23206403,7.37270056 1.66783176,6.55788574 C2.10359949,5.74307093 2.74307093,5.10359949 3.55788574,4.66783176 C4.37270056,4.23206403 5.18091615,4 7.409713,4 L7.5142035,3.99884994 C7.9340863,2.81071275 9.06177669,2 10.3423292,2 L13.6576708,2 Z M17.1541722,6 L6.8458278,6 C5.50854969,6 5.02362033,6.13923842 4.53473144,6.40069906 C4.04584256,6.66215969 3.66215969,7.04584256 3.40069906,7.53473144 C3.13923842,8.02362033 3,8.50854969 3,9.8458278 L3,9.8458278 L3,16.1541722 C3,17.4914503 3.13923842,17.9763797 3.40069906,18.4652686 C3.66215969,18.9541574 4.04584256,19.3378403 4.53473144,19.5993009 C5.02362033,19.8607616 5.50854969,20 6.8458278,20 L6.8458278,20 L17.1541722,20 C18.4914503,20 18.9763797,19.8607616 19.4652686,19.5993009 C19.9541574,19.3378403 20.3378403,18.9541574 20.5993009,18.4652686 C20.8607616,17.9763797 21,17.4914503 21,16.1541722 L21,16.1541722 L21,9.8458278 C21,8.50854969 20.8607616,8.02362033 20.5993009,7.53473144 C20.3378403,7.04584256 19.9541574,6.66215969 19.4652686,6.40069906 C18.9763797,6.13923842 18.4914503,6 17.1541722,6 L17.1541722,6 Z M12,8 C14.7614237,8 17,10.2385763 17,13 C17,15.7614237 14.7614237,18 12,18 C9.23857625,18 7,15.7614237 7,13 C7,10.2385763 9.23857625,8 12,8 Z M12,10 C10.3431458,10 9,11.3431458 9,13 C9,14.6568542 10.3431458,16 12,16 C13.6568542,16 15,14.6568542 15,13 C15,11.3431458 13.6568542,10 12,10 Z M18,8 C18.5522847,8 19,8.44771525 19,9 C19,9.55228475 18.5522847,10 18,10 C17.4477153,10 17,9.55228475 17,9 C17,8.44771525 17.4477153,8 18,8 Z"></path></svg>