<svg xmlns:xlink="http://www.w3.org/1999/xlink" xmlns="http://www.w3.org/2000/svg" viewBox="0 0 24 24" width="24" height="24"><path fill="#3D474D" d="M16.9998741,0.454541534 C18.6567283,0.454541534 19.9998741,1.79768728 19.9998741,3.45445302 L19.9998741,3.45445302 L20.0001259,6.30021515 L19.2366377,6.4861197 C18.5556663,6.6519319 17.9998741,7.45879576 17.9998741,8.45454153 C17.9998741,9.4502873 18.5556663,10.2571512 19.2366377,10.4229634 L19.2366377,10.4229634 L20.0001259,10.6088679 L19.9998741,13.4545415 C19.9998741,15.1113958 18.6567283,16.4545415 16.9998741,16.4545415 L16.9998741,16.4545415 L2.99987405,16.4545415 C1.3430198,16.4545415 -0.000125946548,15.1113958 -0.000125946548,13.4544594 L-0.000125946548,13.4544594 L0.000107650958,10.6088872 L0.76329661,10.422918 C1.44419172,10.2570017 1.99987405,9.45018448 1.99987405,8.45454153 C1.99987405,7.45889858 1.44419172,6.65208138 0.76329661,6.48616505 L0.76329661,6.48616505 L0.000107650958,6.30019586 L-0.000125946548,3.45454153 C-0.000125946548,1.79768728 1.3430198,0.454541534 2.99987405,0.454541534 L2.99987405,0.454541534 Z M16.9998741,2.45454153 L13.4988741,2.45454153 L13.4998741,2.65454158 C13.4998741,2.90000147 13.3229989,3.10414995 13.0897497,3.14648591 L12.9998741,3.15454158 C12.7237317,3.15454158 12.4998741,2.93068396 12.4998741,2.65454158 L12.4998741,2.65454158 L12.4988741,2.45454153 L2.99987405,2.45454153 C2.48703821,2.45454153 2.06436689,2.84058172 2.00660178,3.33785468 L1.99987405,3.45445944 L1.99987405,4.83754153 L2.08763641,4.88555848 C3.19564826,5.52644595 3.93071352,6.80690983 3.99524836,8.24767866 L3.99524836,8.24767866 L3.99987405,8.45454153 C3.99987405,9.97877401 3.24841073,11.3521187 2.08763641,12.0235246 L2.08763641,12.0235246 L1.99987405,12.0705415 L1.99987405,13.4545415 C1.99987405,13.9673774 2.38591424,14.3900487 2.88325293,14.4478138 L2.88325293,14.4478138 L2.99987405,14.4545415 L12.4988741,14.4545415 L12.4998741,14.2545417 C12.4998741,14.0090818 12.6767492,13.8049334 12.9099984,13.7625974 L12.9998741,13.7545417 C13.2760164,13.7545417 13.4998741,13.9783994 13.4998741,14.2545417 L13.4998741,14.2545417 L13.4988741,14.4545415 L16.9998741,14.4545415 C17.5127099,14.4545415 17.9353812,14.0685013 17.9931463,13.5710918 L17.9998741,13.454453 L17.9998741,12.0715415 L17.9124861,12.0237421 C16.8042799,11.3829344 16.0690502,10.1023582 16.0045008,8.66142781 L16.0045008,8.66142781 L15.9998741,8.45454153 C15.9998741,6.93013526 16.7515081,5.55666328 17.9124861,4.88534098 L17.9124861,4.88534098 L17.9998741,4.83654153 L17.9998741,3.45454153 C17.9998741,2.9417057 17.6138339,2.51903437 17.1164952,2.46126927 L17.1164952,2.46126927 L16.9998741,2.45454153 Z M12.9998741,10.5545417 C13.2760164,10.5545417 13.4998741,10.7783993 13.4998741,11.0545417 L13.4998741,11.0545417 L13.4998741,12.2545417 C13.4998741,12.5306841 13.2760164,12.7545417 12.9998741,12.7545417 C12.7237317,12.7545417 12.4998741,12.5306841 12.4998741,12.2545417 L12.4998741,12.2545417 L12.4998741,11.0545417 C12.4998741,10.7783993 12.7237317,10.5545417 12.9998741,10.5545417 Z M12.9998741,7.35454163 C13.2760164,7.35454163 13.4998741,7.57839925 13.4998741,7.85454163 L13.4998741,7.85454163 L13.4998741,9.05454168 C13.4998741,9.33068405 13.2760164,9.55454168 12.9998741,9.55454168 C12.7237317,9.55454168 12.4998741,9.33068405 12.4998741,9.05454168 L12.4998741,9.05454168 L12.4998741,7.85454163 C12.4998741,7.57839925 12.7237317,7.35454163 12.9998741,7.35454163 Z M12.9998741,4.15454158 C13.2760164,4.15454158 13.4998741,4.37839921 13.4998741,4.65454158 L13.4998741,4.65454158 L13.4998741,5.85454163 C13.4998741,6.130684 13.2760164,6.35454163 12.9998741,6.35454163 C12.7237317,6.35454163 12.4998741,6.130684 12.4998741,5.85454163 L12.4998741,5.85454163 L12.4998741,4.65454158 C12.4998741,4.37839921 12.7237317,4.15454158 12.9998741,4.15454158 Z" transform="rotate(-45 15.157 7.864)"></path></svg>