<svg xmlns:xlink="http://www.w3.org/1999/xlink" xmlns="http://www.w3.org/2000/svg" viewBox="0 0 24 24" width="24" height="24"><path fill="#3D474D" d="M14.8592527,2.5002212 C17.7985949,4.70597215 19.5671516,8.18440698 19.5671516,11.9581025 C19.5671516,15.7317981 17.7985949,19.2102329 14.8592527,21.4159839 C14.4175147,21.7474744 13.7906891,21.6581011 13.4591986,21.2163631 C13.1277081,20.7746251 13.2170814,20.1477995 13.6588194,19.816309 C16.0988131,17.9852808 17.5671516,15.0973214 17.5671516,11.9581025 C17.5671516,8.81888366 16.0988131,5.9309243 13.6588194,4.09989609 C13.2170814,3.76840557 13.1277081,3.14157999 13.4591986,2.69984197 C13.7906891,2.25810394 14.4175147,2.16873068 14.8592527,2.5002212 Z M10.3673683,5.55600139 C12.3574159,7.04937956 13.5547558,9.40433305 13.5547558,11.9581025 C13.5547558,14.511872 12.3574159,16.8668255 10.3673683,18.3602037 C9.9256303,18.6916942 9.29880471,18.6023209 8.9673142,18.1605829 C8.63582368,17.7188449 8.72519694,17.0920193 9.16693497,16.7605288 C10.6576341,15.6418734 11.5547558,13.8773953 11.5547558,11.9581025 C11.5547558,10.0388097 10.6576341,8.2743317 9.16693497,7.15567629 C8.72519694,6.82418577 8.63582368,6.19736019 8.9673142,5.75562216 C9.29880471,5.31388414 9.9256303,5.22451088 10.3673683,5.55600139 Z M5.90027532,8.61178159 C6.94102837,9.39278696 7.56715146,10.6242591 7.56715146,11.9581025 C7.56715146,13.2919459 6.94102837,14.5234181 5.90027532,15.3044235 C5.4585373,15.635914 4.83171171,15.5465407 4.5002212,15.1048027 C4.16873068,14.6630647 4.25810394,14.0362391 4.69984197,13.7047486 C5.24124654,13.298466 5.56715146,12.6574693 5.56715146,11.9581025 C5.56715146,11.2587358 5.24124654,10.6177391 4.69984197,10.2114565 C4.25810394,9.87996597 4.16873068,9.25314038 4.5002212,8.81140236 C4.83171171,8.36966434 5.4585373,8.28029107 5.90027532,8.61178159 Z"></path></svg>