<svg xmlns:xlink="http://www.w3.org/1999/xlink" xmlns="http://www.w3.org/2000/svg" viewBox="0 0 24 24" width="24" height="24"><path fill="#3D474D" fill-rule="evenodd" d="M17.8722296,3 C19.6552671,3 20.3018396,3.18565122 20.9536914,3.53426541 C21.6055433,3.88287959 22.1171204,4.39445674 22.4657346,5.04630859 C22.8143488,5.69816044 23,6.34473292 23,8.1277704 L23,15.8722296 C23,17.6552671 22.8143488,18.3018396 22.4657346,18.9536914 C22.1171204,19.6055433 21.6055433,20.1171204 20.9536914,20.4657346 C20.3018396,20.8143488 19.6552671,21 17.8722296,21 L6.1277704,21 C4.34473292,21 3.69816044,20.8143488 3.04630859,20.4657346 C2.39445674,20.1171204 1.88287959,19.6055433 1.53426541,18.9536914 C1.18565122,18.3018396 1,17.6552671 1,15.8722296 L1,8.1277704 C1,6.34473292 1.18565122,5.69816044 1.53426541,5.04630859 C1.88287959,4.39445674 2.39445674,3.88287959 3.04630859,3.53426541 C3.69816044,3.18565122 4.34473292,3 6.1277704,3 L17.8722296,3 Z M20.954251,6.71651202 L13.3287277,13.4948186 C12.5709556,14.1683938 11.4290444,14.1683938 10.6712723,13.4948186 L10.6712723,13.4948186 L3.04574898,6.71651202 C3.01550787,6.9300263 3,7.19948999 3,7.5638852 L3,7.5638852 L3,16.4361148 C3,17.3276335 3.09282561,17.6509198 3.2671327,17.9768457 C3.4414398,18.3027716 3.69722837,18.5585602 4.0231543,18.7328673 C4.34908022,18.9071744 4.67236646,19 5.5638852,19 L5.5638852,19 L18.4361148,19 C19.3276335,19 19.6509198,18.9071744 19.9768457,18.7328673 C20.3027716,18.5585602 20.5585602,18.3027716 20.7328673,17.9768457 C20.9071744,17.6509198 21,17.3276335 21,16.4361148 L21,16.4361148 L21,7.5638852 C21,7.19948999 20.9844921,6.9300263 20.954251,6.71651202 Z M18.4361148,5 L5.5638852,5 C4.90667587,5 4.55826318,5.05044456 4.28995109,5.14678912 L11.6678181,11.7047272 C11.8572611,11.873121 12.1427389,11.873121 12.3321819,11.7047272 L12.3321819,11.7047272 L19.7100489,5.14678912 C19.4417368,5.05044456 19.0933241,5 18.4361148,5 L18.4361148,5 Z"></path></svg>