<svg xmlns:xlink="http://www.w3.org/1999/xlink" xmlns="http://www.w3.org/2000/svg" viewBox="0 0 24 24" width="24" height="24"><path fill="#3D474D" fill-rule="evenodd" d="M8,2 L8,4 L3.88581016,4 C3.39415359,4 2.98162537,4.3558617 2.90030729,4.82989592 L2.88753579,4.94127798 L2.53110428,11 L4.38196601,11 C5.08539983,11 5.73277232,11.3690449 6.09291461,11.9642645 L6.17082039,12.1055728 L7.61803399,15 L12.381966,15 L13.8291796,12.1055728 C14.1437648,11.4764025 14.7633624,11.0624168 15.4568035,11.0064861 L15.618034,11 L17.4691043,11 L17.1124642,4.94127798 C17.0835931,4.45046982 16.704121,4.05955039 16.2261297,4.00620888 L16.1141898,4 L12,4 L12,2 L16.1141898,2 C17.6437881,2 18.9180915,3.14812994 19.093677,4.64912185 L19.109013,4.82383393 L19.8737188,17.8238339 C19.9675379,19.4187578 18.7974629,20.7958233 17.2307313,20.9793881 L17.0550618,20.9948231 L16.8788957,21 L3.12110428,21 C1.46425003,21 0.121104278,19.6568542 0.121104278,18 L0.122398778,17.9118789 L0.126281159,17.8238339 L0.890987041,4.82383393 C0.980808142,3.29687523 2.20178651,2.09219126 3.71049901,2.00505 L3.88581016,2 L8,2 Z M4.38196601,13 L2.41310428,13 L2.12153578,17.9706263 L2.12783201,18.1166211 C2.18115365,18.575703 2.54540129,18.9399506 3.00448315,18.9932723 L3.12110428,19 L16.8788957,19 L16.9376177,18.9982744 C17.4495686,18.9681596 17.8488415,18.5579655 17.8773022,18.0580929 L17.8771701,17.941278 L17.5861043,13 L15.618034,13 L14.1708204,15.8944272 C13.8562352,16.5235975 13.2366376,16.9375832 12.5431965,16.9935139 L12.381966,17 L7.61803399,17 C6.91460017,17 6.26722768,16.6309551 5.90708539,16.0357355 L5.82917961,15.8944272 L4.38196601,13 Z M10,-1.10134124e-13 C10.5128358,-1.10134124e-13 10.9355072,0.38604019 10.9932723,0.883378875 L11,1 L11,8.584 L12.2928932,7.29289322 C12.6533772,6.93240926 13.2206082,6.90467972 13.6128994,7.20970461 L13.7071068,7.29289322 C14.0675907,7.65337718 14.0953203,8.22060824 13.7902954,8.61289944 L13.7071068,8.70710678 L10,12.4142136 L9.29954459,11.7136966 L6.29289322,8.70710678 C5.90236893,8.31658249 5.90236893,7.68341751 6.29289322,7.29289322 C6.65337718,6.93240926 7.22060824,6.90467972 7.61289944,7.20970461 L7.70710678,7.29289322 L9,8.584 L9,1 C9,0.44771525 9.44771525,-1.10134124e-13 10,-1.10134124e-13 Z" transform="translate(2 1)"></path></svg>