<svg xmlns:xlink="http://www.w3.org/1999/xlink" xmlns="http://www.w3.org/2000/svg" viewBox="0 0 24 24" width="24" height="24"><path fill="#3D474D" fill-rule="evenodd" d="M5,15 C6.1045695,15 7,15.8954305 7,17 C7,18.1045695 6.1045695,19 5,19 C3.8954305,19 3,18.1045695 3,17 C3,15.8954305 3.8954305,15 5,15 Z M21,16 C21.5522847,16 22,16.4477153 22,17 C22,17.5522847 21.5522847,18 21,18 L10,18 C9.44771525,18 9,17.5522847 9,17 C9,16.4477153 9.44771525,16 10,16 L21,16 Z M5,5 C6.1045695,5 7,5.8954305 7,7 C7,8.1045695 6.1045695,9 5,9 C3.8954305,9 3,8.1045695 3,7 C3,5.8954305 3.8954305,5 5,5 Z M21,6 C21.5522847,6 22,6.44771525 22,7 C22,7.55228475 21.5522847,8 21,8 L10,8 C9.44771525,8 9,7.55228475 9,7 C9,6.44771525 9.44771525,6 10,6 L21,6 Z"></path></svg>