<svg xmlns:xlink="http://www.w3.org/1999/xlink" viewBox="0 0 24 24" width="24" height="24" fill="none" xmlns="http://www.w3.org/2000/svg"><path d="M12 10a3 3 0 1 0 0-6 3 3 0 0 0 0 6ZM5 11a2 2 0 1 0 0-4 2 2 0 0 0 0 4ZM19 11a2 2 0 1 0 0-4 2 2 0 0 0 0 4Z" stroke="#3D474D" stroke-width="2px" stroke-linejoin="round" fill="none"></path><path clip-rule="evenodd" d="M19 14c3.769 0 4.698 4 3.523 4H18.4c.676 1.569.504 3-.4 3H6c-.904 0-1.076-1.431-.4-3H1.477C.302 18 1.23 14 5 14c1.34 0 2.322.506 2.977 1.158C9.01 14.466 10.344 14 12 14c1.656 0 2.99.466 4.023 1.157C16.678 14.507 17.66 14 19 14Z" stroke="#3D474D" stroke-width="2px" stroke-linejoin="round" fill="none"></path><path clip-rule="evenodd" d="M18 21c2 0 .418-7-6-7s-8 7-6 7h12Z" stroke="#3D474D" stroke-width="2px" stroke-linejoin="round" fill="none"></path></svg>