<svg xmlns:xlink="http://www.w3.org/1999/xlink" xmlns="http://www.w3.org/2000/svg" viewBox="0 0 24 24" width="24" height="24"><g fill="none" fill-rule="evenodd"><g fill="#3D474D" transform="translate(3.5 2.5)"><path fill-rule="nonzero" d="M6.79404522,10.6711032 C6.97568989,10.0050728 7.66286633,9.61240056 8.32889676,9.79404522 C8.99492719,9.97568989 9.38759944,10.6628663 9.20595478,11.3288968 L9.20595478,11.3288968 L7.70595478,16.8288968 C7.59245029,17.2450799 7.27237522,17.5733257 6.85918486,17.6972829 L6.85918486,17.6972829 L1.85918486,19.1972829 C1.19794379,19.3956552 0.501089462,19.0204259 0.302717143,18.3591849 C0.104344825,17.6979438 0.47957408,17.0010895 1.14081514,16.8027171 L1.14081514,16.8027171 L5.5213475,15.4885574 Z M8.69125683,4.63223983 C9.30872995,4.32350327 10.0595712,4.5737837 10.3683078,5.19125683 L10.3683078,5.19125683 L12.0146213,8.48388378 L14.2502738,8.50027382 C14.9406298,8.50027382 15.5002738,9.05991788 15.5002738,9.75027382 C15.5002738,10.4406298 14.9406298,11.0002738 14.2502738,11.0002738 L14.2502738,11.0002738 L11.2502738,11.0002738 C10.7768087,11.0002738 10.3439798,10.7327709 10.1322398,10.3092908 L10.1322398,10.3092908 L8.13223983,6.30929082 C7.82350327,5.69181769 8.0737837,4.94097639 8.69125683,4.63223983 Z" fill="#3D474D"></path><circle cx="11" cy="2" r="2" fill="#3D474D"></circle><path fill-rule="nonzero" d="M6.29856872,7.58492781 L7.75015842,7.21060133 L6.80725602,10.7464853 C6.3524498,12.4520087 7.32477148,14.2592062 9.00007811,14.8176417 L11.1059406,15.5069662 L12.881966,19.059017 C13.1907026,19.6764901 13.9415439,19.9267705 14.559017,19.618034 C15.1764901,19.3092974 15.4267705,18.5584561 15.118034,17.940983 L13.118034,13.940983 C12.9697735,13.644462 12.7097928,13.4189819 12.3952847,13.3141459 L9.79064752,12.4459335 C9.3695567,12.3055699 9.10833428,11.820051 9.22284337,11.390642 L10.4504231,6.78721814 C10.8399006,5.32667744 9.68716553,4.16473811 8.22854205,4.52939398 L5.19683047,5.28732187 C4.89515733,5.36274016 4.63242535,5.54789243 4.45993713,5.80662475 L2.45993713,8.80662475 C2.07699656,9.38103562 2.23221389,10.1571223 2.80662475,10.5400629 C3.38103562,10.9230034 4.15712229,10.7677861 4.54006287,10.1933752 L6.29856872,7.58492781 Z" fill="#3D474D"></path></g></g></svg>