<svg xmlns:xlink="http://www.w3.org/1999/xlink" xmlns="http://www.w3.org/2000/svg" viewBox="0 0 24 24" width="24" height="24"><path fill="#3D474D" fill-rule="evenodd" d="M14.0264018,1 C17.1467174,1 18.2782192,1.32488964 19.41896,1.93496446 C20.5597007,2.54503929 21.4549607,3.4402993 22.0650355,4.58104004 C22.6751104,5.72178078 23,6.85328261 23,9.9735982 L23,14.0264018 C23,17.1467174 22.6751104,18.2782192 22.0650355,19.41896 C21.4549607,20.5597007 20.5597007,21.4549607 19.41896,22.0650355 C18.2782192,22.6751104 17.1467174,23 14.0264018,23 L9.9735982,23 C6.85328261,23 5.72178078,22.6751104 4.58104004,22.0650355 C3.4402993,21.4549607 2.54503929,20.5597007 1.93496446,19.41896 C1.32488964,18.2782192 1,17.1467174 1,14.0264018 L1,9.9735982 C1,6.85328261 1.32488964,5.72178078 1.93496446,4.58104004 C2.54503929,3.4402993 3.4402993,2.54503929 4.58104004,1.93496446 C5.72178078,1.32488964 6.85328261,1 9.9735982,1 L14.0264018,1 Z M9.409713,3 C7.18091615,3 6.37270056,3.23206403 5.55788574,3.66783176 C4.74307093,4.10359949 4.10359949,4.74307093 3.66783176,5.55788574 C3.23206403,6.37270056 3,7.18091615 3,9.409713 L3,9.409713 L3,14.590287 C3,16.8190838 3.23206403,17.6272994 3.66783176,18.4421143 C4.10359949,19.2569291 4.74307093,19.8964005 5.55788574,20.3321682 C6.37270056,20.767936 7.18091615,21 9.409713,21 L9.409713,21 L14.590287,21 C16.8190838,21 17.6272994,20.767936 18.4421143,20.3321682 C19.2569291,19.8964005 19.8964005,19.2569291 20.3321682,18.4421143 C20.767936,17.6272994 21,16.8190838 21,14.590287 L21,14.590287 L21,9.409713 C21,7.18091615 20.767936,6.37270056 20.3321682,5.55788574 C19.8964005,4.74307093 19.2569291,4.10359949 18.4421143,3.66783176 C17.6272994,3.23206403 16.8190838,3 14.590287,3 L14.590287,3 Z M13.437833,9.0256552 L16.309,13.9986552 L18,14 C18.5522847,14 19,14.4477152 19,15 C19,15.5522847 18.5522847,16 18,16 L17.464,15.9996552 L17.8660254,16.6961524 C18.1421678,17.174445 17.9782926,17.7860354 17.5,18.0621778 C17.0558711,18.3185957 16.4968069,18.1956108 16.1981115,17.7937854 L16.1339746,17.6961524 L12.282833,11.0256552 L13.437833,9.0256552 Z M8.55683302,16.4996552 L7.8660254,17.6961524 C7.58988303,18.174445 6.97829262,18.3383202 6.5,18.0621778 C6.02170738,17.7860354 5.85783222,17.174445 6.1339746,16.6961524 L6.24683302,16.4996552 L8.55683302,16.4996552 Z M14,5.07179677 C14.4782926,5.34793914 14.6421678,5.95952955 14.3660254,6.43782217 L9.999,13.9986552 L13.366,13.9996552 L14.521,15.9996552 L6,16 C5.44771525,16 5,15.5522847 5,15 C5,14.4477152 5.44771525,14 6,14 L7.69,13.9996552 L10.844,8.5356552 L9.6339746,6.43782217 C9.37755668,5.99369331 9.50054163,5.43462911 9.90236701,5.13593372 L10,5.07179677 C10.4441289,4.81537885 11.0031931,4.9383638 11.3018885,5.34018918 L11.3660254,5.43782217 L11.999,6.5346552 L12.6339746,5.43782217 C12.910117,4.95952955 13.5217074,4.79565439 14,5.07179677 Z"></path></svg>