<svg xmlns:xlink="http://www.w3.org/1999/xlink" xmlns="http://www.w3.org/2000/svg" viewBox="0 0 24 24" width="24" height="24"><g fill="none" fill-rule="evenodd"><rect width="18" height="8" x="3" y="13" stroke="#3D474D" stroke-width="2px" rx="1" fill="none"></rect><g fill="none"><g transform="translate(.142 1.05)" fill="none"><rect width="20" height="4" x="1.858" y="7.95" stroke="#3D474D" stroke-width="2px" rx="1" transform="matrix(1 0 0 -1 0 19.9)" fill="none"></rect><rect width="4" height="12" x="9.858" y="7.95" stroke="#3D474D" stroke-width="2px" fill="none"></rect><path stroke="#3D474D" stroke-width="2px" d="M15.3578644,1.94974747 C16.0482203,1.94974747 16.6732203,2.2295695 17.1256313,2.68198052 C17.5780423,3.13439153 17.8578644,3.75939153 17.8578644,4.44974747 C17.8578644,5.14010341 17.5780423,5.76510341 17.1256313,6.21751442 C16.6732203,6.66992544 16.0482203,6.94974747 15.3578644,6.94974747 L15.3578644,6.94974747 L12.8578644,6.94974747 L12.8578644,4.44974747 C12.8578644,3.75939153 13.1376864,3.13439153 13.5900974,2.68198052 C14.0425084,2.2295695 14.6675084,1.94974747 15.3578644,1.94974747 Z" fill="none"></path><path stroke="#3D474D" stroke-width="2px" d="M8.35786438,1.94974747 C9.04822031,1.94974747 9.67322031,2.2295695 10.1256313,2.68198052 C10.5780423,3.13439153 10.8578644,3.75939153 10.8578644,4.44974747 C10.8578644,5.14010341 10.5780423,5.76510341 10.1256313,6.21751442 C9.67322031,6.66992544 9.04822031,6.94974747 8.35786438,6.94974747 L8.35786438,6.94974747 L5.85786438,6.94974747 L5.85786438,4.44974747 C5.85786438,3.75939153 6.13768641,3.13439153 6.59009742,2.68198052 C7.04250844,2.2295695 7.66750844,1.94974747 8.35786438,1.94974747 Z" transform="matrix(-1 0 0 1 16.716 0)" fill="none"></path></g></g></g></svg>