<svg xmlns:xlink="http://www.w3.org/1999/xlink" xmlns="http://www.w3.org/2000/svg" viewBox="0 0 24 24" width="24" height="24"><path fill="#FFFFFF" fill-rule="evenodd" d="M12.5,17 C12.7761424,17 13,17.2238576 13,17.5 L13,19.801961 C13,19.9336649 12.9869906,20.0650469 12.9611614,20.1941932 L12.4902903,22.5485483 C12.4361344,22.8193282 12.1727218,22.9949366 11.9019419,22.9407806 C11.7040113,22.9011945 11.5492958,22.7464789 11.5097097,22.5485483 L11.0388386,20.1941932 C11.0130094,20.0650469 11,19.9336649 11,19.801961 L11,17.5 C11,17.2238576 11.2238576,17 11.5,17 L12.5,17 Z M14.5,6 C14.7761424,6 15,6.22385763 15,6.5 L15,6.5 L15,11 C15,12.3807119 16.1192881,13.5 17.5,13.5 L17.5,13.5 L18.75,13.5 C19.4403559,13.5 20,14.0596441 20,14.75 C20,15.4403559 19.4403559,16 18.75,16 L18.75,16 L5.25,16 C4.55964406,16 4,15.4403559 4,14.75 C4,14.0596441 4.55964406,13.5 5.25,13.5 L5.25,13.5 L7,13.5 C8.1045695,13.5 9,12.6045695 9,11.5 L9,11.5 L9,6.5 C9,6.22385763 9.22385763,6 9.5,6 L9.5,6 Z M17,3 C17.5522847,3 18,3.44771525 18,4 C18,4.55228475 17.5522847,5 17,5 L7,5 C6.44771525,5 6,4.55228475 6,4 C6,3.44771525 6.44771525,3 7,3 L17,3 Z"></path></svg>