<svg xmlns:xlink="http://www.w3.org/1999/xlink" xmlns="http://www.w3.org/2000/svg" viewBox="0 0 24 24" width="24" height="24"><path fill="#3D474D" fill-rule="evenodd" d="M2.91311153,17.2368518 C2.38241598,17.049519 2,16.5501709 2,15.9710632 L2,11.502621 C2,10.7553867 2.60688188,10.1578947 3.37533968,10.1578947 L4.72727273,10.1578947 L4.72727273,8.36901781 C4.72727273,5.40330438 7.16552689,3 10.1772992,3 L13.8227008,3 C16.8312637,3 19.2727273,5.40743644 19.2727273,8.36886094 L19.2727273,10.1578947 L20.6246603,10.1578947 C21.3807213,10.1578947 22,10.7656771 22,11.502621 L22,15.9710632 C22,16.5599373 21.6230919,17.0558129 21.0872249,17.2395447 C21.0896635,17.2673108 21.0909091,17.2955337 21.0909091,17.3241722 L21.0909091,19.0968805 C21.0909091,19.5956596 20.7017545,20 20.173301,20 L18.3721535,20 C17.8653726,20 17.4545455,19.6169899 17.4545455,19.0968805 L17.4545455,17.3241722 L17.4545821,17.3157895 L6.54542004,17.3157895 L6.54545455,17.3241722 L6.54545455,19.0968805 C6.54545455,19.5956596 6.15629994,20 5.62784646,20 L3.826699,20 C3.31991804,20 2.90909091,19.6169899 2.90909091,19.0968805 L2.90909091,17.3241722 C2.90909091,17.2947147 2.91044827,17.2655867 2.91311153,17.2368518 L2.91311153,17.2368518 Z M3.37533968,16.4210526 L20.6246603,16.4210526 C20.8909755,16.4210526 21.0909091,16.2242125 21.0909091,15.9710632 L21.0909091,11.502621 L21.0909091,15.5263158 L16.5454545,15.5263158 L15.6363636,14.6315789 L8.36363636,14.6315789 L7.45454545,15.5263158 L2.90909091,15.5263158 L2.90909091,13.5144684 L2.90909091,15.9710632 C2.90909091,16.2132912 3.12078215,16.4210526 3.37533968,16.4210526 Z M6.54545455,10.1578947 L17.4545455,10.1578947 L17.4545455,8.36886094 C17.4545455,6.39498305 15.8263435,4.78947368 13.8227008,4.78947368 L10.1772992,4.78947368 C8.17028296,4.78947368 6.54545455,6.3910119 6.54545455,8.36901781 L6.54545455,10.1578947 Z M5.18181818,14.6315789 C5.93493375,14.6315789 6.54545455,14.030698 6.54545455,13.2894737 C6.54545455,12.5482494 5.93493375,11.9473684 5.18181818,11.9473684 C4.42870261,11.9473684 3.81818182,12.5482494 3.81818182,13.2894737 C3.81818182,14.030698 4.42870261,14.6315789 5.18181818,14.6315789 Z M18.8181818,14.6315789 C19.5712974,14.6315789 20.1818182,14.030698 20.1818182,13.2894737 C20.1818182,12.5482494 19.5712974,11.9473684 18.8181818,11.9473684 C18.0650663,11.9473684 17.4545455,12.5482494 17.4545455,13.2894737 C17.4545455,14.030698 18.0650663,14.6315789 18.8181818,14.6315789 Z"></path></svg>