<svg xmlns:xlink="http://www.w3.org/1999/xlink" xmlns="http://www.w3.org/2000/svg" viewBox="0 0 24 24" width="24" height="24"><g fill="none" fill-rule="evenodd"><g transform="translate(2 2)" fill="none"><path fill="#3D474D" d="M13.0140237,15.5 C13.7793959,15.5 14.4498382,15.233441 14.9897519,14.6410878 C15.3042071,14.2915994 15.5,13.8828756 15.5,13.4800754 C15.5,13.1838988 15.3872708,12.8995692 15.1084142,12.6981691 L13.2869471,11.406839 C13.0080906,11.2172859 12.776699,11.1225094 12.5631068,11.1225094 C12.2961165,11.1225094 12.0528587,11.2765213 11.7799353,11.5430802 L11.3586839,11.9577275 C11.2934196,12.0228864 11.210356,12.052504 11.1332255,12.052504 C11.0442287,12.052504 10.9552319,12.0169628 10.8959008,11.9873452 C10.5280475,11.7918686 9.899137,11.2528271 9.31175836,10.6723209 C8.73031284,10.0918148 8.19039914,9.4639203 8.00053937,9.09666128 C7.97087379,9.03150242 7.93527508,8.94857297 7.93527508,8.85971998 C7.93527508,8.78271405 7.95900755,8.70570813 8.02427184,8.64054927 L8.44552319,8.20813139 C8.70658037,7.9356489 8.86677454,7.69870759 8.86677454,7.42622509 C8.86677454,7.21297792 8.76591154,6.98196015 8.57011866,6.70355412 L7.29449838,4.90872375 C7.08683927,4.62439418 6.7961165,4.5 6.47572816,4.5 C6.08414239,4.5 5.6806904,4.67770598 5.33063646,5.01534733 C4.75512406,5.56623586 4.5,6.24744211 4.5,6.99973075 C4.5,8.6997846 5.79935275,10.7611739 7.51402373,12.4671513 C9.22869471,14.1790522 11.311219,15.5 13.0140237,15.5 Z"></path><circle cx="10" cy="10" r="10" stroke="#3D474D" stroke-linecap="round" stroke-width="2px" fill="none"></circle></g></g></svg>