<svg xmlns:xlink="http://www.w3.org/1999/xlink" xmlns="http://www.w3.org/2000/svg" viewBox="0 0 24 24" width="24" height="24"><g fill="none" fill-rule="evenodd"><g transform="translate(4 2)" fill="none"><path fill="#3D474D" d="M14,8 L14,14.9996703 C14,16.6567066 12.6511841,18 10.9942017,18 L6.00579834,18 C4.34574176,18 3,16.6513555 3,14.9996703 L3,8 L14,8 Z"></path><rect width="2" height="7" y="8" fill="#3D474D" rx="1"></rect><rect width="2" height="7" x="15" y="8" fill="#3D474D" rx="1"></rect><rect width="2" height="9" x="5" y="12" fill="#3D474D" rx="1"></rect><rect width="2" height="9" x="10" y="12" fill="#3D474D" rx="1"></rect><path fill="#3D474D" d="M8.5,1 C11.5375661,1 14,3.46243388 14,6.5 C14,6.66875367 13.9923999,6.83573225 13.9775233,7.00061211 L3.0224767,7.00061211 C3.0076001,6.83573225 3,6.66875367 3,6.5 C3,3.46243388 5.46243388,1 8.5,1 Z M6,4 C5.44771525,4 5,4.44771525 5,5 C5,5.55228475 5.44771525,6 6,6 C6.55228475,6 7,5.55228475 7,5 C7,4.44771525 6.55228475,4 6,4 Z M11,4 C10.4477153,4 10,4.44771525 10,5 C10,5.55228475 10.4477153,6 11,6 C11.5522847,6 12,5.55228475 12,5 C12,4.44771525 11.5522847,4 11,4 Z"></path><circle cx="14" cy="1" r="1" fill="#3D474D"></circle><circle cx="3" cy="1" r="1" fill="#3D474D"></circle><line x1="12" x2="14" y1="3" y2="1" stroke="#3D474D" fill="none"></line><line x1="5" x2="3" y1="3" y2="1" stroke="#3D474D" fill="none"></line></g></g></svg>