<svg xmlns:xlink="http://www.w3.org/1999/xlink" xmlns="http://www.w3.org/2000/svg" viewBox="0 0 24 24" width="24" height="24"><path fill="#3D474D" fill-rule="evenodd" d="M12,2 C20,2 24,9 24,12 C24,15 20,22 12,22 C4,22 0,15 0,12 C0,9 4,2 12,2 Z M12,4 C8.94166406,4 6.38189365,5.19989238 4.45639999,7.2457294 C2.93955437,8.85737786 2,10.883292 2,12 C2,13.116708 2.93955437,15.1426221 4.45639999,16.7542706 C6.38189365,18.8001076 8.94166406,20 12,20 C15.0583359,20 17.6181063,18.8001076 19.5436,16.7542706 C21.0604456,15.1426221 22,13.116708 22,12 C22,10.883292 21.0604456,8.85737786 19.5436,7.2457294 C17.6181063,5.19989238 15.0583359,4 12,4 Z M12,7 C14.7614237,7 17,9.23857625 17,12 C17,14.7614237 14.7614237,17 12,17 C9.23857625,17 7,14.7614237 7,12 C7,11.7555678 7.01753972,11.5152321 7.05142923,11.2801831 C7.57582198,11.7293928 8.25630914,12 9,12 C10.6568542,12 12,10.6568542 12,9 C12,8.25630914 11.7293928,7.57582198 11.2812728,7.05163309 C11.5152321,7.01753972 11.7555678,7 12,7 Z"></path></svg>